<svg width="35" height="15" viewBox="0 0 35 15" fill="none" xmlns="http://www.w3.org/2000/svg">
<path fill-rule="evenodd" clip-rule="evenodd" d="M3.25827 0.0803432C3.20443 0.0914708 3.10655 0.111214 3.04074 0.124256C1.99103 0.33293 1.14305 1.16212 0.631301 2.48057C0.451702 2.94327 0.247934 3.66369 0.222089 3.92729C0.215628 3.9931 0.201629 4.10569 0.19098 4.17748C0.18033 4.24927 0.161425 4.38137 0.148981 4.47111C0.136537 4.56085 0.115838 4.70324 0.102915 4.78747C0.0814976 4.9283 0.0576865 5.49007 0.0518235 5.99405C0.0479946 6.32082 0.158554 6.5131 0.361365 6.5326C0.535698 6.54935 0.621728 6.37023 0.755978 5.71119C0.799412 5.49833 0.826812 5.39878 0.887955 5.23258C0.920979 5.14284 0.982121 4.96168 1.024 4.83007C1.14963 4.43462 1.28269 4.12747 1.52451 3.6753C1.74682 3.25963 2.00443 2.9526 2.29303 2.759C2.43793 2.66196 2.62627 2.57019 2.64409 2.5879C2.65067 2.59448 2.66958 2.58862 2.68621 2.57474C2.70284 2.56098 2.75585 2.55117 2.80407 2.55308C2.85696 2.55523 2.9047 2.54363 2.9242 2.52401C2.99312 2.45509 3.30733 2.48452 3.56279 2.58371C4.06233 2.77779 4.75488 3.41554 5.44707 4.31891C5.69523 4.64281 6.22075 5.45717 6.61931 6.13548C6.72472 6.31495 6.85359 6.53308 6.90552 6.62019C6.95756 6.70741 7.00016 6.78256 7.00016 6.7871C7.00016 6.79177 7.0491 6.88031 7.10893 6.98381C7.16875 7.08743 7.21769 7.17585 7.21769 7.1804C7.21769 7.18495 7.24521 7.23556 7.27895 7.29287C7.31269 7.35031 7.40219 7.51471 7.47793 7.65829C7.55355 7.80188 7.62247 7.92907 7.63097 7.94103C7.63946 7.953 7.72753 8.11943 7.82672 8.31088C7.92591 8.50232 8.04341 8.72751 8.08804 8.81126C8.13267 8.89502 8.26477 9.14952 8.38179 9.37686C8.49881 9.6042 8.60171 9.80007 8.61056 9.81204C8.65029 9.86588 8.99656 10.4997 9.24053 10.965C9.30323 11.0847 9.3816 11.2315 9.41451 11.2913C9.44753 11.3511 9.51131 11.4686 9.5563 11.5524C10.3771 13.0805 11.4307 14.3134 12.2487 14.7031C13.1332 15.1244 14.0502 15.0245 14.9733 14.4062C15.9985 13.7195 16.8521 12.6808 17.8995 10.8454C17.9986 10.6719 18.1825 10.3586 18.3082 10.1492C18.4339 9.93983 18.5534 9.73917 18.5737 9.70327C19.0469 8.86702 19.6532 8.03472 20.1999 7.47104C20.4879 7.17394 20.4783 7.21689 20.3102 6.97867C19.4027 5.69276 18.5107 5.09354 17.7416 5.25328L17.6169 5.27912L17.2722 5.76168C16.8924 6.29342 16.5568 6.73876 16.3345 7.00559C16.2548 7.10131 16.1117 7.28103 16.0166 7.40499C14.8445 8.93151 14.4599 9.25266 13.7542 9.29406C12.5492 9.36466 11.3507 8.20235 9.36497 5.03683C9.23359 4.82743 9.09456 4.60716 9.05591 4.54733C9.01726 4.4875 8.86028 4.24269 8.707 4.00339C7.10988 1.50947 5.95679 0.434036 4.56356 0.138614C4.18223 0.0578484 3.51241 0.0279354 3.25827 0.0803432ZM21.1192 1.63475C20.9306 1.65664 20.7113 1.72975 20.4556 1.85599C20.051 2.05545 19.0187 3.24312 18.0594 4.61254C17.9756 4.73219 17.8603 4.89683 17.8031 4.97844C17.746 5.06004 17.7037 5.13111 17.7089 5.13638C17.7142 5.14176 17.7641 5.0799 17.8196 4.99902C17.9094 4.86848 18.0547 4.66028 18.289 4.32657C18.3559 4.23133 18.7646 3.68116 18.828 3.601C18.8423 3.58305 18.9003 3.50958 18.9571 3.43779C19.2937 3.01219 19.6187 2.64641 20.0205 2.24127C20.2871 1.97241 20.6192 1.75177 20.7574 1.75177C20.7755 1.75177 20.7956 1.74303 20.8022 1.73239C20.8244 1.69637 20.9769 1.68058 21.304 1.68058C21.6313 1.68058 21.7836 1.69637 21.8058 1.73239C21.8124 1.74303 21.8369 1.75177 21.8604 1.75177C21.8837 1.75177 21.9199 1.76122 21.9407 1.77271C21.9614 1.78431 22.0176 1.81195 22.0655 1.83433C22.5038 2.03905 23.0289 2.48201 23.365 2.93047C23.3977 2.97414 23.4371 3.02296 23.4524 3.03887C23.4823 3.07022 23.8734 3.59214 23.9878 3.75319C24.026 3.80704 24.3604 4.30144 24.7309 4.85184C25.6586 6.23 25.6809 6.26195 25.9372 6.58142C26.1201 6.8096 26.1582 6.85399 26.3185 7.02629C26.507 7.22886 26.7421 7.45823 26.8622 7.55659C26.916 7.6005 26.9796 7.6547 27.0037 7.67696C27.1526 7.81456 27.7967 8.19122 27.8831 8.19122C27.8964 8.19122 27.9243 8.19984 27.9451 8.21037C28.0223 8.24938 28.1405 8.27821 28.2127 8.2757C28.282 8.2733 28.2803 8.27187 28.1895 8.25572C27.4927 8.13152 26.6381 7.46134 25.8271 6.40338C25.6146 6.12614 25.4197 5.84257 24.6339 4.66698C23.3708 2.77719 22.8792 2.21937 22.1532 1.8518C21.9573 1.75249 21.908 1.7337 21.6956 1.67615C21.5783 1.64444 21.2428 1.62027 21.1192 1.63475ZM33.8347 2.37145C33.7326 2.41644 33.7361 2.41117 33.4682 2.91024C33.428 2.98503 33.3446 3.14165 33.2829 3.25831C33.2212 3.37485 33.1477 3.51198 33.1196 3.56283C33.0916 3.61368 33.0364 3.71407 32.9972 3.78586C32.8834 3.99393 32.5864 4.51167 32.4855 4.67787C32.2526 5.06195 32.1978 5.14906 32.0547 5.36312C31.8991 5.5956 31.5647 6.06464 31.4422 6.22246C30.6781 7.20529 30.1902 7.66057 29.5491 7.98913C29.2086 8.1637 28.7966 8.27319 28.4614 8.27833C28.3204 8.28049 28.2977 8.28527 28.3417 8.30322C28.4121 8.33182 28.8103 8.29365 28.8519 8.25428C28.8633 8.24351 28.8968 8.23478 28.9265 8.23478C28.9821 8.23478 29.1071 8.20044 29.1736 8.16682C29.1944 8.15641 29.2263 8.14779 29.2446 8.14779C29.2628 8.14779 29.2948 8.13882 29.3156 8.12793C29.3364 8.11704 29.4267 8.07265 29.5165 8.02945C29.7442 7.91961 29.9764 7.78273 30.0169 7.73439C30.0228 7.72733 30.0621 7.6979 30.104 7.66918C30.1458 7.64034 30.185 7.61139 30.191 7.60481C30.1969 7.59823 30.241 7.56353 30.2888 7.52787C30.4902 7.37759 30.8386 7.00762 31.252 6.5052C31.3681 6.36413 31.7761 5.81182 31.8907 5.64083C31.9649 5.52991 32.0338 5.43599 32.0438 5.43204C32.0537 5.42797 32.0618 5.41541 32.0618 5.40404C32.0618 5.39267 32.1304 5.28128 32.2142 5.15648C32.2979 5.03156 32.3665 4.92352 32.3665 4.91634C32.3665 4.90916 32.3946 4.86225 32.4291 4.81212C32.4877 4.72705 32.512 4.68648 32.6298 4.47661C32.655 4.43174 32.6833 4.3852 32.6928 4.37323C32.7096 4.35182 32.761 4.26088 32.8526 4.0905C32.8784 4.04263 32.9043 3.99848 32.9103 3.9925C32.9163 3.98652 32.9445 3.93758 32.973 3.88374C33.0016 3.82989 33.0544 3.73202 33.0903 3.66621C33.1263 3.6004 33.1947 3.47321 33.2425 3.38347C33.2902 3.29373 33.3658 3.1517 33.4104 3.06794C33.4552 2.98419 33.5452 2.81392 33.6106 2.6896C33.7966 2.33615 34.0507 2.24438 34.2644 2.45341C34.4216 2.60728 34.4292 2.6378 34.3692 2.87758C34.318 3.08254 34.3016 3.14811 34.2792 3.23654C34.2664 3.28739 34.2508 3.36097 34.2443 3.39998C34.2378 3.43899 34.2238 3.4762 34.2132 3.48278C34.2025 3.48936 34.1938 3.52789 34.1938 3.56833C34.1938 3.60877 34.1852 3.6473 34.1745 3.65388C34.1639 3.66046 34.1499 3.69768 34.1434 3.73668C34.1239 3.8543 34.1045 3.93578 34.085 3.98173C34.0655 4.02756 34.0462 4.10904 34.0268 4.22666C34.0203 4.26567 34.0063 4.30288 33.9957 4.30946C33.985 4.31604 33.9763 4.34966 33.9763 4.38412C33.9763 4.41858 33.9665 4.45292 33.9545 4.46034C33.9425 4.46764 33.9328 4.49719 33.9328 4.52579C33.9328 4.55451 33.924 4.60033 33.9133 4.62785C33.9026 4.65537 33.8819 4.7219 33.8673 4.77575C33.8527 4.82959 33.8332 4.89815 33.824 4.92806C33.8149 4.95798 33.7955 5.02642 33.7809 5.08026C33.7664 5.1341 33.7457 5.19525 33.7348 5.21595C33.7241 5.23677 33.7152 5.27362 33.7152 5.29791C33.7152 5.32208 33.7065 5.35893 33.6956 5.37975C33.6848 5.40045 33.6639 5.46159 33.6489 5.51544C33.6134 5.64442 33.5398 5.8848 33.5191 5.9396C33.51 5.96353 33.4909 6.02719 33.4763 6.08103C33.4618 6.13488 33.4411 6.1959 33.4303 6.21672C33.4195 6.23754 33.4107 6.27367 33.4107 6.29701C33.4107 6.32034 33.4009 6.34558 33.3889 6.353C33.3769 6.36042 33.3671 6.38974 33.3671 6.41821C33.3671 6.44669 33.3573 6.47613 33.3454 6.48354C33.3334 6.49084 33.3237 6.52028 33.3237 6.54875C33.3237 6.57723 33.3139 6.60667 33.3019 6.61409C33.29 6.62138 33.2801 6.65082 33.2801 6.6793C33.2801 6.70777 33.2703 6.73721 33.2584 6.74451C33.2464 6.75192 33.2366 6.78136 33.2366 6.80984C33.2366 6.83831 33.2269 6.86775 33.2149 6.87505C33.203 6.88247 33.1932 6.9119 33.1932 6.94038C33.1932 6.96886 33.1833 6.99817 33.1714 7.00559C33.1594 7.01301 33.1496 7.03825 33.1496 7.06159C33.1496 7.10263 33.1417 7.1238 33.0877 7.22826C33.0739 7.25506 33.0626 7.29467 33.0626 7.31644C33.0626 7.3381 33.0545 7.36514 33.0447 7.37651C33.0347 7.38788 33.0134 7.44124 32.9972 7.49509C32.981 7.54893 32.9618 7.60277 32.9545 7.61474C32.9472 7.6267 32.9286 7.67564 32.9134 7.7235C32.8843 7.81468 32.8531 7.89353 32.8208 7.95706C32.8102 7.97788 32.8015 8.00983 32.8015 8.02814C32.8015 8.04632 32.7929 8.07827 32.7823 8.09909C32.7717 8.11991 32.7534 8.16131 32.7416 8.19122C32.7297 8.22114 32.7002 8.2897 32.676 8.34354C32.6347 8.43532 32.6048 8.50448 32.5322 8.67534C32.4986 8.75455 32.4551 8.85589 32.3994 8.98536C32.3788 9.03322 32.3544 9.09197 32.3452 9.1159C32.336 9.13983 32.3064 9.20827 32.2794 9.2681C32.2524 9.32792 32.2231 9.39648 32.2142 9.42041C32.2052 9.44434 32.1771 9.51039 32.1516 9.56723C32.0513 9.79134 32.0214 9.85882 31.9856 9.94258C31.8487 10.2625 31.5567 10.8688 31.3986 11.1609C31.3533 11.2446 31.2883 11.3652 31.2542 11.429C31.2201 11.4928 31.1725 11.5726 31.1484 11.6065C31.1244 11.6402 31.1046 11.6744 31.1046 11.6823C31.1046 11.6903 31.0753 11.7395 31.0394 11.7917C31.0035 11.8439 30.9741 11.8924 30.9741 11.8996C30.9741 12.0306 30.0269 13.2341 29.5608 13.6952C29.4338 13.8209 29.3009 13.9381 29.2654 13.9557C29.23 13.9733 29.1619 14.0128 29.1141 14.0435C29.0313 14.0967 28.8665 14.179 28.7605 14.2202C28.6409 14.2666 28.6092 14.2781 28.536 14.3014C28.3727 14.3534 27.9533 14.3284 27.8145 14.2582C27.7937 14.2478 27.7662 14.2392 27.7533 14.2392C27.516 14.2392 26.6524 13.5487 26.3403 13.1094C26.2865 13.0337 26.1542 12.8534 26.0466 12.7088C25.9389 12.5643 25.7921 12.3612 25.7203 12.2575C25.3815 11.7681 25.2743 11.6065 25.2743 11.5858C25.2743 11.5734 25.2662 11.5633 25.2563 11.5633C25.2463 11.5633 25.2245 11.5363 25.2078 11.5034C25.1912 11.4705 25.1322 11.3751 25.0769 11.2913C24.974 11.1355 24.8236 10.8929 24.7477 10.76C24.7244 10.7191 24.6668 10.6291 24.6199 10.56C24.573 10.4909 24.5346 10.4282 24.5346 10.4208C24.5346 10.4134 24.5053 10.3646 24.4694 10.3124C24.4335 10.2603 24.4041 10.2114 24.4041 10.2039C24.4041 10.1965 24.365 10.1327 24.3171 10.0622C24.2692 9.99175 24.2301 9.92798 24.2301 9.92044C24.2301 9.91302 24.2007 9.86421 24.1648 9.81204C24.1289 9.75987 24.0996 9.70662 24.0996 9.69394C24.0996 9.68114 24.0898 9.67061 24.0778 9.67061C24.0658 9.67061 24.056 9.66008 24.056 9.64727C24.056 9.63459 24.0267 9.58135 23.9908 9.52918C23.9549 9.47701 23.9255 9.42388 23.9255 9.41108C23.9255 9.39828 23.9157 9.38775 23.9037 9.38775C23.8917 9.38775 23.882 9.3783 23.882 9.36669C23.882 9.34683 23.6904 9.03753 23.6429 8.98081C23.6308 8.96633 23.621 8.94898 23.621 8.94228C23.621 8.93558 23.5018 8.75156 23.3562 8.53343C22.8859 7.82928 22.4278 7.31166 22.0165 7.02019C21.8957 6.93451 21.9388 6.98297 22.0818 7.09341C22.5937 7.48934 23.1026 8.14157 23.88 9.39864C24.028 9.63794 24.1856 9.89256 24.2301 9.96435C24.2747 10.0361 24.3824 10.2123 24.4694 10.3559C25.1888 11.5433 25.5997 12.154 26.3892 13.2093C26.7352 13.6719 27.388 14.1566 27.8631 14.304C28.4084 14.473 29.1614 14.1887 29.6797 13.6179C29.7874 13.4994 29.9113 13.363 29.9551 13.315C30.6901 12.509 31.3922 11.351 32.0395 9.87725C32.1025 9.73366 32.1774 9.56448 32.2059 9.50142C32.2344 9.43824 32.2577 9.38212 32.2577 9.37686C32.2577 9.37148 32.287 9.30303 32.3229 9.22466C32.3588 9.14629 32.3881 9.07773 32.3881 9.07234C32.3881 9.06696 32.4176 8.9984 32.4535 8.92003C32.4894 8.84166 32.5187 8.77321 32.5187 8.76783C32.5187 8.76256 32.542 8.70645 32.5706 8.64327C32.7556 8.2337 32.7653 8.20857 33.1087 7.25578C33.1861 7.04088 33.4696 6.18429 33.5406 5.95049C33.5788 5.82486 33.6291 5.66333 33.6523 5.59154C33.7142 5.39961 33.7243 5.36599 33.8436 4.94876C33.9552 4.55846 33.9916 4.42732 34.0651 4.15032C34.088 4.06357 34.1257 3.92155 34.1488 3.8348C34.3239 3.17731 34.4378 2.68685 34.4262 2.64043C34.3679 2.40818 34.0647 2.27034 33.8347 2.37145ZM18.2093 5.00823C18.2303 5.01373 18.2646 5.01373 18.2855 5.00823C18.3065 5.00284 18.2894 4.9983 18.2475 4.9983C18.2056 4.9983 18.1884 5.00284 18.2093 5.00823ZM18.5686 5.00871C18.5957 5.01385 18.6348 5.01373 18.6556 5.00823C18.6764 5.00284 18.6543 4.99854 18.6064 4.99878C18.5586 4.99902 18.5415 5.00344 18.5686 5.00871ZM17.9894 5.03994C17.8727 5.07356 17.9202 5.07942 18.0516 5.04771C18.1174 5.0318 18.1469 5.01876 18.117 5.01888C18.087 5.01888 18.0296 5.02845 17.9894 5.03994ZM18.824 5.04807C18.9936 5.08636 19.0508 5.08505 18.911 5.04616C18.8511 5.02953 18.7777 5.01649 18.7478 5.01732C18.7178 5.01804 18.7522 5.03192 18.824 5.04807ZM17.7907 5.12262C17.7488 5.14499 17.7082 5.15935 17.7006 5.15456C17.6831 5.1438 17.6284 5.20817 17.6429 5.22265C17.6488 5.22851 17.7107 5.19896 17.7806 5.15684C17.9141 5.07643 17.9208 5.05334 17.7907 5.12262ZM19.1582 5.13554C19.1985 5.15301 19.2425 5.16653 19.2562 5.16557C19.2904 5.16306 19.1578 5.10407 19.1176 5.10383C19.0997 5.10383 19.118 5.11807 19.1582 5.13554ZM19.3978 5.22217C19.4622 5.25268 19.5189 5.27374 19.5238 5.26871C19.5287 5.26381 19.4908 5.24275 19.4395 5.22205C19.2906 5.16186 19.2709 5.16198 19.3978 5.22217ZM19.7216 5.37221C19.872 5.45334 19.9226 5.47559 19.9226 5.46064C19.9226 5.44819 19.6253 5.29767 19.6022 5.29839C19.593 5.29863 19.6467 5.33189 19.7216 5.37221ZM19.9443 5.48169C19.9443 5.48768 19.9737 5.50778 20.0096 5.52632C20.0455 5.54487 20.0748 5.55516 20.0748 5.54918C20.0748 5.54319 20.0455 5.5231 20.0096 5.50455C19.9737 5.486 19.9443 5.47571 19.9443 5.48169ZM20.0966 5.56581C20.0966 5.57143 20.1692 5.62145 20.258 5.67673C20.3467 5.73201 20.5449 5.86542 20.6986 5.97311C20.8521 6.08091 20.9434 6.13907 20.9015 6.10245C20.776 5.99273 20.0966 5.53973 20.0966 5.56581ZM21.0104 6.19399C21.0283 6.21301 21.1604 6.32429 21.304 6.44131C21.4476 6.55833 21.6394 6.72094 21.7302 6.80266C21.8211 6.88438 21.902 6.95127 21.9102 6.95127C21.9412 6.95127 21.1558 6.27942 21.0104 6.18154C20.9813 6.16204 20.9813 6.16335 21.0104 6.19399Z" fill="#1677BC"/>
<path fill-rule="evenodd" clip-rule="evenodd" d="M3.4016 0.0130784C3.31892 0.0244454 3.22104 0.0432307 3.18407 0.054837C3.12185 0.0743404 3.12341 0.0749391 3.20381 0.0639311C3.25168 0.0573502 3.47195 0.044667 3.69331 0.0358127C3.91467 0.0269584 4.06064 0.0178659 4.01757 0.0155925C3.63432 -0.00450913 3.5325 -0.0049891 3.4016 0.0130784ZM4.20459 0.0562739C4.25245 0.066205 4.3161 0.0738616 4.34602 0.073383L4.40034 0.0724263L4.34602 0.0549575C4.3161 0.0453853 4.25245 0.0377278 4.20459 0.0379671L4.1176 0.0382062L4.20459 0.0562739ZM2.94285 0.0985108C2.90313 0.115501 2.90408 0.117177 2.95362 0.117177C2.98353 0.117177 3.02769 0.108801 3.05162 0.0985108C3.09122 0.0815202 3.09026 0.0798443 3.04073 0.0798443C3.01081 0.0798443 2.96678 0.0882207 2.94285 0.0985108ZM4.47656 0.0985108C4.50647 0.108083 4.55541 0.11598 4.58532 0.11598H4.63964L4.58532 0.0985108C4.55541 0.0889386 4.50647 0.081042 4.47656 0.081042H4.42212L4.47656 0.0985108ZM2.67088 0.183344C2.492 0.25011 2.22805 0.379574 2.15961 0.434256C2.13568 0.45328 2.20974 0.420734 2.32413 0.361746C2.43864 0.302877 2.60986 0.228573 2.70462 0.196745C2.79951 0.164918 2.88123 0.134646 2.88638 0.129501C2.91079 0.105092 2.81853 0.128185 2.67088 0.183344ZM4.6832 0.142064C4.74829 0.169943 4.80261 0.169943 4.7593 0.142064C4.74135 0.130458 4.70713 0.121485 4.6832 0.122083L4.63964 0.123279L4.6832 0.142064ZM4.83551 0.185499C4.90049 0.213497 4.95493 0.213497 4.91161 0.185499C4.89366 0.173892 4.85945 0.165038 4.83551 0.165636L4.79196 0.166832L4.83551 0.185499ZM4.97694 0.229052C4.99489 0.240658 5.02421 0.25011 5.04215 0.25011C5.07111 0.25011 5.07111 0.247837 5.04215 0.229052C5.02421 0.217446 4.99489 0.207992 4.97694 0.207992C4.94787 0.207992 4.94787 0.210267 4.97694 0.229052ZM5.30324 0.344157C5.30324 0.347626 5.41547 0.408052 5.55271 0.478408C6.51591 0.972333 7.50544 2.08546 8.85679 4.19517C8.93876 4.32308 9.01031 4.42778 9.01581 4.42778C9.02909 4.42778 9.02957 4.42837 8.76406 4.01438C7.69305 2.34391 6.92046 1.42498 6.005 0.732788C5.8096 0.585017 5.30324 0.304552 5.30324 0.344157ZM1.84253 0.648433C1.52258 0.890849 1.2798 1.16067 1.09434 1.4799C1.04528 1.56437 1.07723 1.52405 1.29249 1.22982C1.43954 1.02881 1.59724 0.867877 1.80962 0.702517C1.91013 0.624264 1.98647 0.556779 1.97474 0.556659C1.96876 0.55654 1.90929 0.59782 1.84253 0.648433ZM0.964758 1.68391C0.854318 1.86566 0.618005 2.36042 0.634038 2.37645C0.641457 2.38375 0.658807 2.35719 0.672806 2.31723C0.70236 2.23239 0.942143 1.75642 1.01513 1.63772C1.04277 1.59285 1.06012 1.55612 1.05378 1.55612C1.04756 1.55612 1.00747 1.61355 0.964758 1.68391ZM20.9995 1.62133L20.9342 1.63796H20.9995C21.0354 1.63796 21.0941 1.63054 21.13 1.62133L21.1952 1.6047H21.13C21.0941 1.6047 21.0354 1.61223 20.9995 1.62133ZM21.4781 1.62264C21.5883 1.64538 21.6773 1.64442 21.5869 1.62133C21.551 1.61223 21.4922 1.6047 21.4563 1.6047C21.4014 1.60458 21.4049 1.60745 21.4781 1.62264ZM20.8145 1.66488C20.7708 1.67888 20.7687 1.68247 20.8036 1.68295C20.8275 1.68331 20.8668 1.67517 20.8907 1.66488C20.9461 1.64107 20.8889 1.64107 20.8145 1.66488ZM21.7174 1.66488C21.7413 1.67517 21.7755 1.68355 21.7935 1.68355C21.8141 1.68355 21.81 1.67661 21.7826 1.66488C21.7587 1.65459 21.7245 1.64621 21.7065 1.64621C21.6859 1.64621 21.6899 1.65304 21.7174 1.66488ZM21.9688 1.73859C21.9879 1.75773 22.2814 1.90215 22.2879 1.89557C22.2963 1.88731 22.102 1.78238 22.0219 1.75187C21.9865 1.73847 21.9626 1.73248 21.9688 1.73859ZM19.9335 2.25225C19.7662 2.41977 19.6392 2.55545 19.6509 2.55366C19.6728 2.55055 20.2665 1.94774 20.2477 1.94774C20.2421 1.94774 20.1007 2.08474 19.9335 2.25225ZM22.5223 2.05076C22.5343 2.06344 22.6223 2.13404 22.7181 2.20762C22.8138 2.28133 22.8481 2.30191 22.7943 2.25333C22.7017 2.16993 22.4759 2.0017 22.5223 2.05076ZM33.9111 2.31543C33.8784 2.32464 33.9233 2.33039 34.0229 2.32967C34.1145 2.32895 34.178 2.32118 34.1644 2.31244C34.1337 2.29282 33.9849 2.29461 33.9111 2.31543ZM33.7479 2.3828C33.6628 2.43915 33.6931 2.43915 33.7854 2.38291C33.8245 2.35898 33.8468 2.33948 33.8348 2.33948C33.8229 2.33948 33.7838 2.35899 33.7479 2.3828ZM34.312 2.44837C34.371 2.51406 34.4243 2.57257 34.4302 2.57855C34.4363 2.58453 34.4203 2.55522 34.3948 2.51334C34.3693 2.47146 34.3162 2.41283 34.2766 2.38315C34.2186 2.33936 34.2253 2.35193 34.312 2.44837ZM22.9465 2.38567C22.9465 2.39237 23.0003 2.45171 23.0661 2.51752C23.1319 2.58333 23.1858 2.63108 23.1858 2.62342C23.1858 2.61588 23.1319 2.55653 23.0661 2.49156C23.0003 2.42659 22.9465 2.37897 22.9465 2.38567ZM0.530539 2.61372C0.485071 2.74726 0.499429 2.76162 0.548966 2.63215C0.569905 2.57735 0.582109 2.52758 0.576246 2.52171C0.570383 2.51573 0.549803 2.55725 0.530539 2.61372ZM2.98976 2.52961C2.98425 2.53858 3.06908 2.54684 3.17809 2.54792C3.2908 2.54899 3.35793 2.54253 3.33364 2.53308C3.27788 2.5113 3.00268 2.50855 2.98976 2.52961ZM33.5739 2.64388C33.5435 2.7037 33.5236 2.75264 33.5296 2.75264C33.5356 2.75264 33.5653 2.7037 33.5955 2.64388C33.6259 2.58405 33.6458 2.53511 33.6398 2.53511C33.6338 2.53511 33.6041 2.58405 33.5739 2.64388ZM3.42146 2.57855C3.48643 2.60655 3.54076 2.60655 3.49756 2.57855C3.47961 2.56694 3.44539 2.55809 3.42146 2.55869L3.37791 2.55988L3.42146 2.57855ZM19.4581 2.75767C19.368 2.85614 19.2981 2.94038 19.3026 2.9448C19.3071 2.94935 19.3431 2.91537 19.3827 2.8693C19.4225 2.82336 19.4977 2.739 19.5503 2.68217C19.6028 2.62521 19.6404 2.57855 19.6338 2.57855C19.6271 2.57855 19.5481 2.65919 19.4581 2.75767ZM3.68362 2.68288C4.72579 3.23628 5.977 4.91045 7.4997 7.78893C7.56299 7.90859 7.65142 8.07502 7.69617 8.15878C7.78902 8.33227 7.99566 8.73012 8.27265 9.2682C8.50609 9.72204 8.87343 10.3717 8.88814 10.357C8.89413 10.3511 8.88922 10.3337 8.87725 10.3184C8.86529 10.3032 8.82616 10.2369 8.79039 10.1711C8.75449 10.1053 8.70412 10.0147 8.67839 9.96984C8.65279 9.92497 8.61079 9.8515 8.58518 9.80663C8.55958 9.76176 8.46039 9.57331 8.36478 9.38785C8.26918 9.20239 8.13828 8.9504 8.07415 8.82776C8.00989 8.70511 7.90233 8.49943 7.8352 8.3708C7.69126 8.095 7.47828 7.69668 7.32058 7.4082C7.28456 7.34239 7.22581 7.2347 7.18992 7.16889C7.15402 7.10309 7.08821 6.98559 7.0437 6.90781C6.99907 6.83004 6.93805 6.72235 6.90801 6.66851C6.87798 6.61466 6.802 6.48257 6.73907 6.37488C6.67613 6.26719 6.60517 6.14479 6.58136 6.10291C6.55767 6.06103 6.51974 6.00073 6.49725 5.96902C6.47463 5.93719 6.45621 5.9062 6.45621 5.89998C6.45621 5.89388 6.37652 5.76322 6.27912 5.6097C6.18172 5.45619 6.07487 5.28508 6.04173 5.22957C5.3706 4.10459 4.36612 3.00583 3.69894 2.66673C3.51264 2.57209 3.49995 2.58549 3.68362 2.68288ZM34.4411 2.70322C34.4384 2.79739 34.4402 2.80134 34.4598 2.74522C34.4726 2.70897 34.4738 2.66613 34.4628 2.64136C34.4488 2.6099 34.4433 2.62533 34.4411 2.70322ZM23.2775 2.76269C23.3168 2.81606 23.357 2.86009 23.3668 2.86057C23.3765 2.86105 23.3484 2.81737 23.3043 2.76353C23.2012 2.63765 23.1853 2.63718 23.2775 2.76269ZM2.34351 2.76293C2.2783 2.80457 2.23152 2.83879 2.23977 2.83903C2.25712 2.83975 2.47501 2.70622 2.47501 2.69497C2.47501 2.68073 2.46221 2.68731 2.34351 2.76293ZM33.4234 2.92602C33.3792 3.01013 33.3479 3.07893 33.3536 3.07893C33.3681 3.07893 33.5206 2.79009 33.5112 2.78064C33.5071 2.77657 33.4675 2.8419 33.4234 2.92602ZM34.4032 2.87313C34.3958 2.89251 34.3905 2.92482 34.3915 2.9448C34.3925 2.96466 34.402 2.95222 34.4125 2.91692C34.4331 2.84824 34.4258 2.81426 34.4032 2.87313ZM2.11557 2.93152C1.92054 3.08946 1.74549 3.31297 1.58001 3.61498C1.44241 3.86625 1.2731 4.21204 1.28291 4.22185C1.28722 4.22616 1.3687 4.07648 1.46407 3.88946C1.69667 3.43334 1.80819 3.26655 2.02811 3.04663C2.13005 2.9448 2.21082 2.86141 2.20783 2.86141C2.20472 2.86141 2.1632 2.89299 2.11557 2.93152ZM0.420817 2.93906C0.412801 2.97101 0.411126 3.002 0.417108 3.00798C0.423091 3.01396 0.434577 2.99278 0.442475 2.96084C0.450491 2.92901 0.452167 2.89802 0.446184 2.89204C0.440201 2.88605 0.428715 2.90723 0.420817 2.93906ZM23.4506 2.97017C23.4902 3.02401 23.5251 3.07211 23.5282 3.07714C23.5313 3.08216 23.5384 3.08168 23.5439 3.0763C23.5493 3.0708 23.5143 3.0227 23.4661 2.96933L23.3785 2.87229L23.4506 2.97017ZM19.1014 3.17418C18.8244 3.50861 18.7218 3.64453 18.7463 3.64453C18.7591 3.64453 18.7696 3.63723 18.7696 3.62826C18.7698 3.6121 19.0195 3.29574 19.2012 3.08157C19.2532 3.0203 19.29 2.97017 19.2831 2.97017C19.276 2.97017 19.1943 3.06194 19.1014 3.17418ZM34.3596 3.04711C34.3522 3.06661 34.347 3.0988 34.348 3.11878C34.349 3.13876 34.3584 3.1262 34.3691 3.0909C34.3896 3.02222 34.3822 2.98824 34.3596 3.04711ZM0.379657 3.06553C0.371521 3.08683 0.365419 3.12057 0.366256 3.14055C0.367094 3.1646 0.374632 3.1591 0.388631 3.12428C0.400118 3.09544 0.40622 3.0617 0.402032 3.04926C0.397964 3.03694 0.387913 3.04423 0.379657 3.06553ZM23.5816 3.1396C23.7447 3.36275 23.9297 3.6011 23.9398 3.6011C23.9469 3.6011 23.9432 3.58877 23.9316 3.57382C23.9201 3.55886 23.8352 3.44639 23.7432 3.32374C23.6511 3.2011 23.5707 3.10071 23.5645 3.10071C23.5583 3.10071 23.566 3.11818 23.5816 3.1396ZM33.2703 3.20732C33.2394 3.26834 33.2184 3.31824 33.2235 3.31824C33.2393 3.31824 33.3467 3.1165 33.3363 3.10609C33.331 3.10071 33.3013 3.1463 33.2703 3.20732ZM0.336223 3.21785C0.327967 3.23915 0.321985 3.27289 0.322702 3.29287C0.32366 3.31692 0.331198 3.31142 0.345078 3.2766C0.356684 3.24776 0.362666 3.2139 0.358598 3.20158C0.35441 3.18913 0.344359 3.19643 0.336223 3.21785ZM34.3162 3.2212C34.3087 3.24058 34.3034 3.27289 34.3045 3.29287C34.3056 3.31285 34.315 3.30029 34.3255 3.26499C34.346 3.19631 34.3388 3.16233 34.3162 3.2212ZM0.288721 3.40523C0.280465 3.44292 0.278551 3.47857 0.284533 3.48456C0.290516 3.49054 0.302242 3.46457 0.310498 3.427C0.318754 3.38943 0.320549 3.35378 0.314566 3.34779C0.308583 3.34181 0.296977 3.36766 0.288721 3.40523ZM33.118 3.49796C33.0725 3.58458 33.045 3.64561 33.0569 3.63364C33.0878 3.60253 33.218 3.3576 33.2086 3.34827C33.2043 3.34396 33.1636 3.41133 33.118 3.49796ZM34.2726 3.39518C34.2652 3.41468 34.26 3.44687 34.2609 3.46685C34.262 3.48683 34.2715 3.47427 34.282 3.43897C34.3026 3.37029 34.2953 3.33631 34.2726 3.39518ZM0.214537 3.70089C0.188572 3.80463 0.171941 3.89401 0.177564 3.89963C0.183188 3.90525 0.197666 3.87223 0.209751 3.82616C0.268859 3.60086 0.282858 3.53361 0.272807 3.52356C0.266705 3.51746 0.240501 3.59727 0.214537 3.70089ZM34.2265 3.57932C34.2182 3.61689 34.2159 3.65219 34.2216 3.65781C34.2271 3.66332 34.2378 3.63651 34.2455 3.59834C34.2637 3.50765 34.2461 3.49006 34.2265 3.57932ZM24.0772 3.81348C24.1522 3.9244 24.2242 4.02168 24.2374 4.02981C24.2652 4.04692 24.0233 3.69347 23.9739 3.64453C23.9557 3.62658 24.0023 3.70268 24.0772 3.81348ZM18.6039 3.80235C18.5473 3.87714 18.4918 3.95048 18.4803 3.96544C18.469 3.98039 18.465 3.9926 18.4716 3.9926C18.4783 3.9926 18.5297 3.93146 18.586 3.85667C18.6423 3.78189 18.6981 3.70842 18.7099 3.69347C18.7217 3.67851 18.7258 3.66631 18.7191 3.66631C18.7123 3.66631 18.6605 3.72757 18.6039 3.80235ZM32.9962 3.71345C32.9817 3.74133 32.936 3.82784 32.8945 3.90561C32.8502 3.98865 32.8377 4.02455 32.8642 3.9926C32.889 3.96269 32.9096 3.93134 32.9098 3.92296C32.91 3.91447 32.9401 3.85703 32.9766 3.79517C33.013 3.73343 33.0383 3.67827 33.0327 3.67265C33.0272 3.66715 33.0108 3.68545 32.9962 3.71345ZM34.1845 3.74408C34.1766 3.77591 34.1742 3.80618 34.1793 3.81133C34.1845 3.81647 34.1951 3.79457 34.2031 3.76263C34.2111 3.7308 34.2135 3.70053 34.2084 3.69538C34.2033 3.69024 34.1925 3.71213 34.1845 3.74408ZM34.1421 3.89556C34.1347 3.91506 34.1294 3.94725 34.1305 3.96723C34.1315 3.98721 34.1409 3.97465 34.1514 3.93936C34.172 3.87067 34.1647 3.83669 34.1421 3.89556ZM0.158898 4.06954C0.150403 4.14875 0.148369 4.2185 0.154352 4.22449C0.160334 4.23047 0.17218 4.17052 0.180675 4.09131C0.18917 4.01198 0.191205 3.94223 0.185222 3.93624C0.179239 3.93026 0.167394 3.99021 0.158898 4.06954ZM18.34 4.16131C18.1486 4.42311 18.0258 4.60175 18.0372 4.60175C18.0435 4.60175 18.1339 4.48186 18.2383 4.33528C18.3426 4.18871 18.4376 4.05661 18.4492 4.04166C18.4608 4.0267 18.4651 4.01438 18.4588 4.01438C18.4526 4.01438 18.3991 4.08054 18.34 4.16131ZM34.0975 4.07037C34.0895 4.1022 34.0872 4.13247 34.0922 4.13762C34.0974 4.14276 34.1081 4.12087 34.1161 4.08904C34.1242 4.05709 34.1266 4.02682 34.1214 4.02167C34.1163 4.01653 34.1055 4.03843 34.0975 4.07037ZM32.7681 4.12865L32.7337 4.19936L32.778 4.14492C32.8207 4.09263 32.8345 4.05793 32.813 4.05793C32.8073 4.05793 32.7872 4.08976 32.7681 4.12865ZM34.0551 4.22197C34.0477 4.24136 34.0424 4.27366 34.0434 4.29353C34.0445 4.31351 34.0539 4.30094 34.0645 4.26565C34.0849 4.19697 34.0777 4.16299 34.0551 4.22197ZM32.6847 4.28096L32.6456 4.35156L32.6905 4.29724C32.7302 4.24902 32.7479 4.21025 32.7301 4.21025C32.7266 4.21025 32.7063 4.24208 32.6847 4.28096ZM1.23792 4.29963C1.22692 4.32822 1.20095 4.39368 1.18025 4.44501C1.15955 4.49634 1.14699 4.54276 1.15249 4.54826C1.158 4.55377 1.18839 4.49287 1.2201 4.41282C1.25192 4.33289 1.27334 4.26301 1.26796 4.25763C1.26245 4.25213 1.24893 4.27103 1.23792 4.29963ZM0.11379 4.39427C0.105414 4.46164 0.103738 4.52206 0.1102 4.52852C0.116661 4.53486 0.128866 4.48509 0.137241 4.41773C0.145617 4.35036 0.147292 4.28994 0.140831 4.28347C0.134369 4.27713 0.122285 4.32691 0.11379 4.39427ZM34.0105 4.39667C34.0025 4.42861 34.0001 4.45888 34.0052 4.46391C34.0104 4.46906 34.0211 4.44716 34.0292 4.41533C34.0372 4.38339 34.0394 4.35311 34.0343 4.34809C34.0293 4.34294 34.0185 4.36484 34.0105 4.39667ZM32.4751 4.62879C32.3875 4.77549 32.301 4.91991 32.2828 4.94982C32.2645 4.97973 32.2606 4.99445 32.2739 4.98248C32.3077 4.95221 32.652 4.37968 32.6423 4.36998C32.6378 4.36568 32.5627 4.4821 32.4751 4.62879ZM9.04716 4.49299C9.07325 4.54599 9.10866 4.60235 9.3926 5.04231C9.52505 5.24775 9.5996 5.33941 9.49777 5.17189C9.34797 4.92541 9.10065 4.53833 9.06331 4.49203L9.02036 4.43866L9.04716 4.49299ZM33.9669 4.54898C33.9589 4.58081 33.9566 4.61108 33.9618 4.61623C33.9668 4.62137 33.9776 4.59948 33.9856 4.56765C33.9936 4.5357 33.996 4.50543 33.9909 4.50028C33.9857 4.49514 33.975 4.51704 33.9669 4.54898ZM1.09865 4.67199C1.07998 4.72308 1.05414 4.79918 1.04122 4.84106C1.01441 4.92816 0.962484 5.09232 0.941426 5.15658C0.927306 5.19977 0.927307 5.19977 0.954468 5.15694C0.984381 5.10967 1.15046 4.59696 1.13933 4.58596C1.13562 4.58213 1.11731 4.6209 1.09865 4.67199ZM0.0703558 4.72056C0.0618605 4.78793 0.0599457 4.848 0.0659283 4.85398C0.071911 4.85996 0.0836372 4.80971 0.0920129 4.74234C0.100508 4.67498 0.102422 4.61503 0.0964398 4.60905C0.0904572 4.60307 0.0787315 4.6532 0.0703558 4.72056ZM17.9404 4.72691C17.902 4.78374 17.8356 4.87875 17.7928 4.93797C17.7501 4.99732 17.726 5.03908 17.7393 5.03082C17.7678 5.01324 18.0375 4.62353 18.0212 4.62353C18.0152 4.62353 17.9789 4.67007 17.9404 4.72691ZM0.0348189 4.99888C0.0228537 5.22729 0.0281184 5.79409 0.0413998 5.70471C0.0565957 5.6024 0.060544 4.92816 0.0459464 4.92816C0.0418782 4.92816 0.036853 4.95999 0.0348189 4.99888ZM24.882 5.0118C24.9201 5.08586 25.2305 5.54234 25.2688 5.58075C25.2868 5.59869 25.2108 5.47629 25.1001 5.30878C24.9023 5.00941 24.83 4.91093 24.882 5.0118ZM31.9886 5.3978C31.8961 5.53648 31.8309 5.64344 31.8437 5.63555C31.8676 5.62071 32.0996 5.28269 32.1462 5.19463C32.2025 5.08826 32.1492 5.15706 31.9886 5.3978ZM17.543 5.30339C17.2763 5.70997 16.6344 6.57614 16.2946 6.98834C16.188 7.11756 15.9603 7.40437 15.7885 7.62573C15.2702 8.29363 14.8397 8.77619 14.6293 8.92503C14.4638 9.04217 14.4485 9.05988 14.5695 8.99431C14.6764 8.93628 14.9868 8.63882 15.2029 8.38719C15.28 8.29746 15.3485 8.21908 15.3554 8.2131C15.3739 8.19647 15.7193 7.75986 15.8544 7.58217C15.9501 7.45618 16.2044 7.13396 16.3693 6.92959C16.5403 6.71757 16.6299 6.60138 16.859 6.29459C17.0064 6.09717 17.178 5.86325 17.2405 5.77458C17.587 5.28209 17.6485 5.18912 17.6283 5.18912C17.6225 5.18912 17.5841 5.24057 17.543 5.30339ZM33.7494 5.31033C33.7414 5.34228 33.7391 5.37255 33.7441 5.3777C33.7493 5.38284 33.7601 5.36095 33.7681 5.329C33.7761 5.29717 33.7784 5.2669 33.7733 5.26175C33.7682 5.25661 33.7574 5.2785 33.7494 5.31033ZM9.56801 5.31967C9.60307 5.38811 9.89155 5.8234 9.92134 5.85272C9.95197 5.88287 9.93343 5.85176 9.74641 5.55897C9.59146 5.31643 9.51105 5.20851 9.56801 5.31967ZM0.854318 5.385C0.846182 5.41072 0.844387 5.43669 0.85037 5.44267C0.856352 5.44865 0.867959 5.4325 0.876095 5.40677C0.884231 5.38105 0.886026 5.35508 0.880044 5.3491C0.874061 5.34312 0.862455 5.35927 0.854318 5.385ZM33.7071 5.44016C33.6996 5.45966 33.6944 5.49185 33.6953 5.51183C33.6964 5.53181 33.7059 5.51925 33.7164 5.48395C33.7368 5.41527 33.7297 5.38129 33.7071 5.44016ZM0.813517 5.52726C0.805979 5.54665 0.800834 5.58386 0.801911 5.6097C0.803227 5.64321 0.809928 5.63567 0.824884 5.58386C0.846541 5.50848 0.837687 5.46432 0.813517 5.52726ZM25.4689 5.87976C25.5672 6.02621 25.6576 6.15209 25.6696 6.15963C25.6957 6.17578 25.3698 5.69358 25.3224 5.64608C25.3046 5.62813 25.3705 5.73318 25.4689 5.87976ZM0.769246 5.74838C0.742803 5.90213 0.706906 6.04799 0.66431 6.17518C0.640978 6.24494 0.626979 6.30704 0.633201 6.31326C0.639423 6.31948 0.668379 6.24769 0.697694 6.15388C0.756323 5.96567 0.811363 5.6937 0.794373 5.67671C0.78827 5.67072 0.777023 5.70291 0.769246 5.74838ZM31.7546 5.73845C31.7275 5.77734 31.6803 5.84303 31.6497 5.88419C31.6191 5.92547 31.6064 5.95179 31.6214 5.9427C31.6508 5.92487 31.8309 5.66773 31.8139 5.66773C31.8084 5.66773 31.7816 5.69956 31.7546 5.73845ZM33.6214 5.71966C33.6131 5.74096 33.607 5.7747 33.6079 5.79469C33.6087 5.81874 33.6164 5.81323 33.6302 5.77841C33.6417 5.74958 33.6478 5.71571 33.6438 5.70339C33.6396 5.69095 33.6295 5.69825 33.6214 5.71966ZM9.95042 5.91254C10.0025 6.00085 10.1794 6.25523 10.189 6.25523C10.2022 6.25523 10.1983 6.24889 10.0613 6.04225C10.0041 5.95598 9.95209 5.88538 9.94587 5.88538C9.93965 5.88538 9.94168 5.89759 9.95042 5.91254ZM0 5.99415C0 6.03602 0.00454675 6.05313 0.0100508 6.0322C0.0154351 6.01126 0.0154351 5.97704 0.0100508 5.9561C0.00454675 5.93516 0 5.95227 0 5.99415ZM31.5303 6.04847C31.4984 6.09035 31.4801 6.12457 31.4897 6.12433C31.4992 6.12421 31.5293 6.08999 31.5563 6.04823C31.6196 5.95047 31.605 5.95059 31.5303 6.04847ZM33.533 6.00587C33.5255 6.02526 33.5203 6.05756 33.5214 6.07742C33.5223 6.09741 33.5318 6.08484 33.5423 6.04954C33.5629 5.98098 33.5556 5.947 33.533 6.00587ZM0.0186656 6.17901C0.0163922 6.28059 0.194794 6.55974 0.262039 6.55974C0.272568 6.55974 0.250672 6.53414 0.21346 6.50279C0.139276 6.44045 0.0895002 6.35657 0.0471432 6.22256C0.032067 6.1747 0.0192638 6.15508 0.0186656 6.17901ZM31.3869 6.23883C31.3467 6.28969 31.2803 6.37297 31.2392 6.42382C31.1982 6.47467 31.1732 6.51571 31.1836 6.51499C31.194 6.51428 31.2466 6.45457 31.3005 6.38206C31.3543 6.30967 31.4163 6.22699 31.4382 6.19839C31.4601 6.1698 31.474 6.14634 31.4691 6.14634C31.4641 6.14634 31.4271 6.18798 31.3869 6.23883ZM25.7364 6.26576C25.7634 6.30752 25.7934 6.34174 25.8029 6.34197C25.8125 6.34209 25.7942 6.30787 25.7623 6.266C25.6876 6.16812 25.673 6.168 25.7364 6.26576ZM10.3319 6.47814C10.4061 6.58882 10.4928 6.71362 10.5246 6.75549C10.5565 6.79737 10.6548 6.92959 10.7434 7.04924C10.9105 7.27527 11.2832 7.74658 11.4144 7.8977C11.7257 8.25642 12.3743 8.83506 12.5694 8.92814L12.6238 8.95411L12.5706 8.91534C11.8814 8.41424 11.4998 8.01807 10.7733 7.04924C10.6298 6.8578 10.446 6.60569 10.365 6.48903C10.284 6.37237 10.2131 6.27689 10.2073 6.27689C10.2017 6.27689 10.2577 6.36746 10.3319 6.47814ZM25.8612 6.4286C25.8866 6.46414 25.9183 6.50004 25.9319 6.50841C25.9454 6.51679 25.9292 6.48771 25.8957 6.4438C25.8229 6.34844 25.7955 6.33635 25.8612 6.4286ZM0.525873 6.49214C0.504455 6.52851 0.47167 6.56226 0.453004 6.56728C0.424766 6.57494 0.425245 6.57685 0.455756 6.57901C0.492489 6.58152 0.596946 6.45828 0.576007 6.43734C0.569905 6.43124 0.54729 6.45588 0.525873 6.49214ZM26.0401 6.65642C26.0915 6.72151 26.1417 6.77536 26.1516 6.77607C26.1615 6.77679 26.1236 6.72343 26.0674 6.65762C25.936 6.50375 25.919 6.50303 26.0401 6.65642ZM31.0512 6.65762C30.995 6.72343 30.9571 6.77679 30.967 6.77607C30.9852 6.77488 31.1799 6.53797 31.1626 6.53797C31.1576 6.53797 31.1075 6.59181 31.0512 6.65762ZM26.2421 6.88484C26.3618 7.0277 26.6763 7.34502 26.808 7.45594C26.8851 7.52067 26.8596 7.491 26.7459 7.38355C26.64 7.2834 26.4687 7.11278 26.3653 7.00449C26.2618 6.89609 26.2063 6.84224 26.2421 6.88484ZM30.7825 6.97147C30.6965 7.06623 30.626 7.14999 30.626 7.15753C30.626 7.17165 30.7924 6.99504 30.8971 6.86976C31.0066 6.73874 30.9401 6.79773 30.7825 6.97147ZM20.9886 6.86833C20.7848 6.94526 20.5983 7.08885 20.3237 7.38008C19.8786 7.85211 19.8725 7.86946 20.3032 7.43823C20.6718 7.06922 20.7343 7.01586 20.8801 6.94574C21.4725 6.66049 22.1381 6.99983 22.8813 7.96578C23.1557 8.3227 23.1724 8.34268 23.0957 8.22399C22.8762 7.88453 22.3288 7.29357 22.0219 7.0648C21.7066 6.82956 21.2969 6.75178 20.9886 6.86833ZM33.1202 7.26162C33.0695 7.39408 33.0778 7.41933 33.1298 7.29106C33.1535 7.23267 33.1691 7.1811 33.1644 7.17643C33.1598 7.17177 33.1398 7.21005 33.1202 7.26162ZM30.376 7.37733C30.2072 7.53395 29.9252 7.74119 29.7184 7.86072C29.644 7.90368 29.5866 7.94233 29.5909 7.94675C29.6056 7.96147 29.9113 7.76763 30.1145 7.61484C30.3197 7.46049 30.5777 7.23327 30.5456 7.23518C30.536 7.23578 30.4597 7.29967 30.376 7.37733ZM26.9502 7.57679C26.9505 7.58576 26.9774 7.61209 27.01 7.6353C27.0424 7.65839 27.1009 7.70123 27.1398 7.7303C27.265 7.82399 27.215 7.76668 27.08 7.66186C27.0082 7.6061 26.9497 7.56781 26.9502 7.57679ZM32.9461 7.74023C32.8955 7.87269 32.9037 7.89794 32.9558 7.76967C32.9794 7.71128 32.995 7.65971 32.9903 7.65504C32.9857 7.65038 32.9658 7.68866 32.9461 7.74023ZM27.2975 7.83931C27.2975 7.8496 27.322 7.86922 27.3519 7.88286C27.3819 7.8965 27.4063 7.90404 27.4063 7.89973C27.4063 7.8953 27.3819 7.8758 27.3519 7.85618C27.322 7.83656 27.2975 7.82902 27.2975 7.83931ZM19.7959 7.94867C19.6057 8.15782 19.1453 8.80275 18.9008 9.20299C18.7761 9.40699 18.1636 10.426 18.1162 10.5083C18.0693 10.5899 17.6898 11.2468 17.6387 11.335C17.2192 12.0589 16.7876 12.6771 16.3478 13.1842C16.1765 13.3815 15.663 13.8955 15.4955 14.0372C15.3205 14.1851 15.2246 14.2731 15.2778 14.2368C16.0674 13.6988 17.0051 12.5061 17.9696 10.8128C18.6955 9.53861 19.3021 8.59276 19.7261 8.07395C19.8854 7.87927 19.9268 7.80485 19.7959 7.94867ZM27.4716 7.9501C27.5015 7.97463 27.5357 7.99462 27.5477 7.99473C27.5709 7.99497 27.5317 7.96482 27.4607 7.92809C27.4318 7.91313 27.4355 7.92055 27.4716 7.9501ZM27.5804 8.00622C27.5804 8.02118 27.7135 8.08723 27.7235 8.07718C27.7283 8.07251 27.6979 8.05241 27.6562 8.03243C27.6145 8.01256 27.5804 8.00072 27.5804 8.00622ZM29.3098 8.06078C29.2261 8.09548 29.1685 8.12432 29.1818 8.12492C29.2121 8.12635 29.4328 8.03829 29.4611 8.01364C29.4913 7.9872 29.4776 7.99138 29.3098 8.06078ZM27.7543 8.09417C27.7543 8.10936 27.9124 8.17134 27.9333 8.16428C27.9438 8.16081 27.9077 8.14155 27.8533 8.12133C27.7989 8.10122 27.7543 8.08902 27.7543 8.09417ZM29.0487 8.14789C28.9886 8.16321 28.9877 8.16464 29.0379 8.16667C29.0678 8.16799 29.107 8.1595 29.125 8.14789C29.1619 8.12396 29.1428 8.12396 29.0487 8.14789ZM28.8748 8.19132C28.8474 8.20317 28.8433 8.21011 28.8639 8.21011C28.8818 8.21011 28.916 8.20161 28.94 8.19132C28.9674 8.1796 28.9714 8.17266 28.9509 8.17266C28.9329 8.17266 28.8987 8.18103 28.8748 8.19132ZM28.1569 8.23428C28.1984 8.25271 28.337 8.26515 28.3181 8.24876C28.3132 8.24445 28.265 8.23512 28.2112 8.22794C28.1458 8.21932 28.1278 8.22148 28.1569 8.23428ZM28.7007 8.23488C28.6414 8.24995 28.6405 8.25163 28.6898 8.25259C28.7197 8.25306 28.7638 8.24517 28.7878 8.23488C28.8414 8.21179 28.7913 8.21179 28.7007 8.23488ZM32.5949 8.61896C32.5766 8.66264 32.5666 8.70344 32.5729 8.70954C32.579 8.71576 32.584 8.7154 32.584 8.70894C32.584 8.70236 32.5988 8.66156 32.6169 8.61824C32.635 8.57493 32.6449 8.53939 32.6389 8.53939C32.6329 8.53939 32.6131 8.57517 32.5949 8.61896ZM23.4507 8.7787C23.5539 8.94621 23.6953 9.1623 23.7137 9.18121C23.7515 9.21986 23.6823 9.09865 23.5711 8.93102C23.4674 8.77487 23.3807 8.66515 23.4507 8.7787ZM12.6424 8.96931C12.6598 8.99766 13.0123 9.17044 13.0513 9.16984C13.0743 9.1696 12.8996 9.07711 12.648 8.95638C12.6373 8.95136 12.6348 8.9571 12.6424 8.96931ZM14.3642 9.0813C14.3283 9.10248 14.2451 9.14041 14.1793 9.16566C14.1135 9.1909 14.0773 9.21208 14.0991 9.21268C14.1418 9.21399 14.462 9.07233 14.462 9.0521C14.462 9.032 14.4333 9.04062 14.3642 9.0813ZM32.3338 9.22811C32.3155 9.27179 32.3056 9.31259 32.3118 9.31869C32.3179 9.32491 32.3229 9.32455 32.3229 9.31809C32.3229 9.31151 32.3377 9.27071 32.3558 9.2274C32.374 9.18408 32.3838 9.14854 32.3778 9.14854C32.3718 9.14854 32.3521 9.18432 32.3338 9.22811ZM13.0915 9.17965C13.0915 9.19581 13.3243 9.25743 13.3776 9.25539C13.4057 9.25444 13.3602 9.23529 13.2764 9.21316C13.1106 9.16912 13.0915 9.16565 13.0915 9.17965ZM13.9182 9.23565C13.8648 9.25264 13.8651 9.25312 13.9291 9.25491C13.965 9.25587 14.009 9.24726 14.027 9.23565C14.0681 9.20897 14.0014 9.20897 13.9182 9.23565ZM23.7436 9.24103C23.8598 9.4326 23.9788 9.60059 23.9249 9.49661C23.8859 9.42159 23.7473 9.21387 23.7362 9.21387C23.7313 9.21387 23.7345 9.22608 23.7436 9.24103ZM13.5437 9.27346C13.6069 9.27789 13.7048 9.27777 13.7612 9.27334C13.8176 9.26891 13.7659 9.26521 13.6462 9.26532C13.5266 9.26532 13.4804 9.26903 13.5437 9.27346ZM32.2033 9.53263C32.185 9.5763 32.175 9.6171 32.1812 9.62333C32.1873 9.62943 32.1924 9.62907 32.1924 9.62261C32.1924 9.61615 32.2072 9.57534 32.2253 9.53191C32.2435 9.4886 32.2534 9.45318 32.2474 9.45318C32.2414 9.45318 32.2216 9.48895 32.2033 9.53263ZM23.9803 9.61985C24.0011 9.6518 24.0377 9.71091 24.0615 9.75135C24.0854 9.79179 24.1094 9.82051 24.1146 9.81513C24.1252 9.8046 23.9697 9.56194 23.9525 9.56194C23.9469 9.56194 23.9593 9.58803 23.9803 9.61985ZM24.1541 9.89721C24.1751 9.93215 24.2114 9.99329 24.235 10.0333C24.2586 10.0731 24.2824 10.1058 24.288 10.1058C24.3032 10.1058 24.2126 9.95045 24.1612 9.88823L24.1161 9.83391L24.1541 9.89721ZM24.3405 10.2091C24.3958 10.3016 24.4259 10.3393 24.4259 10.3164C24.4259 10.2965 24.3146 10.1275 24.3015 10.1275C24.2961 10.1275 24.3137 10.1643 24.3405 10.2091ZM31.8552 10.3159C31.8369 10.3595 31.827 10.4003 31.8332 10.4065C31.8393 10.4126 31.8443 10.4123 31.8443 10.4057C31.8443 10.3993 31.8591 10.3585 31.8772 10.3152C31.8954 10.2718 31.9052 10.2363 31.8992 10.2363C31.8932 10.2363 31.8735 10.2721 31.8552 10.3159ZM24.4588 10.3976C24.4797 10.4325 24.5161 10.4937 24.5396 10.5336C24.5632 10.5735 24.587 10.6061 24.5925 10.6061C24.6077 10.6061 24.5171 10.4508 24.4657 10.3886L24.4207 10.3342L24.4588 10.3976ZM8.89568 10.3995C8.92356 10.4726 9.04967 10.6959 9.05817 10.6873C9.0693 10.6763 8.94426 10.4352 8.90884 10.3995C8.89448 10.385 8.89018 10.385 8.89568 10.3995ZM31.5783 10.895C31.498 11.052 31.4359 11.184 31.4402 11.1884C31.4445 11.1927 31.5136 11.0675 31.5936 10.9102C31.6736 10.7528 31.7358 10.6209 31.7317 10.6168C31.7276 10.6129 31.6586 10.738 31.5783 10.895ZM24.6327 10.6805C24.6537 10.7153 24.69 10.7765 24.7136 10.8164C24.7372 10.8563 24.761 10.889 24.7666 10.889C24.7818 10.889 24.6912 10.7336 24.6398 10.6715L24.5947 10.617L24.6327 10.6805ZM9.14408 10.8695C9.18691 10.9545 9.22604 11.0199 9.23095 11.0149C9.24112 11.0047 9.09131 10.7149 9.076 10.7149C9.07061 10.7149 9.10124 10.7844 9.14408 10.8695ZM24.7878 10.9379C24.904 11.1295 25.0232 11.2975 24.9691 11.1935C24.9302 11.1185 24.7915 10.9108 24.7805 10.9108C24.7755 10.9108 24.7788 10.923 24.7878 10.9379ZM9.32811 11.2153C9.42395 11.4087 9.52888 11.5872 9.54013 11.5759C9.54647 11.5696 9.5418 11.552 9.52984 11.5367C9.51787 11.5215 9.46618 11.4307 9.41509 11.335C9.31399 11.1454 9.24973 11.0571 9.32811 11.2153ZM31.3339 11.3586C31.3135 11.3895 31.3007 11.4186 31.3053 11.4233C31.3098 11.4278 31.3308 11.4024 31.3517 11.3669C31.3986 11.2876 31.3846 11.2811 31.3339 11.3586ZM25.0902 11.4111C25.1349 11.4918 25.6676 12.2813 25.6773 12.2813C25.6895 12.2813 25.129 11.4341 25.0944 11.4003C25.0793 11.3854 25.078 11.389 25.0902 11.4111ZM31.2468 11.5108C31.2265 11.5418 31.2149 11.5721 31.2209 11.5782C31.227 11.5842 31.2476 11.5589 31.2667 11.5218C31.3091 11.4401 31.2974 11.4337 31.2468 11.5108ZM9.54539 11.6161C9.54539 11.6843 10.3261 12.9247 10.3964 12.9681C10.4086 12.9757 10.3215 12.8365 10.2025 12.6588C9.99014 12.3412 9.80707 12.044 9.6453 11.7537C9.57267 11.6236 9.54539 11.586 9.54539 11.6161ZM31.1649 11.6559C31.1173 11.7292 31.0746 11.8166 31.0985 11.7918C31.129 11.7601 31.2188 11.6069 31.2068 11.6069C31.2012 11.6069 31.1824 11.6289 31.1649 11.6559ZM30.9917 11.9387C30.9044 12.0702 30.8596 12.1507 30.8734 12.1507C30.8813 12.1507 30.9982 11.9725 31.0694 11.8516C31.1141 11.776 31.0576 11.8392 30.9917 11.9387ZM25.7623 12.4128C25.8851 12.5845 25.9289 12.6216 25.8175 12.4596C25.7656 12.3842 25.713 12.3161 25.7003 12.3083C25.6877 12.3005 25.7156 12.3476 25.7623 12.4128ZM30.6508 12.4504C30.5451 12.6132 30.5742 12.5938 30.7004 12.4173C30.7453 12.3545 30.7739 12.3033 30.7638 12.3035C30.7539 12.3038 30.7029 12.3698 30.6508 12.4504ZM25.9582 12.6801C25.9917 12.724 26.0236 12.7599 26.029 12.7599C26.044 12.7599 25.9499 12.6327 25.922 12.6155C25.9085 12.6071 25.9247 12.6362 25.9582 12.6801ZM30.5142 12.6457C30.4452 12.729 30.4203 12.7677 30.4456 12.7526C30.4733 12.7358 30.57 12.6076 30.5547 12.6076C30.5498 12.6076 30.5316 12.6248 30.5142 12.6457ZM26.0888 12.8541C26.1223 12.898 26.1541 12.934 26.1595 12.934C26.1746 12.934 26.0804 12.8067 26.0525 12.7894C26.0389 12.7811 26.0553 12.8101 26.0888 12.8541ZM30.2463 12.9938C30.1544 13.1105 30.1125 13.1696 30.1529 13.1253C30.2472 13.0221 30.4362 12.7817 30.4232 12.7817C30.4177 12.7817 30.3381 12.8772 30.2463 12.9938ZM26.2532 13.0808C26.4619 13.373 26.9494 13.8812 26.9494 13.8064C26.9494 13.7932 26.9408 13.7824 26.9304 13.7824C26.8907 13.7824 26.4662 13.3375 26.3277 13.1508C26.168 12.9355 26.1116 12.8827 26.2532 13.0808ZM10.4558 13.0599C10.4828 13.0976 10.5159 13.1354 10.5297 13.1439C10.5434 13.1524 10.5328 13.1285 10.506 13.0909C10.479 13.0532 10.4459 13.0154 10.4321 13.0069C10.4184 12.9984 10.429 13.0222 10.4558 13.0599ZM10.5705 13.2113C10.8807 13.6097 11.54 14.3153 11.7157 14.4372C11.8492 14.5298 11.9168 14.5712 11.9168 14.5603C11.9168 14.5546 11.8622 14.5138 11.7955 14.4695C11.5818 14.3276 10.7947 13.5038 10.6249 13.2442C10.5995 13.2055 10.5702 13.1737 10.5598 13.1735C10.5494 13.1734 10.5542 13.1904 10.5705 13.2113ZM29.9654 13.3232C29.9191 13.3784 29.8173 13.4919 29.739 13.5757C29.515 13.8157 29.4474 13.8983 29.6145 13.728C29.8179 13.5206 30.0687 13.2392 30.0581 13.2302C30.0533 13.2263 30.0117 13.2681 29.9654 13.3232ZM26.9788 13.8424C26.9873 13.8562 27.0251 13.8894 27.0628 13.9162C27.1004 13.943 27.1244 13.9538 27.1159 13.94C27.1074 13.9263 27.0696 13.893 27.0319 13.8662C26.9942 13.8393 26.9703 13.8286 26.9788 13.8424ZM29.2711 13.9908C29.2026 14.0336 29.1467 14.0738 29.1467 14.0803C29.1467 14.0867 29.1727 14.0749 29.2046 14.0541C29.2365 14.0331 29.2952 13.9967 29.3352 13.9732C29.3978 13.9363 29.4235 13.913 29.4016 13.913C29.3982 13.913 29.3395 13.9479 29.2711 13.9908ZM27.3411 14.0968C27.3411 14.1028 27.3704 14.1229 27.4063 14.1414C27.4422 14.1599 27.4716 14.1702 27.4716 14.1643C27.4716 14.1583 27.4422 14.1382 27.4063 14.1196C27.3704 14.1011 27.3411 14.0908 27.3411 14.0968ZM29.0379 14.1323L28.9835 14.1766L29.0542 14.1421C29.0931 14.1231 29.125 14.103 29.125 14.0972C29.125 14.0757 29.0903 14.0896 29.0379 14.1323ZM27.6238 14.2483C27.6537 14.2643 27.7027 14.2834 27.7326 14.2908C27.7625 14.2984 27.7479 14.2856 27.7 14.2626C27.6015 14.2152 27.5405 14.2037 27.6238 14.2483ZM15.0385 14.3842C14.9428 14.4503 14.8127 14.5341 14.7493 14.5702C14.686 14.6065 14.6386 14.6406 14.644 14.6461C14.6569 14.6589 15.0748 14.3988 15.1652 14.3217C15.2708 14.2317 15.2303 14.2517 15.0385 14.3842ZM27.8306 14.3263C27.8545 14.3366 27.8887 14.3449 27.9067 14.3449C27.9272 14.3449 27.9232 14.3381 27.8958 14.3263C27.8718 14.316 27.8376 14.3076 27.8197 14.3076C27.7991 14.3076 27.803 14.3145 27.8306 14.3263ZM27.9936 14.3691C28.0476 14.387 28.2051 14.3989 28.1876 14.3836C28.1827 14.3793 28.1248 14.3701 28.059 14.3632C27.9817 14.3553 27.9586 14.3574 27.9936 14.3691ZM28.3308 14.3698L28.2438 14.3854L28.3199 14.3859C28.3618 14.3862 28.4255 14.3789 28.4614 14.3698C28.5499 14.3472 28.4567 14.3472 28.3308 14.3698ZM11.982 14.6091C12.0119 14.6325 12.0461 14.6516 12.0581 14.6516C12.0701 14.6516 12.0555 14.6325 12.0255 14.6091C11.9956 14.5857 11.9613 14.5665 11.9493 14.5665C11.9374 14.5665 11.9521 14.5857 11.982 14.6091ZM12.0908 14.6613C12.0908 14.6796 12.3109 14.7878 12.3231 14.7756C12.329 14.7697 12.2864 14.7427 12.2286 14.7154C12.1707 14.6881 12.116 14.6619 12.107 14.6573C12.0981 14.6528 12.0908 14.6545 12.0908 14.6613ZM14.3206 14.7831C14.2727 14.8052 14.2483 14.8238 14.2663 14.8241C14.2842 14.8245 14.3332 14.8061 14.375 14.7831C14.4718 14.7301 14.4352 14.7301 14.3206 14.7831ZM12.4606 14.8357C12.4606 14.8506 12.68 14.919 12.6913 14.9078C12.6969 14.9022 12.6529 14.8816 12.5933 14.8621C12.479 14.8247 12.4606 14.821 12.4606 14.8357ZM14.0052 14.8919C13.962 14.9199 14.0163 14.9199 14.0813 14.8919L14.1249 14.8732L14.0813 14.872C14.0574 14.8714 14.0231 14.8803 14.0052 14.8919ZM12.7544 14.9354C12.7783 14.9457 12.8223 14.9538 12.8522 14.9535L12.9066 14.9529L12.8522 14.9354C12.8223 14.9258 12.7783 14.9177 12.7544 14.9173L12.7108 14.9167L12.7544 14.9354ZM13.8203 14.9354C13.7806 14.9524 13.7816 14.9541 13.8312 14.9541C13.8611 14.9541 13.9052 14.9457 13.9291 14.9354C13.9687 14.9184 13.9677 14.9167 13.9182 14.9167C13.8883 14.9167 13.8443 14.9251 13.8203 14.9354ZM12.9828 14.9779C13.0354 14.9957 13.3255 15.0089 13.3073 14.9926C13.3022 14.9882 13.215 14.9788 13.1133 14.972C13.001 14.9644 12.9497 14.9668 12.9828 14.9779ZM13.4939 14.979L13.3852 14.9938L13.5157 14.9951C13.5875 14.9958 13.6708 14.9885 13.7007 14.979C13.7712 14.9564 13.6586 14.9564 13.4939 14.979Z" fill="#113F5B"/>
<path fill-rule="evenodd" clip-rule="evenodd" d="M20.9668 1.68602C20.9489 1.69786 20.9078 1.70779 20.8756 1.70803C20.8435 1.70815 20.811 1.71808 20.8036 1.73005C20.7962 1.74201 20.7755 1.75182 20.7574 1.75182C20.7117 1.75182 20.4534 1.87698 20.3359 1.95607C20.1679 2.06914 19.5909 2.66896 19.214 3.12244C19.1294 3.22415 19.0138 3.36605 18.9571 3.43785C18.9003 3.50964 18.8423 3.5831 18.828 3.60105C18.7646 3.68122 18.3559 4.23138 18.289 4.32663C18.0907 4.60889 17.9214 4.85106 17.8182 5.00015L17.7043 5.16431L17.8423 5.10173C18.6198 4.74924 19.8746 5.23096 21.3434 6.44579C21.5139 6.58686 21.8897 6.91471 21.924 6.95228C21.93 6.95886 21.9691 6.98817 22.011 7.01725C22.418 7.30071 22.8829 7.82478 23.3562 8.53349C23.5018 8.75161 23.6209 8.93564 23.6209 8.94234C23.6209 8.94904 23.6308 8.96639 23.6428 8.98087C23.6903 9.03758 23.882 9.34688 23.882 9.36675C23.882 9.37835 23.8917 9.3878 23.9037 9.3878C23.9157 9.3878 23.9255 9.39833 23.9255 9.41114C23.9255 9.42394 23.9549 9.47706 23.9908 9.52923C24.0267 9.5814 24.056 9.63465 24.056 9.64733C24.056 9.66013 24.0658 9.67066 24.0778 9.67066C24.0897 9.67066 24.0996 9.68119 24.0996 9.694C24.0996 9.70668 24.1289 9.75992 24.1648 9.81209C24.2007 9.86426 24.2301 9.91308 24.2301 9.9205C24.2301 9.92803 24.2692 9.99181 24.3171 10.0623C24.3649 10.1328 24.4041 10.1965 24.4041 10.204C24.4041 10.2115 24.4335 10.2603 24.4694 10.3125C24.5053 10.3646 24.5346 10.4135 24.5346 10.4209C24.5346 10.4283 24.573 10.491 24.6199 10.56C24.6668 10.6292 24.7244 10.7192 24.7477 10.7601C24.8236 10.8929 24.974 11.1356 25.0769 11.2914C25.1322 11.3751 25.1911 11.4706 25.2078 11.5035C25.2245 11.5364 25.2463 11.5633 25.2562 11.5633C25.2662 11.5633 25.2743 11.5735 25.2743 11.5858C25.2743 11.6065 25.3815 11.7682 25.7202 12.2575C25.792 12.3613 25.9389 12.5643 26.0465 12.7089C26.1542 12.8534 26.2864 13.0337 26.3403 13.1095C26.6523 13.5487 27.516 14.2392 27.7533 14.2392C27.7662 14.2392 27.7937 14.2478 27.8145 14.2583C27.9533 14.3285 28.3727 14.3535 28.536 14.3015C28.6091 14.2781 28.6408 14.2666 28.7605 14.2202C28.8665 14.179 29.0313 14.0967 29.1141 14.0436C29.1619 14.0128 29.23 13.9734 29.2654 13.9558C29.4356 13.8713 30.0129 13.2428 30.4468 12.6698C30.6224 12.4377 30.9741 11.9242 30.9741 11.8997C30.9741 11.8925 31.0035 11.8439 31.0394 11.7917C31.0753 11.7396 31.1046 11.6904 31.1046 11.6824C31.1046 11.6745 31.1243 11.6403 31.1484 11.6065C31.1725 11.5727 31.2201 11.4928 31.2542 11.4291C31.2883 11.3653 31.3532 11.2447 31.3986 11.1609C31.5567 10.8689 31.8487 10.2626 31.9856 9.94263C32.0214 9.85888 32.0513 9.79139 32.1516 9.56728C32.1771 9.51045 32.2052 9.4444 32.2141 9.42047C32.2231 9.39654 32.2524 9.32798 32.2794 9.26815C32.3064 9.20833 32.336 9.13988 32.3452 9.11595C32.3544 9.09202 32.3777 9.03567 32.3969 8.9908C32.4515 8.86289 32.494 8.76382 32.5322 8.67539C32.5516 8.63052 32.582 8.55957 32.5997 8.51769C32.6175 8.47581 32.6518 8.39744 32.676 8.3436C32.7002 8.28975 32.7297 8.22119 32.7416 8.19128C32.7534 8.16137 32.7717 8.11997 32.7823 8.09915C32.7929 8.07833 32.8015 8.04638 32.8015 8.02819C32.8015 8.00989 32.8101 7.97794 32.8208 7.95712C32.8531 7.89358 32.8843 7.81473 32.9134 7.72356C32.9286 7.6757 32.9471 7.62676 32.9544 7.61479C32.9617 7.60283 32.981 7.54898 32.9972 7.49514C33.0134 7.4413 33.0347 7.38793 33.0447 7.37657C33.0545 7.3652 33.0626 7.33816 33.0626 7.3165C33.0626 7.29472 33.0724 7.25763 33.0844 7.23382C33.0963 7.21001 33.1158 7.17112 33.1278 7.14743C33.1398 7.12362 33.1496 7.08497 33.1496 7.06164C33.1496 7.03831 33.1594 7.01306 33.1714 7.00564C33.1833 6.99823 33.1931 6.96891 33.1931 6.94043C33.1931 6.91196 33.203 6.88252 33.2149 6.8751C33.2269 6.8678 33.2366 6.83837 33.2366 6.80989C33.2366 6.78141 33.2464 6.75198 33.2584 6.74456C33.2703 6.73726 33.2801 6.70783 33.2801 6.67935C33.2801 6.65087 33.2899 6.62144 33.3019 6.61414C33.3139 6.60672 33.3237 6.57729 33.3237 6.54881C33.3237 6.52033 33.3334 6.4909 33.3453 6.4836C33.3573 6.47618 33.3671 6.44675 33.3671 6.41827C33.3671 6.38979 33.3769 6.36048 33.3889 6.35306C33.4009 6.34564 33.4107 6.32039 33.4107 6.29706C33.4107 6.27373 33.4195 6.23759 33.4303 6.21677C33.4411 6.19596 33.4618 6.13493 33.4762 6.08109C33.4908 6.02725 33.51 5.96359 33.5191 5.93966C33.5398 5.88486 33.6134 5.64448 33.6489 5.51549C33.6639 5.46165 33.6848 5.40051 33.6956 5.37981C33.7064 5.35899 33.7152 5.32213 33.7152 5.29796C33.7152 5.27367 33.724 5.23682 33.7348 5.216C33.7457 5.1953 33.7664 5.13416 33.7809 5.08032C33.7955 5.02647 33.8149 4.95803 33.824 4.92812C33.8332 4.8982 33.8527 4.82964 33.8673 4.7758C33.8819 4.72196 33.9026 4.65543 33.9133 4.62791C33.924 4.60039 33.9328 4.55456 33.9328 4.52585C33.9328 4.49725 33.9425 4.4677 33.9545 4.4604C33.9665 4.45298 33.9763 4.41864 33.9763 4.38418C33.9763 4.34972 33.985 4.3161 33.9957 4.30951C34.0063 4.30293 34.0203 4.26572 34.0268 4.22672C34.0461 4.1091 34.0655 4.02761 34.085 3.98179C34.1045 3.93584 34.1239 3.85436 34.1434 3.73674C34.1499 3.69773 34.1639 3.66052 34.1745 3.65394C34.1852 3.64736 34.1938 3.60883 34.1938 3.56839C34.1938 3.52794 34.2025 3.48942 34.2132 3.48284C34.2238 3.47626 34.2378 3.43904 34.2443 3.40004C34.2508 3.36103 34.2664 3.28744 34.2792 3.23659C34.2922 3.18574 34.3128 3.10258 34.3254 3.05173C34.3379 3.00088 34.3581 2.92011 34.3702 2.87225C34.4293 2.63977 34.4209 2.60662 34.2644 2.45347C34.0507 2.24443 33.7965 2.33621 33.6106 2.68966C33.5452 2.81398 33.4552 2.98424 33.4104 3.068C33.3658 3.15176 33.2902 3.29379 33.2424 3.38352C33.1947 3.47326 33.1263 3.60045 33.0902 3.66626C33.0543 3.73207 33.0016 3.82995 32.973 3.88379C32.9445 3.93763 32.9163 3.98657 32.9103 3.99256C32.9043 3.99854 32.8783 4.04269 32.8526 4.09055C32.761 4.26094 32.7096 4.35187 32.6928 4.37329C32.6833 4.38526 32.6549 4.4318 32.6298 4.47667C32.512 4.68654 32.4877 4.7271 32.429 4.81218C32.3946 4.86231 32.3665 4.90921 32.3665 4.91639C32.3665 4.92357 32.2979 5.03162 32.2141 5.15653C32.1304 5.28133 32.0618 5.39273 32.0618 5.40409C32.0618 5.41546 32.0537 5.42803 32.0438 5.43209C32.0338 5.43604 31.9649 5.52997 31.8907 5.64089C31.7761 5.81187 31.3681 6.36419 31.252 6.50526C30.8386 7.00768 30.4902 7.37764 30.2888 7.52793C30.241 7.56358 30.1969 7.59828 30.1909 7.60486C30.185 7.61144 30.1458 7.6404 30.104 7.66924C30.0621 7.69795 30.0228 7.72739 30.0168 7.73445C29.9764 7.78279 29.7442 7.91967 29.5165 8.02951C29.4267 8.0727 29.3364 8.11709 29.3156 8.12798C29.2947 8.13887 29.2628 8.14785 29.2446 8.14785C29.2263 8.14785 29.1944 8.15646 29.1735 8.16687C29.1058 8.20109 28.9817 8.23483 28.9235 8.23483C28.8921 8.23483 28.8611 8.24333 28.8548 8.25374C28.824 8.30339 28.4316 8.32122 28.2221 8.28245C27.9811 8.23782 27.9497 8.22993 27.9378 8.21054C27.9312 8.20001 27.9107 8.19128 27.8924 8.19128C27.7979 8.19128 27.1621 7.82323 27.0036 7.67701C26.9796 7.65476 26.9159 7.60056 26.8622 7.55664C26.7421 7.45829 26.507 7.22891 26.3185 7.02634C26.1582 6.85404 26.1201 6.80965 25.9372 6.58148C25.6809 6.262 25.6586 6.23006 24.7308 4.8519C24.3604 4.3015 24.026 3.80709 23.9878 3.75325C23.8734 3.5922 23.4823 3.07027 23.4524 3.03892C23.437 3.02301 23.3977 2.97419 23.365 2.93052C23.0788 2.54859 22.6242 2.14201 22.2461 1.92963C22.2039 1.90594 22.1508 1.87614 22.1283 1.86346C22.032 1.8095 21.8913 1.75182 21.856 1.75182C21.835 1.75182 21.8124 1.74309 21.8058 1.73244C21.7755 1.6835 21.0326 1.64222 20.9668 1.68602Z" fill="#2AA8E2"/>
<path fill-rule="evenodd" clip-rule="evenodd" d="M3.25826 0.0588899C3.20442 0.0700176 3.10654 0.0897599 3.04074 0.102682C2.63918 0.181892 2.07538 0.458647 1.7869 0.718293C1.77326 0.730497 1.69429 0.799298 1.61125 0.87109C1.3522 1.0952 1.03464 1.55682 0.795577 2.05673C0.643619 2.37452 0.636799 2.3902 0.549692 2.62232C0.445355 2.90075 0.232493 3.66461 0.235724 3.74957C0.236442 3.76979 0.270782 3.65409 0.312182 3.49255C0.817474 1.51769 1.73952 0.379557 3.04074 0.124936C3.10654 0.112134 3.21256 0.0911954 3.27621 0.0783926C3.53538 0.0265831 4.17528 0.0567351 4.56355 0.138936C5.95212 0.433281 7.09277 1.49292 8.6772 3.96028C8.85393 4.23548 9.01426 4.48017 9.03353 4.5041C9.10005 4.58654 9.02539 4.45312 8.88145 4.23213C8.29192 3.32743 8.23281 3.23973 7.86416 2.72187C7.12806 1.68772 6.20363 0.803247 5.48847 0.448956C5.03474 0.22401 4.77462 0.143842 4.21369 0.0558975C4.04055 0.0287364 3.39455 0.0307716 3.25826 0.0588899ZM21.1312 1.61868C21.096 1.62622 21.1744 1.6328 21.3053 1.63316C21.4676 1.63375 21.5157 1.62897 21.4563 1.61808C21.3532 1.59941 21.2201 1.59965 21.1312 1.61868ZM20.8907 1.6651C20.8632 1.67683 20.8593 1.68377 20.8798 1.68377C20.8978 1.68377 20.932 1.67539 20.9559 1.6651C20.9833 1.65326 20.9874 1.64644 20.9668 1.64644C20.9489 1.64644 20.9147 1.65481 20.8907 1.6651ZM21.6521 1.6651C21.676 1.67539 21.7103 1.68377 21.7283 1.68377C21.7488 1.68377 21.7448 1.67683 21.7174 1.6651C21.6935 1.65481 21.6591 1.64644 21.6412 1.64644C21.6206 1.64644 21.6247 1.65326 21.6521 1.6651ZM20.4611 1.82963C20.4042 1.8593 20.3577 1.88838 20.3577 1.89436C20.3577 1.90405 20.573 1.80234 20.5952 1.78212C20.6221 1.75759 20.5513 1.78272 20.4611 1.82963ZM19.9658 2.24709L19.6724 2.54622L19.9716 2.25284C20.2494 1.98027 20.2805 1.94796 20.2649 1.94796C20.2617 1.94796 20.1271 2.08257 19.9658 2.24709ZM22.4974 2.0517C22.5146 2.07958 22.642 2.17375 22.642 2.15867C22.642 2.15329 22.6061 2.12146 22.562 2.08795C22.5181 2.05445 22.489 2.03818 22.4974 2.0517ZM22.7943 2.29172C22.872 2.36375 22.9393 2.41915 22.9437 2.41473C22.9541 2.40444 22.9176 2.37045 22.7725 2.25547C22.6572 2.16405 22.658 2.16537 22.7943 2.29172ZM34.0038 2.33336C34.0368 2.33839 34.0858 2.33827 34.1126 2.333C34.1394 2.32786 34.1123 2.32379 34.0525 2.32391C33.9927 2.32415 33.9708 2.32834 34.0038 2.33336ZM23.1207 2.60055C23.3132 2.82609 23.3703 2.88352 23.2719 2.75286C23.2314 2.69902 23.1452 2.60114 23.0805 2.53534C22.9861 2.43937 22.994 2.4523 23.1207 2.60055ZM2.93257 2.51272C2.91498 2.52385 2.90804 2.54048 2.91725 2.54957C2.92635 2.55879 2.95291 2.55436 2.97612 2.53988C3.06622 2.48364 3.34298 2.51703 3.58456 2.61311C4.06245 2.80336 4.77737 3.46551 5.40914 4.30284C5.54889 4.48806 5.62319 4.57242 5.57222 4.48782C5.26567 3.97906 4.29697 2.99564 3.82769 2.71685C3.50953 2.5278 3.0679 2.42705 2.93257 2.51272ZM33.6391 2.55699C33.6205 2.59289 33.6103 2.62232 33.6162 2.62232C33.6222 2.62232 33.6423 2.59289 33.6609 2.55699C33.6794 2.5211 33.6897 2.49178 33.6837 2.49178C33.6777 2.49178 33.6576 2.5211 33.6391 2.55699ZM2.71588 2.5607C2.63894 2.58918 2.67424 2.60378 2.77092 2.58332C2.83601 2.56968 2.84546 2.56274 2.81148 2.55364C2.78707 2.54706 2.74412 2.55029 2.71588 2.5607ZM2.4968 2.63979C2.23105 2.77225 1.91516 3.05379 1.73581 3.31786C1.64463 3.45211 1.42926 3.84625 1.46599 3.81155C1.47652 3.80162 1.53024 3.70996 1.5854 3.6079C1.74993 3.30327 1.94269 3.06181 2.13796 2.91571C2.18582 2.87993 2.24445 2.83279 2.26838 2.8109C2.29231 2.789 2.38755 2.73516 2.47992 2.69124C2.5723 2.64733 2.64816 2.60414 2.64852 2.59516C2.64947 2.56896 2.62375 2.5765 2.4968 2.63979ZM19.5408 2.69304L19.4549 2.78553L19.5473 2.6995C19.6333 2.61945 19.6498 2.60055 19.6333 2.60055C19.6297 2.60055 19.5882 2.64219 19.5408 2.69304ZM19.3882 2.86701L19.3244 2.93773L19.3951 2.87383C19.4609 2.81424 19.4757 2.7963 19.459 2.7963C19.4551 2.7963 19.4233 2.82813 19.3882 2.86701ZM23.3602 2.87622C23.3603 2.88616 23.3958 2.93342 23.4388 2.98128C23.5178 3.06911 23.5008 3.03345 23.4093 2.91978C23.3821 2.88592 23.36 2.86641 23.3602 2.87622ZM19.1272 3.17165L19.0633 3.24236L19.134 3.17847C19.1999 3.11888 19.2146 3.10093 19.1979 3.10093C19.1941 3.10093 19.1623 3.13276 19.1272 3.17165ZM33.291 3.2097C33.2725 3.24559 33.2622 3.27491 33.2682 3.27491C33.2742 3.27491 33.2943 3.24559 33.3128 3.2097C33.3313 3.1738 33.3416 3.14449 33.3357 3.14449C33.3297 3.14449 33.3096 3.1738 33.291 3.2097ZM23.9133 3.6085C23.9468 3.65241 23.9786 3.68831 23.984 3.68831C23.9991 3.68831 23.9049 3.561 23.877 3.54389C23.8635 3.53539 23.8798 3.56447 23.9133 3.6085ZM18.636 3.79169C18.5734 3.86719 18.5469 3.90583 18.5576 3.90583C18.5637 3.90583 18.5947 3.87161 18.6267 3.82974C18.686 3.75196 18.6932 3.72265 18.636 3.79169ZM0.204255 3.86551C0.198153 3.90571 0.188102 3.98744 0.182 4.04726C0.171471 4.15028 0.147899 4.32701 0.102311 4.64553C0.0586383 4.951 0.0439209 5.23087 0.0610312 5.42865L0.0789792 5.63541L0.0721591 5.41788C0.0634245 5.13299 0.0808935 4.93855 0.170752 4.31923C0.205093 4.08244 0.233091 3.81035 0.223998 3.80126C0.219212 3.79647 0.210358 3.82543 0.204255 3.86551ZM1.40317 3.9032C1.36237 3.97224 1.31882 4.07993 1.3315 4.07993C1.34323 4.07993 1.45367 3.85618 1.44577 3.84828C1.4423 3.84481 1.42315 3.86946 1.40317 3.9032ZM24.5076 4.47753C24.8908 5.05258 24.9333 5.11361 24.8826 5.01645C24.8393 4.93329 24.1676 3.93192 24.1465 3.91888C24.1361 3.91242 24.2985 4.1638 24.5076 4.47753ZM18.5055 3.96566C18.4429 4.04128 18.4163 4.07993 18.4271 4.07993C18.4332 4.07993 18.4642 4.04559 18.4961 4.00371C18.5555 3.92606 18.5626 3.89674 18.5055 3.96566ZM1.24822 4.23488C1.15238 4.44977 1.10464 4.57637 1.02399 4.83039C0.982116 4.96201 0.920973 5.14316 0.887949 5.2329C0.826807 5.3991 0.799407 5.49865 0.755973 5.71151C0.621723 6.37055 0.535693 6.54967 0.361359 6.53292C0.141916 6.51186 0.0489462 6.32808 0.050382 5.91815C0.0512196 5.68339 0.0482285 5.65563 0.032554 5.75506C-0.0360068 6.18916 0.125046 6.55996 0.382059 6.55996C0.490703 6.55996 0.493575 6.55757 0.579844 6.39927C0.63991 6.28919 0.714812 6.02943 0.777989 5.71151C0.810055 5.5507 0.839012 5.44684 0.902308 5.26557C0.931503 5.18181 0.970748 5.06431 0.989534 5.00448C1.09208 4.67699 1.18469 4.42237 1.26545 4.24577C1.29764 4.17553 1.32025 4.11439 1.31583 4.10984C1.31128 4.10541 1.28089 4.16165 1.24822 4.23488ZM18.3005 4.24673C18.267 4.29076 18.2507 4.31983 18.2642 4.31134C18.2921 4.29423 18.3863 4.16692 18.3712 4.16692C18.3658 4.16692 18.334 4.20281 18.3005 4.24673ZM18.1232 4.49871C18.0289 4.62195 17.9791 4.69554 17.9978 4.68429C18.0234 4.66874 18.1679 4.47143 18.1536 4.47143C18.1483 4.47143 18.1346 4.48376 18.1232 4.49871ZM32.5513 4.53676C32.5328 4.57266 32.5225 4.60197 32.5285 4.60197C32.5345 4.60197 32.5546 4.57266 32.5731 4.53676C32.5917 4.50087 32.6019 4.47143 32.596 4.47143C32.59 4.47143 32.5699 4.50087 32.5513 4.53676ZM5.77802 4.825C5.88404 4.98354 6.00991 5.1769 6.05765 5.25468C6.27937 5.61543 6.43851 5.86383 6.4482 5.86383C6.461 5.86383 6.47129 5.8813 6.23127 5.49398C6.00548 5.1294 5.61219 4.53676 5.59615 4.53676C5.59017 4.53676 5.67201 4.66646 5.77802 4.825ZM9.09383 4.60748C9.11142 4.6344 9.15749 4.70774 9.19613 4.77056C9.26625 4.88459 9.30921 4.92862 9.25991 4.83589C9.21827 4.75764 9.08342 4.55854 9.07218 4.55854C9.06643 4.55854 9.07624 4.58056 9.09383 4.60748ZM32.4208 4.75429C32.4022 4.79018 32.392 4.81962 32.3979 4.81962C32.4039 4.81962 32.424 4.79018 32.4426 4.75429C32.4611 4.71839 32.4714 4.68908 32.4654 4.68908C32.4594 4.68908 32.4393 4.71839 32.4208 4.75429ZM9.31854 4.96093C9.58644 5.4052 10.1575 6.27412 10.4537 6.68787C10.7649 7.12281 11.2932 7.80004 11.3213 7.80004C11.3267 7.80004 11.235 7.68003 11.1176 7.53346C11.0003 7.38688 10.8317 7.16912 10.743 7.04946C10.6543 6.92981 10.5453 6.783 10.5007 6.72317C10.4104 6.60196 9.63909 5.43846 9.4693 5.16733C9.40948 5.07173 9.34223 4.97158 9.31986 4.94466C9.28001 4.89656 9.27989 4.89692 9.31854 4.96093ZM17.7865 4.97732C17.6983 5.09554 17.6296 5.20227 17.6639 5.16769C17.7082 5.12294 17.862 4.90661 17.8494 4.90661C17.8438 4.90661 17.8155 4.93843 17.7865 4.97732ZM32.2211 5.0752C32.1335 5.21316 32.1136 5.25575 32.1676 5.18935C32.2164 5.12952 32.309 4.97182 32.2954 4.97182C32.2906 4.97182 32.2572 5.01836 32.2211 5.0752ZM18.2691 5.00676C18.0149 5.05306 17.8891 5.09183 17.78 5.15752C17.7114 5.1988 17.6466 5.22716 17.6358 5.22045C17.6251 5.21387 17.6096 5.2256 17.6016 5.24654C17.5936 5.26748 17.5345 5.35865 17.4703 5.44911C17.4063 5.53957 17.3028 5.68614 17.2405 5.77481C17.178 5.86347 17.0064 6.09739 16.859 6.29481C16.6299 6.6016 16.5403 6.71779 16.3693 6.92981C16.2044 7.13418 15.9502 7.4564 15.8544 7.58239C15.7193 7.76008 15.3739 8.19669 15.3554 8.21332C15.3485 8.2193 15.28 8.29768 15.2028 8.38742C14.8332 8.81697 14.569 9.03043 14.2456 9.16109C14.0104 9.25597 13.9375 9.26842 13.6172 9.26842C13.3938 9.26842 13.332 9.27344 13.3995 9.28613C13.5589 9.31604 13.9557 9.28768 14.1133 9.23515C14.6663 9.05053 14.9984 8.73118 16.0166 7.40531C16.1117 7.28135 16.2548 7.10163 16.3345 7.00591C16.5568 6.73908 16.8924 6.29374 17.2722 5.762L17.6169 5.27944L17.7416 5.2536C18.5107 5.09386 19.4027 5.69308 20.3102 6.97899C20.4783 7.21722 20.4879 7.17426 20.1999 7.47136C19.6532 8.03504 19.0469 8.86734 18.5737 9.70359C18.5534 9.73949 18.4339 9.94015 18.3081 10.1495C18.1825 10.3589 17.9986 10.6722 17.8995 10.8457C16.623 13.0827 15.4701 14.3256 14.2388 14.7926C14.1283 14.8345 14.0526 14.8692 14.0705 14.8697C14.0885 14.8702 14.1815 14.8393 14.2772 14.8009C15.4124 14.3466 16.6078 13.1143 17.6387 11.3352C17.6898 11.247 18.0693 10.5901 18.1162 10.5085C18.1636 10.4262 18.7761 9.40721 18.9008 9.20321C19.3015 8.54763 19.6615 8.07931 20.1969 7.51742C20.2939 7.4156 20.4211 7.28003 20.4797 7.21626C20.8733 6.78707 21.4581 6.69398 21.9132 6.98784C22.0231 7.0588 22.0076 7.043 21.7283 6.79915C20.2988 5.55153 18.9932 4.87502 18.2691 5.00676ZM25.122 5.40699C25.1476 5.44289 25.1733 5.4722 25.1793 5.4722C25.1853 5.4722 25.1694 5.44289 25.1438 5.40699C25.1182 5.3711 25.0924 5.34166 25.0865 5.34166C25.0805 5.34166 25.0965 5.3711 25.122 5.40699ZM25.2072 5.53203C25.219 5.55297 25.2543 5.59951 25.2858 5.63541C25.3291 5.68483 25.3259 5.67549 25.2724 5.59736C25.2025 5.49518 25.1657 5.45832 25.2072 5.53203ZM31.8621 5.61902C31.8104 5.6798 31.7316 5.7985 31.7428 5.7985C31.7486 5.7985 31.7884 5.74956 31.8314 5.68973C31.9088 5.58205 31.9246 5.54567 31.8621 5.61902ZM6.45621 5.89254C6.45621 5.91241 6.56749 6.08136 6.58053 6.08136C6.59106 6.08136 6.50467 5.93167 6.47452 5.89757C6.46447 5.8862 6.45621 5.88393 6.45621 5.89254ZM31.6454 5.92365C31.5829 5.99915 31.5564 6.0378 31.5671 6.0378C31.5732 6.0378 31.6042 6.00358 31.6361 5.9617C31.6955 5.88393 31.7026 5.85461 31.6454 5.92365ZM25.6232 6.13376C25.6641 6.1906 25.707 6.24301 25.7185 6.25007C25.7299 6.25724 25.7059 6.21644 25.665 6.15949C25.6242 6.10265 25.5813 6.05024 25.5699 6.04307C25.5584 6.03601 25.5824 6.07681 25.6232 6.13376ZM6.58675 6.1145C6.58675 6.12072 6.61009 6.16224 6.63868 6.20687C6.66716 6.2515 6.73129 6.35895 6.78107 6.4457C6.83085 6.53244 6.87679 6.60352 6.88313 6.60352C6.8896 6.60352 6.87572 6.57169 6.85226 6.5328C6.82881 6.49392 6.7636 6.38132 6.70724 6.28261C6.61427 6.11988 6.58675 6.08147 6.58675 6.1145ZM31.3318 6.33693C31.2143 6.48387 31.2067 6.49475 31.2203 6.49475C31.2271 6.49475 31.2779 6.436 31.333 6.36421C31.452 6.20962 31.451 6.18797 31.3318 6.33693ZM31.0837 6.64444C31.0303 6.71168 31.0037 6.75284 31.0247 6.73609C31.0737 6.69673 31.1994 6.53831 31.1889 6.52921C31.1844 6.52538 31.1372 6.57719 31.0837 6.64444ZM6.89139 6.63008C6.89139 6.6375 6.93841 6.72508 6.99597 6.82476C7.05352 6.92443 7.13799 7.07447 7.1837 7.15823C7.22953 7.24198 7.29366 7.35948 7.32645 7.41931C7.38962 7.53489 7.48295 7.70791 7.6257 7.97402C7.6738 8.06376 7.77395 8.25472 7.84837 8.3983C7.92268 8.54189 7.99363 8.66908 8.00607 8.68104C8.02665 8.70091 7.66734 7.99208 7.63108 7.94135C7.62259 7.92939 7.55355 7.8022 7.47793 7.65861C7.40219 7.51503 7.31269 7.35063 7.27894 7.2932C7.2452 7.23588 7.21768 7.18491 7.21768 7.18C7.21768 7.1751 7.19004 7.12413 7.15642 7.06669C7.12268 7.00938 7.05795 6.89392 7.01248 6.81016C6.93291 6.66346 6.89139 6.6016 6.89139 6.63008ZM26.1445 6.79137C26.1445 6.80298 26.1812 6.84617 26.226 6.88745L26.3076 6.96248L26.2315 6.87561C26.1897 6.82787 26.1529 6.78467 26.1499 6.77953C26.1469 6.7745 26.1445 6.77977 26.1445 6.79137ZM30.9102 6.8494L30.8573 6.91892L30.9266 6.85503C30.9986 6.7885 31.0069 6.77666 30.9796 6.77869C30.9706 6.77941 30.9394 6.81124 30.9102 6.8494ZM30.7664 7.0223L30.6804 7.11467L30.7728 7.02876C30.8589 6.94872 30.8754 6.92981 30.8588 6.92981C30.8553 6.92981 30.8137 6.97145 30.7664 7.0223ZM26.5139 7.19628C26.6394 7.3249 26.7446 7.4302 26.7478 7.4302C26.7635 7.4302 26.7369 7.40232 26.5198 7.19041L26.2859 6.96248L26.5139 7.19628ZM22.1681 7.18072C22.2007 7.21494 22.2312 7.23851 22.236 7.23325C22.2408 7.22786 22.2141 7.19987 22.1767 7.17103L22.1089 7.1185L22.1681 7.18072ZM22.4462 7.44108C22.5473 7.54279 22.635 7.62595 22.641 7.62595C22.647 7.62595 22.5691 7.54279 22.4679 7.44108C22.3668 7.33938 22.2791 7.2561 22.2731 7.2561C22.2671 7.2561 22.345 7.33938 22.4462 7.44108ZM30.3966 7.39215L30.3106 7.48452L30.4031 7.39861C30.489 7.31856 30.5055 7.29966 30.489 7.29966C30.4855 7.29966 30.4439 7.3413 30.3966 7.39215ZM26.8572 7.52628C26.9018 7.5672 26.9418 7.59735 26.946 7.59316C26.9557 7.58347 26.8133 7.45341 26.792 7.45257C26.7832 7.45221 26.8126 7.48536 26.8572 7.52628ZM30.104 7.62858C30.0281 7.69511 30.0281 7.69511 30.0979 7.6488C30.1364 7.6232 30.1736 7.5928 30.1807 7.58144C30.2017 7.54746 30.1842 7.55822 30.104 7.62858ZM26.979 7.62104C26.9962 7.6488 27.1234 7.74309 27.1234 7.72789C27.1234 7.72251 27.0875 7.69068 27.0436 7.65718C26.9997 7.62367 26.9706 7.6074 26.979 7.62104ZM22.642 7.65454C22.642 7.65825 22.6738 7.69008 22.7127 7.72526L22.7834 7.78915L22.7195 7.71844C22.6599 7.65251 22.642 7.63767 22.642 7.65454ZM27.1544 7.75374C27.1757 7.78808 27.2975 7.87064 27.2973 7.85042C27.2972 7.84061 27.2617 7.80985 27.2188 7.78197C27.1757 7.7541 27.1467 7.74141 27.1544 7.75374ZM11.4341 7.94686C11.6981 8.24982 12.2874 8.78622 12.4769 8.8963C12.5578 8.9432 12.4805 8.87524 12.3052 8.74518C12.0889 8.58472 11.6165 8.13722 11.4598 7.94446C11.406 7.87806 11.3537 7.82337 11.3435 7.82278C11.3334 7.82218 11.3742 7.87806 11.4341 7.94686ZM27.3302 7.88105C27.3421 7.89241 27.3911 7.92376 27.4389 7.95069C27.4868 7.97761 27.5063 7.98323 27.4824 7.96337C27.4338 7.92293 27.296 7.8485 27.3302 7.88105ZM28.94 8.19155L28.8966 8.21033H28.94C28.9639 8.21033 29.0032 8.20184 29.0271 8.19155L29.0705 8.17288H29.0271C29.0032 8.17288 28.9639 8.18126 28.94 8.19155ZM28.0915 8.2351C28.1155 8.24539 28.1498 8.25377 28.1677 8.25377C28.1883 8.25377 28.1843 8.24682 28.1569 8.2351C28.1329 8.22481 28.0986 8.21643 28.0806 8.21643C28.0602 8.21643 28.0641 8.22337 28.0915 8.2351ZM28.369 8.27279C28.4258 8.27734 28.5188 8.27734 28.5756 8.27279C28.6325 8.26836 28.5859 8.26465 28.4723 8.26465C28.3586 8.26465 28.3122 8.26836 28.369 8.27279ZM23.3187 8.55601C23.4605 8.76899 23.548 8.88685 23.5006 8.8007C23.4587 8.72484 23.1839 8.32209 23.1739 8.32209C23.1679 8.32209 23.2332 8.42738 23.3187 8.55601ZM8.02258 8.71921C8.02258 8.72615 8.05549 8.79387 8.09557 8.86961C8.13578 8.94535 8.25399 9.17377 8.35845 9.37718C8.46291 9.58059 8.55863 9.75684 8.57119 9.7688C8.60063 9.79692 8.0641 8.7502 8.0312 8.7155C8.02641 8.71048 8.02258 8.71215 8.02258 8.71921ZM12.5672 8.94787C12.5959 8.97144 12.6742 9.01846 12.7412 9.05233C12.9028 9.13417 12.8957 9.13106 12.8957 9.11945C12.8957 9.11383 12.8492 9.08547 12.7924 9.05651C12.7356 9.02756 12.6499 8.98161 12.602 8.95445C12.5314 8.91425 12.5249 8.91305 12.5672 8.94787ZM23.7146 9.15965C23.7331 9.19555 23.7644 9.24449 23.7843 9.26842C23.8041 9.29235 23.7985 9.27284 23.7716 9.22498C23.7122 9.11933 23.6679 9.06848 23.7146 9.15965ZM12.9439 9.1502C12.991 9.1776 13.2412 9.25801 13.2738 9.25621C13.2957 9.25502 12.9435 9.12878 12.9174 9.12854C12.9115 9.12842 12.9234 9.13811 12.9439 9.1502ZM23.9322 9.50772C23.9506 9.54362 23.9819 9.59256 24.0018 9.61649C24.0218 9.64042 24.016 9.62091 23.9891 9.57305C23.9299 9.4674 23.8854 9.41655 23.9322 9.50772ZM8.58866 9.81343C8.58902 9.8248 8.60828 9.85854 8.63173 9.88846C8.65519 9.91837 8.67469 9.95271 8.67529 9.96467C8.67577 9.97664 8.69659 10.0109 8.72147 10.0408C8.75043 10.0756 8.74158 10.0481 8.69683 9.96467C8.62348 9.82755 8.58782 9.77778 8.58866 9.81343ZM24.2844 10.0843C24.303 10.1202 24.3231 10.1495 24.3291 10.1495C24.335 10.1495 24.3247 10.1202 24.3062 10.0843C24.2877 10.0484 24.2676 10.019 24.2616 10.019C24.2556 10.019 24.2659 10.0484 24.2844 10.0843ZM8.76228 10.1235C8.76228 10.133 8.77077 10.1501 8.78106 10.1615C8.80511 10.1879 8.87104 10.3098 9.25728 11.0415C9.31088 11.1433 9.38303 11.2779 9.41749 11.3407C9.45195 11.4035 9.51082 11.5112 9.54839 11.58C9.80804 12.056 10.299 12.8381 10.4678 13.0445C10.4929 13.0753 10.538 13.1333 10.568 13.1735C10.8902 13.6062 11.545 14.298 11.7971 14.4721C12.1543 14.7188 12.7607 14.9606 13.0044 14.9537C13.0573 14.9521 13.064 14.949 13.0262 14.9435C12.0854 14.8062 11.2189 14.1127 10.289 12.7529C10.0532 12.408 9.56718 11.6152 9.56718 11.5754C9.56718 11.5718 9.5247 11.4918 9.47265 11.3976C9.42072 11.3035 9.31662 11.1089 9.24124 10.9653C9.16598 10.8217 9.0778 10.6553 9.04525 10.5955C9.01283 10.5357 8.93996 10.401 8.88336 10.2964C8.78633 10.1168 8.76228 10.0824 8.76228 10.1235ZM24.4267 10.3127C24.4268 10.3247 24.4468 10.3589 24.4713 10.3888C24.5009 10.425 24.5083 10.4286 24.4933 10.3997C24.4566 10.3288 24.4265 10.2894 24.4267 10.3127ZM24.5891 10.5846C24.6076 10.6205 24.6277 10.6499 24.6337 10.6499C24.6397 10.6499 24.6294 10.6205 24.6107 10.5846C24.5922 10.5487 24.5721 10.5194 24.5661 10.5194C24.5601 10.5194 24.5705 10.5487 24.5891 10.5846ZM24.763 10.8675C24.7816 10.9033 24.8017 10.9327 24.8077 10.9327C24.8137 10.9327 24.8034 10.9033 24.7848 10.8675C24.7663 10.8316 24.7462 10.8022 24.7402 10.8022C24.7342 10.8022 24.7445 10.8316 24.763 10.8675ZM24.9765 11.2046C24.9949 11.2405 25.0261 11.2895 25.0461 11.3134C25.066 11.3373 25.0603 11.3178 25.0333 11.27C24.9741 11.1643 24.9297 11.1135 24.9765 11.2046ZM31.072 11.7811C31.0534 11.817 31.0431 11.8464 31.0491 11.8464C31.0551 11.8464 31.0752 11.817 31.0937 11.7811C31.1123 11.7452 31.1226 11.7159 31.1166 11.7159C31.1106 11.7159 31.0906 11.7452 31.072 11.7811ZM30.8158 12.1836C30.7714 12.2494 30.7424 12.3032 30.7513 12.3032C30.766 12.303 30.8027 12.2493 30.8818 12.1129C30.9336 12.0235 30.8975 12.0623 30.8158 12.1836ZM25.7103 12.3121C25.7511 12.3691 25.794 12.4215 25.8054 12.4286C25.8169 12.4356 25.7929 12.3948 25.7521 12.338C25.7112 12.281 25.6683 12.2286 25.6568 12.2216C25.6454 12.2145 25.6694 12.2552 25.7103 12.3121ZM25.9048 12.5854C25.93 12.621 25.9618 12.6569 25.9755 12.6653C25.989 12.6737 25.9727 12.6446 25.9392 12.6007C25.8665 12.5054 25.8391 12.4932 25.9048 12.5854ZM30.5268 12.6007C30.4933 12.6446 30.4769 12.6737 30.4906 12.6653C30.5184 12.6481 30.6126 12.5208 30.5974 12.5208C30.592 12.5208 30.5603 12.5568 30.5268 12.6007ZM30.3963 12.7747C30.3628 12.8186 30.3464 12.8477 30.36 12.8393C30.3879 12.8221 30.4821 12.6949 30.467 12.6949C30.4616 12.6949 30.4298 12.7308 30.3963 12.7747ZM26.1889 12.9648C26.2297 13.0217 26.2726 13.0741 26.2841 13.0811C26.2955 13.0883 26.2715 13.0475 26.2307 12.9906C26.1898 12.9336 26.1469 12.8813 26.1354 12.8741C26.124 12.8671 26.148 12.9079 26.1889 12.9648ZM30.104 13.1407C30.076 13.1706 30.0571 13.1988 30.0621 13.2032C30.0671 13.2076 30.094 13.1832 30.1219 13.1489C30.1841 13.072 30.1732 13.0671 30.104 13.1407ZM29.9611 13.3094L29.8972 13.3802L29.9679 13.3163C30.0338 13.2567 30.0487 13.2387 30.0318 13.2387C30.0281 13.2387 29.9963 13.2706 29.9611 13.3094ZM26.5035 13.3693C26.5502 13.4171 26.5934 13.4563 26.5993 13.4563C26.6053 13.4563 26.5719 13.4171 26.5252 13.3693C26.4785 13.3214 26.4353 13.2823 26.4293 13.2823C26.4233 13.2823 26.4567 13.3214 26.5035 13.3693ZM29.7784 13.5075L29.6812 13.6195L29.7947 13.5115C29.8571 13.4522 29.9081 13.4007 29.9081 13.3973C29.9081 13.372 29.8612 13.4119 29.7784 13.5075ZM26.6342 13.5217C26.6558 13.5458 26.6781 13.5608 26.6836 13.5553C26.6953 13.5436 26.6333 13.478 26.6105 13.478C26.6017 13.478 26.6124 13.4977 26.6342 13.5217ZM26.7122 13.5776C26.7222 13.6023 26.9277 13.7936 26.9277 13.7781C26.9277 13.7726 26.8772 13.7203 26.8156 13.6619C26.7538 13.6035 26.7074 13.5655 26.7122 13.5776ZM29.5057 13.7995C29.4578 13.844 29.3942 13.8979 29.3643 13.9191L29.3098 13.9576L29.3752 13.9264C29.4111 13.9091 29.4791 13.8551 29.5264 13.8061C29.6337 13.6953 29.6216 13.6915 29.5057 13.7995ZM27.066 13.8864C27.0832 13.9143 27.2105 14.0084 27.2105 13.9934C27.2105 13.988 27.1745 13.9562 27.1306 13.9227C27.0867 13.8892 27.0576 13.8729 27.066 13.8864ZM27.2975 14.0534C27.2975 14.0594 27.3268 14.0795 27.3627 14.0981C27.3986 14.1166 27.4281 14.1269 27.4281 14.1209C27.4281 14.1149 27.3986 14.0948 27.3627 14.0763C27.3268 14.0577 27.2975 14.0475 27.2975 14.0534ZM28.0644 14.3632C28.0853 14.3687 28.1195 14.3687 28.1405 14.3632C28.1614 14.3578 28.1443 14.3533 28.1024 14.3533C28.0605 14.3533 28.0434 14.3578 28.0644 14.3632ZM28.3037 14.3632C28.3246 14.3687 28.3588 14.3687 28.3798 14.3632C28.4007 14.3578 28.3836 14.3533 28.3417 14.3533C28.2998 14.3533 28.2827 14.3578 28.3037 14.3632ZM13.9291 14.8921C13.8689 14.9074 13.868 14.909 13.9182 14.911C13.9481 14.9122 13.9873 14.9037 14.0052 14.8921C14.0423 14.8681 14.0232 14.8681 13.9291 14.8921ZM13.6789 14.9366C13.6131 14.9457 13.4516 14.9555 13.32 14.9585C13.1037 14.9633 13.0932 14.9653 13.2112 14.9791C13.3371 14.9939 13.8197 14.9544 13.847 14.927C13.8617 14.9123 13.8489 14.913 13.6789 14.9366Z" fill="#115E96"/>
</svg>
