<svg width="157" height="27" viewBox="0 0 157 27" fill="none" xmlns="http://www.w3.org/2000/svg">
<path d="M55.02 21L50.44 7H53.8L57.78 19.4H56.1L60.26 7H63.26L67.26 19.4H65.64L69.72 7H72.82L68.24 21H64.76L61.22 10.12H62.14L58.5 21H55.02ZM80.208 21V18.9L80.008 18.44V14.68C80.008 14.0133 79.8013 13.4933 79.388 13.12C78.988 12.7467 78.368 12.56 77.528 12.56C76.9546 12.56 76.388 12.6533 75.828 12.84C75.2813 13.0133 74.8146 13.2533 74.428 13.56L73.308 11.38C73.8946 10.9667 74.6013 10.6467 75.428 10.42C76.2546 10.1933 77.0946 10.08 77.948 10.08C79.588 10.08 80.8613 10.4667 81.768 11.24C82.6746 12.0133 83.128 13.22 83.128 14.86V21H80.208ZM76.928 21.16C76.088 21.16 75.368 21.02 74.768 20.74C74.168 20.4467 73.708 20.0533 73.388 19.56C73.068 19.0667 72.908 18.5133 72.908 17.9C72.908 17.26 73.0613 16.7 73.368 16.22C73.688 15.74 74.188 15.3667 74.868 15.1C75.548 14.82 76.4346 14.68 77.528 14.68H80.388V16.5H77.868C77.1346 16.5 76.628 16.62 76.348 16.86C76.0813 17.1 75.948 17.4 75.948 17.76C75.948 18.16 76.1013 18.48 76.408 18.72C76.728 18.9467 77.1613 19.06 77.708 19.06C78.228 19.06 78.6946 18.94 79.108 18.7C79.5213 18.4467 79.8213 18.08 80.008 17.6L80.488 19.04C80.2613 19.7333 79.848 20.26 79.248 20.62C78.648 20.98 77.8746 21.16 76.928 21.16ZM90.3517 21.16C89.0851 21.16 88.0984 20.84 87.3917 20.2C86.6851 19.5467 86.3317 18.58 86.3317 17.3V7.86H89.4517V17.26C89.4517 17.7133 89.5717 18.0667 89.8117 18.32C90.0517 18.56 90.3784 18.68 90.7917 18.68C91.2851 18.68 91.7051 18.5467 92.0517 18.28L92.8917 20.48C92.5717 20.7067 92.1851 20.88 91.7317 21C91.2917 21.1067 90.8317 21.16 90.3517 21.16ZM84.6717 12.88V10.48H92.1317V12.88H84.6717ZM99.6511 21.16C98.4244 21.16 97.3444 20.92 96.4111 20.44C95.4911 19.96 94.7778 19.3067 94.2711 18.48C93.7644 17.64 93.5111 16.6867 93.5111 15.62C93.5111 14.54 93.7578 13.5867 94.2511 12.76C94.7578 11.92 95.4444 11.2667 96.3111 10.8C97.1778 10.32 98.1578 10.08 99.2511 10.08C100.304 10.08 101.251 10.3067 102.091 10.76C102.944 11.2 103.618 11.84 104.111 12.68C104.604 13.5067 104.851 14.5 104.851 15.66C104.851 15.78 104.844 15.92 104.831 16.08C104.818 16.2267 104.804 16.3667 104.791 16.5H96.0511V14.68H103.151L101.951 15.22C101.951 14.66 101.838 14.1733 101.611 13.76C101.384 13.3467 101.071 13.0267 100.671 12.8C100.271 12.56 99.8044 12.44 99.2711 12.44C98.7378 12.44 98.2644 12.56 97.8511 12.8C97.4511 13.0267 97.1378 13.3533 96.9111 13.78C96.6844 14.1933 96.5711 14.6867 96.5711 15.26V15.74C96.5711 16.3267 96.6978 16.8467 96.9511 17.3C97.2178 17.74 97.5844 18.08 98.0511 18.32C98.5311 18.5467 99.0911 18.66 99.7311 18.66C100.304 18.66 100.804 18.5733 101.231 18.4C101.671 18.2267 102.071 17.9667 102.431 17.62L104.091 19.42C103.598 19.98 102.978 20.4133 102.231 20.72C101.484 21.0133 100.624 21.16 99.6511 21.16ZM106.928 21V10.24H109.908V13.28L109.488 12.4C109.808 11.64 110.322 11.0667 111.028 10.68C111.735 10.28 112.595 10.08 113.608 10.08V12.96C113.475 12.9467 113.355 12.94 113.248 12.94C113.142 12.9267 113.028 12.92 112.908 12.92C112.055 12.92 111.362 13.1667 110.828 13.66C110.308 14.14 110.048 14.8933 110.048 15.92V21H106.928ZM120.005 21.16C118.992 21.16 118.079 20.9333 117.265 20.48C116.452 20.0133 115.805 19.3667 115.325 18.54C114.859 17.7133 114.625 16.74 114.625 15.62C114.625 14.4867 114.859 13.5067 115.325 12.68C115.805 11.8533 116.452 11.2133 117.265 10.76C118.079 10.3067 118.992 10.08 120.005 10.08C120.912 10.08 121.705 10.28 122.385 10.68C123.065 11.08 123.592 11.6867 123.965 12.5C124.339 13.3133 124.525 14.3533 124.525 15.62C124.525 16.8733 124.345 17.9133 123.985 18.74C123.625 19.5533 123.105 20.16 122.425 20.56C121.759 20.96 120.952 21.16 120.005 21.16ZM120.545 18.6C121.052 18.6 121.512 18.48 121.925 18.24C122.339 18 122.665 17.66 122.905 17.22C123.159 16.7667 123.285 16.2333 123.285 15.62C123.285 14.9933 123.159 14.46 122.905 14.02C122.665 13.58 122.339 13.24 121.925 13C121.512 12.76 121.052 12.64 120.545 12.64C120.025 12.64 119.559 12.76 119.145 13C118.732 13.24 118.399 13.58 118.145 14.02C117.905 14.46 117.785 14.9933 117.785 15.62C117.785 16.2333 117.905 16.7667 118.145 17.22C118.399 17.66 118.732 18 119.145 18.24C119.559 18.48 120.025 18.6 120.545 18.6ZM123.365 21V18.8L123.425 15.6L123.225 12.42V6.16H126.345V21H123.365ZM129.233 21V10.24H132.353V21H129.233ZM130.793 8.74C130.22 8.74 129.753 8.57333 129.393 8.24C129.033 7.90667 128.853 7.49333 128.853 7C128.853 6.50667 129.033 6.09333 129.393 5.76C129.753 5.42667 130.22 5.26 130.793 5.26C131.366 5.26 131.833 5.42 132.193 5.74C132.553 6.04667 132.733 6.44667 132.733 6.94C132.733 7.46 132.553 7.89333 132.193 8.24C131.846 8.57333 131.38 8.74 130.793 8.74ZM141.609 21.16C140.702 21.16 139.909 20.96 139.229 20.56C138.549 20.16 138.015 19.5533 137.629 18.74C137.255 17.9133 137.069 16.8733 137.069 15.62C137.069 14.3533 137.249 13.3133 137.609 12.5C137.969 11.6867 138.489 11.08 139.169 10.68C139.849 10.28 140.662 10.08 141.609 10.08C142.622 10.08 143.529 10.3133 144.329 10.78C145.142 11.2333 145.782 11.8733 146.249 12.7C146.729 13.5267 146.969 14.5 146.969 15.62C146.969 16.7533 146.729 17.7333 146.249 18.56C145.782 19.3867 145.142 20.0267 144.329 20.48C143.529 20.9333 142.622 21.16 141.609 21.16ZM135.249 24.88V10.24H138.229V12.44L138.169 15.64L138.369 18.82V24.88H135.249ZM141.069 18.6C141.589 18.6 142.049 18.48 142.449 18.24C142.862 18 143.189 17.66 143.429 17.22C143.682 16.7667 143.809 16.2333 143.809 15.62C143.809 14.9933 143.682 14.46 143.429 14.02C143.189 13.58 142.862 13.24 142.449 13C142.049 12.76 141.589 12.64 141.069 12.64C140.549 12.64 140.082 12.76 139.669 13C139.255 13.24 138.929 13.58 138.689 14.02C138.449 14.46 138.329 14.9933 138.329 15.62C138.329 16.2333 138.449 16.7667 138.689 17.22C138.929 17.66 139.255 18 139.669 18.24C140.082 18.48 140.549 18.6 141.069 18.6Z" fill="white"/>
<path fill-rule="evenodd" clip-rule="evenodd" d="M4.06446 0.142903C3.99729 0.16268 3.8752 0.197771 3.7931 0.220952C2.48364 0.591839 1.42583 2.0656 0.787443 4.40896C0.563403 5.23133 0.309211 6.51179 0.276971 6.98029C0.268911 7.09725 0.251448 7.29737 0.238164 7.42497C0.224879 7.55257 0.201296 7.78735 0.185773 7.94685C0.17025 8.10635 0.144428 8.35942 0.128308 8.50914C0.10159 8.75944 0.0718869 9.7579 0.0645732 10.6536C0.0597968 11.2344 0.197714 11.5762 0.450711 11.6109C0.668183 11.6406 0.775502 11.3223 0.942972 10.1509C0.997154 9.77258 1.03133 9.59564 1.10761 9.30025C1.1488 9.14075 1.22507 8.81878 1.27732 8.58484C1.43404 7.88199 1.60002 7.33608 1.90167 6.53242C2.179 5.79362 2.50036 5.24792 2.86037 4.90383C3.04113 4.73136 3.27606 4.56824 3.2983 4.59972C3.30651 4.61142 3.3301 4.60099 3.35084 4.57633C3.37159 4.55187 3.43771 4.53443 3.49787 4.53783C3.56384 4.54166 3.62339 4.52103 3.64772 4.48616C3.7337 4.36366 4.12566 4.41598 4.44433 4.59227C5.06749 4.93722 5.93141 6.07072 6.79488 7.67634C7.10445 8.25202 7.76 9.69942 8.25719 10.905C8.38869 11.224 8.54944 11.6117 8.61422 11.7665C8.67915 11.9216 8.73229 12.0551 8.73229 12.0632C8.73229 12.0715 8.79333 12.2289 8.86796 12.4128C8.9426 12.597 9.00364 12.7541 9.00364 12.7622C9.00364 12.7703 9.03797 12.8603 9.08006 12.9621C9.12216 13.0642 9.2338 13.3564 9.32828 13.6116C9.42262 13.8668 9.50859 14.0929 9.51919 14.1141C9.52979 14.1354 9.63964 14.4312 9.76338 14.7715C9.88712 15.1117 10.0337 15.512 10.0894 15.6608C10.145 15.8097 10.3098 16.262 10.4558 16.6661C10.6018 17.0702 10.7301 17.4183 10.7412 17.4396C10.7907 17.5353 11.2227 18.6618 11.527 19.4888C11.6053 19.7015 11.703 19.9624 11.7441 20.0687C11.7853 20.1751 11.8648 20.3839 11.9209 20.5328C12.9449 23.2487 14.2591 25.44 15.2796 26.1327C16.3829 26.8815 17.5269 26.7039 18.6784 25.605C19.9573 24.3846 21.0221 22.5384 22.3287 19.2761C22.4523 18.9678 22.6817 18.411 22.8385 18.0389C22.9953 17.6667 23.1444 17.3101 23.1697 17.2463C23.76 15.7599 24.5163 14.2806 25.1983 13.2788C25.5575 12.7507 25.5456 12.8271 25.3359 12.4037C24.2039 10.1182 23.0912 9.05313 22.1317 9.33704L21.9762 9.38298L21.5462 10.2407C21.0724 11.1857 20.6537 11.9773 20.3764 12.4515C20.277 12.6216 20.0985 12.9411 19.9798 13.1614C18.5177 15.8746 18.0379 16.4454 17.1576 16.5189C15.6544 16.6444 14.1594 14.5786 11.6823 8.95233C11.5184 8.58016 11.3449 8.18865 11.2967 8.08232C11.2485 7.97599 11.0527 7.54087 10.8615 7.11554C8.86916 2.68297 7.43073 0.77154 5.69274 0.24647C5.21705 0.102922 4.38149 0.0497554 4.06446 0.142903ZM26.345 2.90563C26.1098 2.94455 25.8362 3.07449 25.5172 3.29885C25.0126 3.65336 23.7248 5.76427 22.5281 8.19822C22.4237 8.41089 22.2798 8.70351 22.2084 8.84855C22.1372 8.99359 22.0844 9.11991 22.091 9.12927C22.0975 9.13883 22.1598 9.02889 22.229 8.88513C22.341 8.65311 22.5223 8.28307 22.8146 7.68995C22.898 7.52067 23.4079 6.54284 23.487 6.40035C23.5048 6.36845 23.5772 6.23788 23.648 6.11028C24.0679 5.35383 24.4733 4.70371 24.9745 3.98363C25.3071 3.50577 25.7214 3.11362 25.8938 3.11362C25.9164 3.11362 25.9414 3.09809 25.9496 3.07917C25.9774 3.01515 26.1676 2.98708 26.5756 2.98708C26.9839 2.98708 27.1739 3.01515 27.2016 3.07917C27.2099 3.09809 27.2405 3.11362 27.2697 3.11362C27.2988 3.11362 27.3439 3.13042 27.3699 3.15083C27.3957 3.17146 27.4658 3.22059 27.5255 3.26036C28.0723 3.62422 28.7274 4.41151 29.1467 5.20858C29.1874 5.2862 29.2365 5.37297 29.2556 5.40125C29.2929 5.45697 29.7809 6.38461 29.9236 6.67086C29.9712 6.76656 30.3884 7.64529 30.8505 8.62355C32.0078 11.073 32.0356 11.1298 32.3553 11.6976C32.5835 12.1032 32.631 12.1821 32.831 12.4883C33.0661 12.8483 33.3594 13.256 33.5093 13.4308C33.5763 13.5089 33.6557 13.6052 33.6857 13.6448C33.8715 13.8893 34.675 14.5588 34.7827 14.5588C34.7993 14.5588 34.8341 14.5741 34.8601 14.5928C34.9563 14.6622 35.1038 14.7134 35.194 14.709C35.2804 14.7047 35.2783 14.7021 35.165 14.6734C34.2957 14.4527 33.2297 13.2616 32.218 11.3812C31.9529 10.8884 31.7098 10.3844 30.7296 8.29498C29.1538 4.93616 28.5407 3.94471 27.6349 3.29141C27.3906 3.11489 27.3291 3.08151 27.0642 2.97921C26.9178 2.92286 26.4992 2.8799 26.345 2.90563ZM42.2071 4.21501C42.0796 4.29497 42.0841 4.28561 41.7499 5.17264C41.6998 5.30555 41.5957 5.58393 41.5187 5.79128C41.4417 5.99841 41.3501 6.24213 41.315 6.33251C41.2801 6.42289 41.2112 6.60132 41.1623 6.72892C41.0203 7.09874 40.6499 8.01894 40.524 8.31433C40.2334 8.99699 40.1651 9.15181 39.9866 9.53227C39.7925 9.94547 39.3753 10.7791 39.2225 11.0596C38.2693 12.8065 37.6608 13.6156 36.861 14.1996C36.4362 14.5099 35.9223 14.7045 35.5041 14.7136C35.3283 14.7175 35.2999 14.726 35.3549 14.7579C35.4426 14.8087 35.9394 14.7409 35.9913 14.6709C36.0055 14.6517 36.0473 14.6362 36.0843 14.6362C36.1537 14.6362 36.3097 14.5752 36.3925 14.5154C36.4185 14.4969 36.4583 14.4816 36.4812 14.4816C36.5039 14.4816 36.5437 14.4657 36.5697 14.4463C36.5957 14.427 36.7084 14.3481 36.8203 14.2713C37.1043 14.0761 37.3941 13.8328 37.4445 13.7469C37.452 13.7343 37.5009 13.682 37.5532 13.631C37.6054 13.5797 37.6542 13.5282 37.6617 13.5165C37.6691 13.5048 37.7241 13.4432 37.7838 13.3798C38.035 13.1127 38.4696 12.4551 38.9853 11.5622C39.1301 11.3114 39.6391 10.3298 39.7821 10.0259C39.8746 9.82872 39.9606 9.66178 39.973 9.65476C39.9854 9.64753 39.9955 9.6252 39.9955 9.605C39.9955 9.58479 40.081 9.3868 40.1855 9.16499C40.29 8.94297 40.3755 8.75094 40.3755 8.73818C40.3755 8.72542 40.4106 8.64205 40.4536 8.55295C40.5267 8.40174 40.557 8.32965 40.7041 7.95663C40.7354 7.87688 40.7708 7.79416 40.7826 7.77289C40.8036 7.73482 40.8676 7.5732 40.982 7.27036C41.0141 7.1853 41.0465 7.10682 41.0539 7.09619C41.0614 7.08556 41.0966 6.99858 41.1321 6.90288C41.1678 6.80718 41.2336 6.63322 41.2784 6.51625C41.3233 6.39929 41.4087 6.17323 41.4683 6.01373C41.5278 5.85423 41.6222 5.60179 41.6778 5.45293C41.7337 5.30406 41.8459 5.00144 41.9275 4.78049C42.1595 4.15227 42.4765 3.98916 42.7431 4.36068C42.9392 4.63417 42.9486 4.6884 42.8739 5.11458C42.81 5.47888 42.7895 5.59542 42.7616 5.75258C42.7456 5.84296 42.7261 5.97375 42.718 6.04308C42.71 6.1124 42.6925 6.17854 42.6792 6.19024C42.6659 6.20194 42.655 6.27041 42.655 6.34229C42.655 6.41417 42.6443 6.48265 42.631 6.49435C42.6177 6.50605 42.6003 6.57218 42.5922 6.64151C42.5679 6.85056 42.5437 6.99539 42.5194 7.07705C42.495 7.1585 42.4709 7.30333 42.4467 7.51238C42.4386 7.5817 42.4212 7.64784 42.4079 7.65954C42.3946 7.67124 42.3837 7.73099 42.3837 7.79224C42.3837 7.85349 42.3714 7.91453 42.3565 7.92771C42.3416 7.94068 42.3295 7.99321 42.3295 8.04404C42.3295 8.09508 42.3185 8.17653 42.3052 8.22544C42.2917 8.27435 42.2659 8.3926 42.2477 8.4883C42.2295 8.58399 42.2052 8.70585 42.1937 8.75902C42.1823 8.81218 42.1582 8.93383 42.1399 9.02953C42.1219 9.12523 42.0961 9.2339 42.0825 9.27069C42.069 9.30769 42.058 9.37319 42.058 9.41636C42.058 9.45932 42.0471 9.52483 42.0335 9.56183C42.0201 9.59862 41.994 9.70729 41.9753 9.80299C41.931 10.0322 41.8392 10.4595 41.8134 10.5569C41.802 10.5994 41.7781 10.7126 41.7599 10.8083C41.7419 10.904 41.716 11.0124 41.7026 11.0494C41.6892 11.0864 41.6781 11.1506 41.6781 11.1921C41.6781 11.2336 41.6659 11.2785 41.651 11.2916C41.636 11.3048 41.6238 11.3569 41.6238 11.4075C41.6238 11.4582 41.6116 11.5105 41.5966 11.5237C41.5817 11.5366 41.5696 11.5889 41.5696 11.6396C41.5696 11.6902 41.5574 11.7425 41.5425 11.7557C41.5275 11.7686 41.5153 11.821 41.5153 11.8716C41.5153 11.9222 41.503 11.9745 41.4881 11.9875C41.4732 12.0007 41.461 12.053 41.461 12.1036C41.461 12.1542 41.4489 12.2065 41.4339 12.2195C41.419 12.2327 41.4068 12.285 41.4068 12.3356C41.4068 12.3862 41.3945 12.4383 41.3796 12.4515C41.3647 12.4647 41.3524 12.5096 41.3524 12.551C41.3524 12.624 41.3426 12.6616 41.2753 12.8473C41.258 12.8949 41.2439 12.9653 41.2439 13.004C41.2439 13.0425 41.2338 13.0906 41.2215 13.1108C41.2092 13.131 41.1826 13.2258 41.1623 13.3215C41.1421 13.4172 41.1181 13.5129 41.109 13.5342C41.0999 13.5555 41.0768 13.6424 41.0578 13.7275C41.0215 13.8896 40.9826 14.0297 40.9423 14.1426C40.929 14.1796 40.9182 14.2364 40.9182 14.2689C40.9182 14.3013 40.9075 14.3581 40.8942 14.3951C40.8811 14.4321 40.8582 14.5056 40.8435 14.5588C40.8287 14.612 40.7918 14.7338 40.7617 14.8295C40.7102 14.9926 40.6729 15.1156 40.5823 15.4193C40.5403 15.56 40.4861 15.7402 40.4166 15.9703C40.3909 16.0553 40.3605 16.1598 40.349 16.2023C40.3375 16.2448 40.3006 16.3665 40.2669 16.4728C40.2333 16.5791 40.1967 16.701 40.1855 16.7435C40.1743 16.786 40.1393 16.9034 40.1075 17.0045C39.9824 17.4028 39.9451 17.5227 39.9004 17.6716C39.7297 18.2402 39.3653 19.3178 39.1682 19.8369C39.1116 19.9858 39.0305 20.2002 38.988 20.3135C38.9455 20.4269 38.8861 20.5687 38.8561 20.6289C38.8261 20.6889 38.8014 20.7497 38.8014 20.7637C38.8014 20.778 38.7649 20.8654 38.7201 20.9581C38.6753 21.0508 38.6386 21.1372 38.6386 21.1499C38.6386 21.3828 37.457 23.5218 36.8755 24.3414C36.7172 24.5647 36.5513 24.7731 36.5071 24.8044C36.463 24.8356 36.378 24.9058 36.3183 24.9605C36.215 25.0549 36.0095 25.2012 35.8773 25.2744C35.728 25.3569 35.6885 25.3773 35.5973 25.4188C35.3935 25.5113 34.8704 25.4668 34.6972 25.342C34.6712 25.3235 34.6369 25.3082 34.6208 25.3082C34.3248 25.3082 33.2474 24.0809 32.8582 23.3002C32.791 23.1656 32.6261 22.8451 32.4917 22.5882C32.3574 22.3313 32.1743 21.9704 32.0847 21.786C31.6621 20.9162 31.5284 20.6289 31.5284 20.5921C31.5284 20.5702 31.5183 20.5521 31.5059 20.5521C31.4935 20.5521 31.4663 20.5043 31.4454 20.4458C31.4247 20.3873 31.3511 20.2176 31.2821 20.0687C31.1538 19.7919 30.9661 19.3606 30.8715 19.1245C30.8424 19.0518 30.7706 18.8919 30.7121 18.7689C30.6536 18.6462 30.6057 18.5348 30.6057 18.5216C30.6057 18.5084 30.5691 18.4217 30.5243 18.3289C30.4796 18.2362 30.4428 18.1494 30.4428 18.136C30.4428 18.1229 30.394 18.0095 30.3343 17.8842C30.2746 17.759 30.2258 17.6456 30.2258 17.6322C30.2258 17.6191 30.1891 17.5323 30.1443 17.4396C30.0995 17.3468 30.063 17.2522 30.063 17.2297C30.063 17.2069 30.0507 17.1882 30.0358 17.1882C30.0209 17.1882 30.0086 17.1695 30.0086 17.1467C30.0086 17.1242 29.9721 17.0296 29.9273 16.9368C29.8825 16.8441 29.8458 16.7497 29.8458 16.7269C29.8458 16.7042 29.8336 16.6855 29.8186 16.6855C29.8037 16.6855 29.7916 16.6687 29.7916 16.648C29.7916 16.6127 29.5525 16.063 29.4932 15.9622C29.4782 15.9365 29.4659 15.9056 29.4659 15.8937C29.4659 15.8818 29.3173 15.5547 29.1356 15.167C28.549 13.9155 27.9775 12.9955 27.4645 12.4775C27.3137 12.3252 27.3675 12.4113 27.5458 12.6076C28.1845 13.3113 28.8193 14.4706 29.7891 16.7048C29.9737 17.1301 30.1703 17.5827 30.2258 17.7103C30.2815 17.8379 30.4158 18.1509 30.5243 18.4061C31.4217 20.5166 31.9343 21.6021 32.9192 23.4778C33.3507 24.2999 34.1651 25.1614 34.7578 25.4234C35.438 25.7237 36.3773 25.2184 37.0239 24.204C37.1582 23.9933 37.3129 23.7508 37.3675 23.6655C38.2844 22.233 39.1601 20.1749 39.9676 17.5555C40.0463 17.3003 40.1397 16.9996 40.1752 16.8875C40.2108 16.7752 40.2399 16.6755 40.2399 16.6661C40.2399 16.6565 40.2764 16.5349 40.3212 16.3956C40.366 16.2563 40.4026 16.1344 40.4026 16.1249C40.4026 16.1153 40.4393 15.9934 40.484 15.8542C40.5288 15.7149 40.5654 15.5932 40.5654 15.5836C40.5654 15.5743 40.5945 15.4745 40.6302 15.3623C40.8609 14.6343 40.873 14.5896 41.3014 12.8962C41.398 12.5142 41.7516 10.9918 41.8402 10.5762C41.8878 10.3529 41.9505 10.0658 41.9795 9.93824C42.0568 9.59713 42.0693 9.53737 42.2182 8.79581C42.3574 8.1021 42.4028 7.86901 42.4944 7.3767C42.5231 7.22251 42.5701 6.97008 42.5989 6.8159C42.8173 5.64731 42.9594 4.77559 42.9449 4.69308C42.8722 4.2803 42.494 4.03531 42.2071 4.21501ZM22.7152 8.9015C22.7413 8.91128 22.7841 8.91128 22.8102 8.9015C22.8364 8.89193 22.815 8.88385 22.7628 8.88385C22.7105 8.88385 22.689 8.89193 22.7152 8.9015ZM23.1634 8.90235C23.1971 8.9115 23.2459 8.91128 23.2719 8.9015C23.2979 8.89193 23.2703 8.88428 23.2106 8.8847C23.1509 8.88513 23.1295 8.89299 23.1634 8.90235ZM22.4408 8.95786C22.2953 9.01762 22.3546 9.02804 22.5184 8.97168C22.6005 8.9434 22.6373 8.92022 22.5999 8.92043C22.5626 8.92043 22.491 8.93744 22.4408 8.95786ZM23.4819 8.97232C23.6936 9.04037 23.7649 9.03803 23.5904 8.96892C23.5158 8.93936 23.4242 8.91618 23.3868 8.91767C23.3495 8.91894 23.3924 8.94361 23.4819 8.97232ZM22.1929 9.10481C22.1407 9.14458 22.0901 9.1701 22.0805 9.16159C22.0587 9.14245 21.9905 9.25687 22.0086 9.2826C22.0159 9.29302 22.0932 9.24049 22.1804 9.16563C22.3469 9.02272 22.3553 8.98168 22.1929 9.10481ZM23.8988 9.12778C23.9491 9.15883 24.004 9.18286 24.0211 9.18116C24.0637 9.17669 23.8984 9.07185 23.8482 9.07142C23.8258 9.07142 23.8487 9.09673 23.8988 9.12778ZM24.1978 9.28175C24.2781 9.33598 24.3488 9.37341 24.3549 9.36447C24.3611 9.35575 24.3138 9.31833 24.2497 9.28153C24.064 9.17456 24.0394 9.17478 24.1978 9.28175ZM24.6017 9.54843C24.7893 9.69262 24.8524 9.73217 24.8524 9.70559C24.8524 9.68347 24.4815 9.41594 24.4527 9.41721C24.4412 9.41764 24.5082 9.47676 24.6017 9.54843ZM24.8794 9.74302C24.8794 9.75365 24.9162 9.78938 24.9609 9.82234C25.0057 9.8553 25.0423 9.87359 25.0423 9.86296C25.0423 9.85232 25.0057 9.8166 24.9609 9.78364C24.9162 9.75067 24.8794 9.73238 24.8794 9.74302ZM25.0695 9.89252C25.0695 9.90252 25.1601 9.99141 25.2708 10.0897C25.3814 10.1879 25.6287 10.425 25.8204 10.6164C26.0119 10.808 26.1258 10.9114 26.0735 10.8463C25.917 10.6513 25.0695 9.84616 25.0695 9.89252ZM26.2094 11.009C26.2318 11.0428 26.3965 11.2406 26.5756 11.4486C26.7548 11.6566 26.994 11.9456 27.1073 12.0908C27.2207 12.2361 27.3217 12.355 27.3318 12.355C27.3705 12.355 26.3907 11.1609 26.2094 10.9869C26.1731 10.9522 26.1731 10.9546 26.2094 11.009Z" fill="white"/>
<path fill-rule="evenodd" clip-rule="evenodd" d="M4.24333 0.023245C4.14019 0.0434481 4.0181 0.0768363 3.97197 0.0974648C3.89436 0.132129 3.8963 0.133193 3.9966 0.113628C4.05631 0.101932 4.3311 0.079389 4.60723 0.0636518C4.88336 0.0479146 5.06546 0.031754 5.01172 0.0277134C4.53364 -0.00801433 4.40662 -0.0088674 4.24333 0.023245ZM5.24502 0.100019C5.30472 0.11767 5.38413 0.131278 5.42144 0.130428L5.48921 0.128727L5.42144 0.097679C5.38413 0.0806658 5.30472 0.0670556 5.24502 0.0674809L5.13651 0.067906L5.24502 0.100019ZM3.67107 0.175089C3.62151 0.205287 3.6227 0.208266 3.6845 0.208266C3.72181 0.208266 3.77689 0.193378 3.80674 0.175089C3.85615 0.14489 3.85495 0.141912 3.79316 0.141912C3.75585 0.141912 3.70092 0.156799 3.67107 0.175089ZM5.58429 0.175089C5.6216 0.192102 5.68265 0.206137 5.71997 0.206137H5.78773L5.71997 0.175089C5.68265 0.158075 5.6216 0.14404 5.58429 0.14404H5.51637L5.58429 0.175089ZM3.3318 0.325868C3.10865 0.444535 2.77938 0.674638 2.694 0.771826C2.66415 0.80564 2.75654 0.747794 2.89924 0.642951C3.04208 0.538319 3.25567 0.406255 3.37389 0.349686C3.49225 0.293117 3.5942 0.239314 3.60061 0.230169C3.63106 0.186786 3.51598 0.227829 3.3318 0.325868ZM5.84206 0.252498C5.92326 0.302049 5.99102 0.302049 5.93699 0.252498C5.9146 0.23187 5.87191 0.215922 5.84206 0.216985L5.78773 0.21911L5.84206 0.252498ZM6.03207 0.329697C6.11312 0.379461 6.18103 0.379461 6.127 0.329697C6.10461 0.309069 6.06192 0.293331 6.03207 0.294395L5.97774 0.29652L6.03207 0.329697ZM6.2085 0.407107C6.23089 0.427735 6.26745 0.444535 6.28984 0.444535C6.32596 0.444535 6.32596 0.440495 6.28984 0.407107C6.26745 0.386478 6.23089 0.369675 6.2085 0.369675C6.17223 0.369675 6.17223 0.373718 6.2085 0.407107ZM6.61553 0.611688C6.61553 0.617855 6.75554 0.725253 6.92674 0.8503C8.12829 1.72818 9.36267 3.7066 11.0484 7.45631C11.1507 7.68365 11.2399 7.86973 11.2468 7.86973C11.2634 7.86973 11.264 7.87079 10.9327 7.13497C9.59671 4.16596 8.63294 2.53269 7.49094 1.30242C7.2472 1.03978 6.61553 0.541296 6.61553 0.611688ZM2.29846 1.15249C1.89934 1.58335 1.59649 2.06291 1.36514 2.6303C1.30394 2.78044 1.34379 2.70878 1.61231 2.18583C1.79575 1.82856 1.99248 1.54252 2.25742 1.24862C2.3828 1.10954 2.47802 0.989594 2.4634 0.989381C2.45593 0.989168 2.38175 1.06254 2.29846 1.15249ZM1.20349 2.9929C1.06572 3.31594 0.770931 4.1953 0.790932 4.2238C0.800186 4.23677 0.821829 4.18956 0.839293 4.11853C0.87616 3.96775 1.17528 3.12177 1.26633 2.91081C1.30081 2.83106 1.32245 2.76577 1.31454 2.76577C1.30678 2.76577 1.25677 2.86785 1.20349 2.9929ZM26.1958 2.88167L26.1143 2.91123H26.1958C26.2406 2.91123 26.3139 2.89805 26.3587 2.88167L26.44 2.85211H26.3587C26.3139 2.85211 26.2406 2.86551 26.1958 2.88167ZM26.7929 2.88401C26.9303 2.92442 27.0414 2.92272 26.9286 2.88167C26.8838 2.86551 26.8105 2.85211 26.7657 2.85211C26.6972 2.8519 26.7015 2.85701 26.7929 2.88401ZM25.9651 2.95908C25.9106 2.98397 25.9079 2.99035 25.9515 2.9912C25.9813 2.99183 26.0303 2.97737 26.0602 2.95908C26.1293 2.91676 26.0579 2.91676 25.9651 2.95908ZM27.0914 2.95908C27.1213 2.97737 27.1639 2.99226 27.1863 2.99226C27.212 2.99226 27.2069 2.97993 27.1727 2.95908C27.1429 2.94079 27.1002 2.92591 27.0778 2.92591C27.0521 2.92591 27.0571 2.93803 27.0914 2.95908ZM27.405 3.09009C27.4289 3.12411 27.795 3.3808 27.8031 3.3691C27.8135 3.35443 27.5711 3.16792 27.4713 3.11369C27.4271 3.08987 27.3972 3.07924 27.405 3.09009ZM24.8661 4.00305C24.6574 4.30079 24.4989 4.54195 24.5135 4.53876C24.5408 4.53323 25.2815 3.46182 25.258 3.46182C25.251 3.46182 25.0746 3.70532 24.8661 4.00305ZM28.0955 3.64493C28.1104 3.66747 28.2203 3.79294 28.3397 3.92373C28.4591 4.05473 28.5019 4.09131 28.4347 4.00497C28.3192 3.85674 28.0376 3.55773 28.0955 3.64493ZM42.3024 4.11534C42.2617 4.13172 42.3176 4.14193 42.442 4.14065C42.5561 4.13937 42.6354 4.12555 42.6184 4.11003C42.5802 4.07515 42.3945 4.07834 42.3024 4.11534ZM42.0988 4.23507C41.9927 4.33524 42.0304 4.33524 42.1457 4.23528C42.1945 4.19275 42.2222 4.15809 42.2073 4.15809C42.1924 4.15809 42.1436 4.19275 42.0988 4.23507ZM42.8026 4.35161C42.8762 4.46837 42.9426 4.57236 42.95 4.58299C42.9577 4.59363 42.9377 4.54152 42.9059 4.46709C42.8741 4.39266 42.8078 4.28845 42.7584 4.23571C42.686 4.15787 42.6944 4.18021 42.8026 4.35161ZM28.6246 4.24018C28.6246 4.25209 28.6918 4.35757 28.7739 4.47453C28.856 4.5915 28.9231 4.67635 28.9231 4.66274C28.9231 4.64934 28.856 4.54386 28.7739 4.42838C28.6918 4.31291 28.6246 4.22827 28.6246 4.24018ZM0.661821 4.64551C0.605102 4.88285 0.623014 4.90837 0.684808 4.67827C0.710929 4.58087 0.726153 4.4924 0.718839 4.48198C0.711525 4.47134 0.685852 4.54514 0.661821 4.64551ZM3.72958 4.49601C3.72271 4.51196 3.82853 4.52663 3.96451 4.52855C4.10511 4.53046 4.18885 4.51898 4.15855 4.50218C4.08899 4.46347 3.7457 4.45858 3.72958 4.49601ZM41.8818 4.69911C41.8439 4.80544 41.8191 4.89242 41.8266 4.89242C41.834 4.89242 41.871 4.80544 41.9088 4.69911C41.9467 4.59277 41.9715 4.50579 41.964 4.50579C41.9566 4.50579 41.9195 4.59277 41.8818 4.69911ZM4.26811 4.58299C4.34916 4.63276 4.41692 4.63276 4.36304 4.58299C4.34065 4.56236 4.29796 4.54663 4.26811 4.54769L4.21378 4.54982L4.26811 4.58299ZM24.2731 4.90135C24.1607 5.07637 24.0735 5.22609 24.079 5.23396C24.0847 5.24204 24.1296 5.18164 24.179 5.09977C24.2286 5.0181 24.3225 4.86818 24.388 4.76716C24.4535 4.66593 24.5004 4.58299 24.4922 4.58299C24.4838 4.58299 24.3853 4.72633 24.2731 4.90135ZM4.59514 4.76844C5.8952 5.75201 7.45602 8.72762 9.35551 13.8437C9.43447 14.0564 9.54477 14.3522 9.60059 14.501C9.71642 14.8094 9.97419 15.5165 10.3197 16.4729C10.6109 17.2795 11.0692 18.4343 11.0875 18.4081C11.095 18.3975 11.0889 18.3666 11.0739 18.3394C11.059 18.3124 11.0102 18.1946 10.9656 18.0776C10.9208 17.9607 10.858 17.7997 10.8259 17.7199C10.7939 17.6402 10.7415 17.5096 10.7096 17.4299C10.6777 17.3501 10.5539 17.0152 10.4347 16.6855C10.3154 16.3559 10.1521 15.908 10.0721 15.6901C9.99195 15.4721 9.85777 15.1065 9.77403 14.8779C9.59447 14.3877 9.32879 13.6797 9.13206 13.167C9.08714 13.05 9.01385 12.8586 8.96907 12.7417C8.92429 12.6247 8.8422 12.4159 8.78667 12.2776C8.731 12.1394 8.65488 11.948 8.61741 11.8523C8.57995 11.7566 8.48517 11.5218 8.40666 11.3304C8.32815 11.139 8.23963 10.9215 8.20993 10.847C8.18038 10.7726 8.13306 10.6654 8.105 10.6091C8.07679 10.5525 8.0538 10.4974 8.0538 10.4864C8.0538 10.4755 7.9544 10.2433 7.8329 9.97043C7.7114 9.69758 7.57811 9.39347 7.53677 9.29479C6.69956 7.29532 5.44652 5.34242 4.61424 4.73973C4.38184 4.57151 4.36602 4.59533 4.59514 4.76844ZM42.9636 4.80459C42.9602 4.97195 42.9624 4.97897 42.9869 4.87923C43.0029 4.8148 43.0044 4.73866 42.9906 4.69464C42.9732 4.63871 42.9663 4.66614 42.9636 4.80459ZM29.0376 4.91028C29.0866 5.00513 29.1367 5.08339 29.149 5.08424C29.161 5.08509 29.126 5.00747 29.071 4.91177C28.9424 4.68805 28.9225 4.6872 29.0376 4.91028ZM2.92342 4.91071C2.84207 4.98472 2.78371 5.04554 2.79401 5.04596C2.81565 5.04724 3.08746 4.8099 3.08746 4.78991C3.08746 4.76461 3.07149 4.77631 2.92342 4.91071ZM41.694 5.20057C41.6389 5.35007 41.5998 5.47236 41.607 5.47236C41.6251 5.47236 41.8154 4.95898 41.8036 4.94218C41.7985 4.93495 41.7491 5.05107 41.694 5.20057ZM42.9163 5.10657C42.9071 5.14102 42.9005 5.19844 42.9017 5.23396C42.903 5.26926 42.9148 5.24714 42.928 5.18441C42.9536 5.06234 42.9445 5.00194 42.9163 5.10657ZM2.63908 5.21035C2.39578 5.49107 2.17741 5.88833 1.97099 6.4251C1.79934 6.87169 1.58813 7.48629 1.60037 7.50373C1.60575 7.51139 1.70739 7.24534 1.82635 6.91295C2.11652 6.10227 2.25563 5.80582 2.52997 5.41494C2.65714 5.23396 2.75789 5.08573 2.75416 5.08573C2.75028 5.08573 2.69848 5.14188 2.63908 5.21035ZM0.524949 5.22375C0.514949 5.28053 0.51286 5.33561 0.520323 5.34624C0.527786 5.35688 0.542114 5.31924 0.551965 5.26245C0.561966 5.20589 0.564056 5.15081 0.556593 5.14017C0.54913 5.12954 0.534801 5.16718 0.524949 5.22375ZM29.2534 5.27904C29.3028 5.37474 29.3464 5.46023 29.3503 5.46917C29.3542 5.4781 29.363 5.47725 29.3699 5.46768C29.3766 5.45789 29.333 5.3724 29.2728 5.27755L29.1636 5.10509L29.2534 5.27904ZM23.8281 5.64164C23.4826 6.23604 23.3545 6.47762 23.3851 6.47762C23.4011 6.47762 23.4142 6.46465 23.4142 6.4487C23.4144 6.41999 23.7259 5.8577 23.9526 5.47703C24.0174 5.36815 24.0633 5.27904 24.0547 5.27904C24.0459 5.27904 23.9439 5.44216 23.8281 5.64164ZM42.862 5.41579C42.8527 5.45045 42.8462 5.50766 42.8475 5.54317C42.8487 5.57869 42.8605 5.55636 42.8738 5.49362C42.8993 5.37155 42.8902 5.31116 42.862 5.41579ZM0.473604 5.44854C0.463454 5.48639 0.455842 5.54636 0.456887 5.58188C0.457932 5.62462 0.467335 5.61484 0.484799 5.55295C0.499128 5.5017 0.50674 5.44173 0.501516 5.41961C0.496441 5.39771 0.483903 5.41068 0.473604 5.44854ZM29.4169 5.58018C29.6203 5.9768 29.8511 6.40042 29.8638 6.40042C29.8726 6.40042 29.8679 6.37852 29.8535 6.35194C29.8391 6.32535 29.7333 6.12545 29.6185 5.90747C29.5036 5.68949 29.4033 5.51106 29.3955 5.51106C29.3878 5.51106 29.3975 5.54211 29.4169 5.58018ZM41.5031 5.70054C41.4646 5.809 41.4383 5.89768 41.4447 5.89768C41.4645 5.89768 41.5983 5.53913 41.5854 5.52063C41.5788 5.51106 41.5418 5.59208 41.5031 5.70054ZM0.419422 5.71926C0.409123 5.75712 0.40166 5.81709 0.402556 5.8526C0.40375 5.89535 0.413153 5.88556 0.430467 5.82368C0.444946 5.77243 0.452409 5.71224 0.447334 5.69034C0.44211 5.66822 0.429572 5.68119 0.419422 5.71926ZM42.8078 5.72522C42.7984 5.75967 42.7918 5.81709 42.7932 5.8526C42.7945 5.88812 42.8063 5.86579 42.8194 5.80305C42.845 5.68098 42.836 5.62058 42.8078 5.72522ZM0.360166 6.05229C0.349867 6.11928 0.347478 6.18266 0.354942 6.19329C0.362405 6.20392 0.377033 6.15777 0.387332 6.091C0.39763 6.02422 0.399869 5.96085 0.392406 5.95021C0.384943 5.93958 0.370465 5.98552 0.360166 6.05229ZM41.3131 6.21711C41.2564 6.37108 41.222 6.47954 41.2368 6.45827C41.2755 6.40298 41.4379 5.96765 41.4261 5.95107C41.4207 5.94341 41.37 6.06314 41.3131 6.21711ZM42.7535 6.03443C42.7442 6.06909 42.7376 6.1263 42.7388 6.16182C42.7402 6.19733 42.752 6.175 42.7651 6.11226C42.7908 5.99019 42.7817 5.9298 42.7535 6.03443ZM0.267624 6.57779C0.235235 6.76217 0.214488 6.92103 0.221503 6.93103C0.228518 6.94102 0.246578 6.88233 0.261654 6.80045C0.335388 6.4 0.352852 6.28048 0.340314 6.26262C0.332702 6.25177 0.300014 6.39362 0.267624 6.57779ZM42.6959 6.36172C42.6856 6.4285 42.6827 6.49123 42.6897 6.50123C42.6966 6.51101 42.71 6.46337 42.7196 6.39553C42.7423 6.23433 42.7203 6.20307 42.6959 6.36172ZM30.0351 6.77791C30.1287 6.97505 30.2186 7.14794 30.235 7.1624C30.2696 7.19281 29.968 6.5646 29.9063 6.47762C29.8836 6.44572 29.9417 6.58098 30.0351 6.77791ZM23.2075 6.75813C23.1369 6.89104 23.0676 7.0214 23.0533 7.04799C23.0391 7.07457 23.0342 7.09626 23.0424 7.09626C23.0508 7.09626 23.1149 6.98759 23.1851 6.85468C23.2554 6.72176 23.325 6.59119 23.3397 6.5646C23.3544 6.53802 23.3596 6.51633 23.3512 6.51633C23.3427 6.51633 23.2781 6.62521 23.2075 6.75813ZM41.1612 6.60012C41.1431 6.64967 41.0861 6.80342 41.0343 6.94166C40.9791 7.08924 40.9634 7.15305 40.9965 7.09626C41.0274 7.0431 41.0531 6.98738 41.0534 6.97249C41.0537 6.95739 41.0912 6.85532 41.1367 6.74537C41.1821 6.63563 41.2137 6.53759 41.2067 6.5276C41.1998 6.51782 41.1794 6.55035 41.1612 6.60012ZM42.6435 6.65456C42.6336 6.71113 42.6306 6.76493 42.637 6.77408C42.6435 6.78322 42.6567 6.7443 42.6667 6.68752C42.6767 6.63095 42.6797 6.57715 42.6733 6.56801C42.6669 6.55886 42.6535 6.59778 42.6435 6.65456ZM42.5906 6.92379C42.5814 6.95846 42.5748 7.01566 42.5761 7.05118C42.5773 7.08669 42.5891 7.06437 42.6023 7.00163C42.6279 6.87956 42.6188 6.81916 42.5906 6.92379ZM0.198218 7.23301C0.18762 7.37379 0.185083 7.49778 0.192546 7.50841C0.200009 7.51904 0.214786 7.4125 0.225383 7.27171C0.235981 7.13071 0.238519 7.00673 0.231055 6.9961C0.223592 6.98547 0.208815 7.09201 0.198218 7.23301ZM22.8782 7.39612C22.6396 7.86143 22.4863 8.17894 22.5006 8.17894C22.5084 8.17894 22.6212 7.96585 22.7514 7.70534C22.8815 7.44482 23 7.21004 23.0145 7.18346C23.029 7.15687 23.0343 7.13497 23.0264 7.13497C23.0187 7.13497 22.952 7.25257 22.8782 7.39612ZM42.535 7.2345C42.525 7.29107 42.5221 7.34487 42.5284 7.35401C42.5348 7.36316 42.5482 7.32424 42.5582 7.26767C42.5682 7.21089 42.5712 7.15709 42.5648 7.14794C42.5584 7.1388 42.545 7.17772 42.535 7.2345ZM40.8767 7.33807L40.8337 7.46375L40.8889 7.36699C40.9422 7.27405 40.9595 7.21238 40.9326 7.21238C40.9255 7.21238 40.9004 7.26895 40.8767 7.33807ZM42.4821 7.50394C42.4729 7.5384 42.4663 7.59581 42.4675 7.63112C42.4688 7.66663 42.4806 7.6443 42.4938 7.58156C42.5193 7.4595 42.5103 7.3991 42.4821 7.50394ZM40.7726 7.60879L40.7238 7.73426L40.7798 7.63771C40.8293 7.55201 40.8514 7.4831 40.8292 7.4831C40.8249 7.4831 40.7995 7.53967 40.7726 7.60879ZM1.54425 7.64196C1.53052 7.69279 1.49813 7.80912 1.47231 7.90035C1.44648 7.99158 1.43081 8.0741 1.43768 8.08388C1.44454 8.09366 1.48246 7.98542 1.52201 7.84314C1.56171 7.70108 1.58843 7.57689 1.58171 7.56732C1.57485 7.55753 1.55798 7.59113 1.54425 7.64196ZM0.141947 7.81018C0.131499 7.92991 0.129409 8.03731 0.137469 8.04879C0.145529 8.06006 0.160754 7.97159 0.171202 7.85186C0.18165 7.73213 0.18374 7.62474 0.175679 7.61325C0.167619 7.60198 0.152544 7.69045 0.141947 7.81018ZM42.4264 7.81443C42.4164 7.87121 42.4135 7.92502 42.4199 7.93395C42.4263 7.94309 42.4397 7.90418 42.4497 7.84761C42.4597 7.79083 42.4626 7.73702 42.4561 7.72809C42.4499 7.71895 42.4364 7.75786 42.4264 7.81443ZM40.5111 8.227C40.4019 8.48773 40.2939 8.74442 40.2713 8.79758C40.2484 8.85075 40.2435 8.87691 40.2601 8.85564C40.3023 8.80183 40.7317 7.78424 40.7196 7.76701C40.7141 7.75935 40.6204 7.96628 40.5111 8.227ZM11.2859 7.98563C11.3184 8.07984 11.3626 8.18 11.7168 8.96197C11.882 9.32712 11.975 9.49002 11.848 9.19229C11.6611 8.7542 11.3526 8.06623 11.306 7.98393L11.2525 7.88908L11.2859 7.98563ZM42.3721 8.08516C42.3621 8.14173 42.3593 8.19553 42.3657 8.20467C42.372 8.21382 42.3854 8.1749 42.3954 8.11833C42.4054 8.06155 42.4084 8.00774 42.402 7.9986C42.3955 7.98946 42.3821 8.02838 42.3721 8.08516ZM1.37051 8.30378C1.34723 8.39458 1.31499 8.52984 1.29887 8.60427C1.26543 8.75909 1.20065 9.05087 1.17438 9.16507C1.15677 9.24184 1.15677 9.24184 1.19065 9.16571C1.22797 9.0817 1.43514 8.17043 1.42126 8.15087C1.41663 8.14406 1.3938 8.21297 1.37051 8.30378ZM0.0877654 8.39012C0.0771679 8.50985 0.0747794 8.61661 0.0822424 8.62724C0.0897054 8.63787 0.104333 8.54855 0.114782 8.42882C0.125379 8.30909 0.127767 8.20255 0.120304 8.19191C0.112841 8.18128 0.0982137 8.27039 0.0877654 8.39012ZM22.3798 8.40139C22.3319 8.50241 22.2491 8.67126 22.1957 8.77653C22.1424 8.88201 22.1124 8.95623 22.1289 8.94156C22.1645 8.9103 22.5009 8.21764 22.4806 8.21764C22.4731 8.21764 22.4278 8.30037 22.3798 8.40139ZM0.0434349 8.88478C0.0285088 9.29075 0.0350763 10.2981 0.0516443 10.1393C0.0706004 9.95746 0.0755257 8.75909 0.0573159 8.75909C0.052241 8.75909 0.0459723 8.81566 0.0434349 8.88478ZM31.039 8.90774C31.0867 9.03938 31.4738 9.8507 31.5216 9.91896C31.544 9.95086 31.4492 9.73331 31.3111 9.43558C31.0644 8.90349 30.9743 8.72847 31.039 8.90774ZM39.9042 9.5938C39.7889 9.84028 39.7075 10.0304 39.7235 10.0164C39.7533 9.98999 40.0427 9.38922 40.1008 9.2327C40.1711 9.04364 40.1045 9.16592 39.9042 9.5938ZM21.884 9.42601C21.5513 10.1486 20.7507 11.6881 20.3268 12.4208C20.1938 12.6504 19.9097 13.1602 19.6954 13.5536C19.0488 14.7407 18.5118 15.5984 18.2493 15.8629C18.0429 16.0711 18.0238 16.1026 18.1747 15.9861C18.3082 15.8829 18.6953 15.3543 18.9649 14.907C19.061 14.7475 19.1466 14.6082 19.1551 14.5976C19.1782 14.568 19.6091 13.792 19.7776 13.4762C19.897 13.2523 20.2142 12.6796 20.4199 12.3163C20.6332 11.9395 20.745 11.733 21.0308 11.1877C21.2147 10.8368 21.4288 10.4211 21.5067 10.2635C21.9389 9.38815 22.0156 9.22291 21.9904 9.22291C21.9833 9.22291 21.9353 9.31436 21.884 9.42601ZM42.1008 9.43834C42.0908 9.49512 42.0879 9.54893 42.0942 9.55807C42.1006 9.56722 42.114 9.5283 42.124 9.47152C42.134 9.41495 42.1369 9.36114 42.1306 9.352C42.1242 9.34285 42.1108 9.38177 42.1008 9.43834ZM11.9356 9.45493C11.9794 9.57657 12.3392 10.3502 12.3764 10.4024C12.4146 10.4559 12.3915 10.4007 12.1582 9.88026C11.9649 9.44919 11.8646 9.25736 11.9356 9.45493ZM1.06572 9.57105C1.05557 9.61677 1.05333 9.66292 1.0608 9.67355C1.06826 9.68418 1.08274 9.65547 1.09289 9.60975C1.10304 9.56403 1.10527 9.51788 1.09781 9.50725C1.09035 9.49661 1.07587 9.52532 1.06572 9.57105ZM42.0479 9.66908C42.0387 9.70375 42.0321 9.76095 42.0333 9.79647C42.0346 9.83199 42.0464 9.80966 42.0596 9.74692C42.0851 9.62485 42.0761 9.56445 42.0479 9.66908ZM1.01482 9.8239C1.00542 9.85836 0.999001 9.92449 1.00034 9.97043C1.00199 10.03 1.01035 10.0166 1.029 9.92449C1.05602 9.79051 1.04497 9.71204 1.01482 9.8239ZM31.7712 10.4504C31.8939 10.7107 32.0065 10.9344 32.0216 10.9478C32.0542 10.9765 31.6476 10.1195 31.5885 10.0351C31.5662 10.0032 31.6485 10.1899 31.7712 10.4504ZM0.959597 10.2169C0.92661 10.4902 0.881832 10.7494 0.828695 10.9755C0.799589 11.0995 0.782126 11.2098 0.789887 11.2209C0.797649 11.232 0.83377 11.1044 0.870339 10.9376C0.943477 10.6031 1.01214 10.1197 0.990941 10.0895C0.983329 10.0789 0.969299 10.1361 0.959597 10.2169ZM39.6123 10.1993C39.5785 10.2684 39.5196 10.3851 39.4815 10.4583C39.4433 10.5317 39.4275 10.5784 39.4461 10.5623C39.4829 10.5306 39.7075 10.0736 39.6863 10.0736C39.6794 10.0736 39.646 10.1301 39.6123 10.1993ZM41.941 10.1659C41.9307 10.2037 41.9231 10.2637 41.9242 10.2992C41.9252 10.342 41.9348 10.3322 41.9521 10.2703C41.9664 10.219 41.974 10.1589 41.969 10.1369C41.9637 10.1148 41.9512 10.1278 41.941 10.1659ZM12.4127 10.5087C12.4776 10.6656 12.6983 11.1178 12.7103 11.1178C12.7267 11.1178 12.7219 11.1065 12.551 10.7392C12.4797 10.5859 12.4148 10.4604 12.407 10.4604C12.3992 10.4604 12.4018 10.4821 12.4127 10.5087ZM0 10.6537C0 10.7282 0.00567185 10.7586 0.0125378 10.7213C0.0192546 10.6841 0.0192546 10.6233 0.0125378 10.5861C0.00567185 10.5489 0 10.5793 0 10.6537ZM39.3326 10.7503C39.2927 10.8247 39.2699 10.8855 39.2818 10.8851C39.2938 10.8849 39.3312 10.8241 39.3649 10.7498C39.4439 10.5761 39.4257 10.5763 39.3326 10.7503ZM41.8307 10.6746C41.8215 10.709 41.8149 10.7664 41.8163 10.8017C41.8175 10.8372 41.8292 10.8149 41.8424 10.7522C41.8681 10.6303 41.8589 10.5699 41.8307 10.6746ZM0.0232844 10.9823C0.0204484 11.1628 0.242996 11.659 0.326881 11.659C0.340016 11.659 0.312701 11.6135 0.266281 11.5578C0.173739 11.447 0.111647 11.2979 0.0588088 11.0597C0.040002 10.9746 0.0240307 10.9398 0.0232844 10.9823ZM39.1536 11.0886C39.1035 11.179 39.0206 11.327 38.9694 11.4174C38.9182 11.5078 38.887 11.5807 38.9 11.5795C38.913 11.5782 38.9787 11.4721 39.0458 11.3432C39.113 11.2145 39.1903 11.0676 39.2176 11.0167C39.2449 10.9659 39.2623 10.9242 39.2561 10.9242C39.2499 10.9242 39.2038 10.9982 39.1536 11.0886ZM32.1049 11.1365C32.1386 11.2107 32.176 11.2715 32.1879 11.2719C32.1998 11.2721 32.177 11.2113 32.1372 11.1369C32.044 10.9629 32.0258 10.9627 32.1049 11.1365ZM12.8885 11.5139C12.981 11.7107 13.0893 11.9325 13.129 12.0069C13.1687 12.0813 13.2914 12.3163 13.4018 12.529C13.6103 12.9307 14.0753 13.7684 14.2389 14.037C14.6272 14.6746 15.4364 15.703 15.6797 15.8685L15.7476 15.9146L15.6812 15.8457C14.8214 14.9551 14.3454 14.2509 13.4391 12.529C13.2602 12.1887 13.0309 11.7407 12.9298 11.5333C12.8288 11.326 12.7403 11.1562 12.7331 11.1562C12.7261 11.1562 12.796 11.3172 12.8885 11.5139ZM32.2606 11.4259C32.2922 11.4891 32.3318 11.5529 32.3488 11.5678C32.3657 11.5826 32.3454 11.531 32.3036 11.4529C32.2128 11.2834 32.1786 11.2619 32.2606 11.4259ZM0.656 11.5388C0.629283 11.6035 0.588385 11.6635 0.565101 11.6724C0.529875 11.686 0.530472 11.6894 0.568533 11.6932C0.614356 11.6977 0.744661 11.4786 0.718541 11.4414C0.710928 11.4306 0.682718 11.4744 0.656 11.5388ZM32.4837 11.8308C32.5479 11.9465 32.6105 12.0422 32.6229 12.0435C32.6352 12.0448 32.5879 11.9499 32.5178 11.8329C32.3539 11.5595 32.3327 11.5582 32.4837 11.8308ZM38.7349 11.8329C38.6648 11.9499 38.6175 12.0448 38.6298 12.0435C38.6525 12.0414 38.8954 11.6203 38.8739 11.6203C38.8676 11.6203 38.8051 11.716 38.7349 11.8329ZM32.7357 12.2368C32.8851 12.4907 33.2774 13.0547 33.4417 13.2518C33.5378 13.3669 33.506 13.3142 33.3642 13.1232C33.2321 12.9452 33.0184 12.6419 32.8894 12.4495C32.7603 12.2568 32.6911 12.1611 32.7357 12.2368ZM38.3997 12.3908C38.2924 12.5592 38.2044 12.7081 38.2044 12.7215C38.2044 12.7466 38.4121 12.4327 38.5427 12.21C38.6792 11.9771 38.5963 12.082 38.3997 12.3908ZM26.1823 12.2074C25.9281 12.3442 25.6954 12.5994 25.3528 13.117C24.7976 13.956 24.79 13.9868 25.3273 13.2204C25.787 12.5645 25.8651 12.4697 26.0469 12.345C26.7859 11.8381 27.6162 12.4412 28.5433 14.158C28.8857 14.7924 28.9064 14.8279 28.8107 14.6169C28.537 14.0136 27.8541 12.9633 27.4713 12.5566C27.078 12.1385 26.5669 12.0003 26.1823 12.2074ZM41.3158 12.9065C41.2526 13.1419 41.2629 13.1868 41.3279 12.9588C41.3574 12.855 41.3768 12.7634 41.371 12.7551C41.3652 12.7468 41.3403 12.8148 41.3158 12.9065ZM37.8926 13.1121C37.682 13.3905 37.3302 13.7588 37.0723 13.9713C36.9795 14.0476 36.9078 14.1163 36.9132 14.1242C36.9316 14.1504 37.3129 13.8058 37.5664 13.5343C37.8223 13.2599 38.1441 12.8561 38.1041 12.8595C38.0922 12.8605 37.997 12.9741 37.8926 13.1121ZM33.619 13.4666C33.6195 13.4826 33.653 13.5294 33.6936 13.5706C33.7341 13.6117 33.8071 13.6878 33.8556 13.7395C34.0117 13.906 33.9493 13.8041 33.781 13.6178C33.6914 13.5187 33.6184 13.4507 33.619 13.4666ZM41.0986 13.7571C41.0355 13.9926 41.0458 14.0374 41.1107 13.8095C41.1403 13.7057 41.1597 13.614 41.1538 13.6057C41.148 13.5974 41.1232 13.6655 41.0986 13.7571ZM34.0523 13.9332C34.0523 13.9515 34.0829 13.9864 34.1202 14.0106C34.1575 14.0349 34.188 14.0483 34.188 14.0406C34.188 14.0328 34.1575 13.9981 34.1202 13.9632C34.0829 13.9283 34.0523 13.9149 34.0523 13.9332ZM24.6944 14.1276C24.4571 14.4993 23.8829 15.6456 23.5778 16.357C23.4223 16.7196 22.6582 18.5306 22.5991 18.6769C22.5406 18.822 22.0671 19.9895 22.0034 20.1462C21.4801 21.4328 20.9417 22.5317 20.393 23.433C20.1794 23.7836 19.5388 24.6973 19.3298 24.949C19.1116 25.2119 18.9919 25.3684 19.0583 25.3038C20.0433 24.3476 21.2131 22.2278 22.4163 19.2182C23.3217 16.9535 24.0784 15.2724 24.6074 14.3503C24.8061 14.0043 24.8577 13.872 24.6944 14.1276ZM34.2695 14.1302C34.3068 14.1737 34.3495 14.2093 34.3644 14.2095C34.3934 14.2099 34.3444 14.1563 34.2559 14.091C34.2198 14.0644 34.2244 14.0776 34.2695 14.1302ZM34.4052 14.2299C34.4052 14.2565 34.5713 14.3739 34.5837 14.356C34.5897 14.3477 34.5517 14.312 34.4998 14.2765C34.4477 14.2412 34.4052 14.2201 34.4052 14.2299ZM36.5626 14.3269C36.4581 14.3885 36.3863 14.4398 36.4029 14.4409C36.4406 14.4434 36.716 14.2869 36.7513 14.2431C36.789 14.1961 36.7718 14.2035 36.5626 14.3269ZM34.6222 14.3862C34.6222 14.4132 34.8194 14.5234 34.8455 14.5108C34.8585 14.5047 34.8135 14.4704 34.7456 14.4345C34.6777 14.3987 34.6222 14.3771 34.6222 14.3862ZM36.2369 14.4817C36.1618 14.5089 36.1608 14.5115 36.2233 14.5151C36.2606 14.5174 36.3096 14.5023 36.332 14.4817C36.3781 14.4392 36.3542 14.4392 36.2369 14.4817ZM36.0199 14.5589C35.9857 14.5799 35.9806 14.5923 36.0063 14.5923C36.0287 14.5923 36.0714 14.5772 36.1012 14.5589C36.1354 14.538 36.1405 14.5257 36.1148 14.5257C36.0924 14.5257 36.0497 14.5406 36.0199 14.5589ZM35.1243 14.6352C35.1761 14.668 35.3491 14.6901 35.3255 14.661C35.3194 14.6533 35.2592 14.6367 35.1921 14.624C35.1106 14.6086 35.088 14.6125 35.1243 14.6352ZM35.8027 14.6363C35.7288 14.6631 35.7276 14.6661 35.7891 14.6678C35.8264 14.6686 35.8815 14.6546 35.9114 14.6363C35.9782 14.5953 35.9157 14.5953 35.8027 14.6363ZM40.6605 15.319C40.6377 15.3966 40.6253 15.4691 40.6331 15.4799C40.6407 15.491 40.647 15.4904 40.647 15.4789C40.647 15.4672 40.6655 15.3947 40.688 15.3177C40.7105 15.2407 40.7229 15.1775 40.7155 15.1775C40.708 15.1775 40.6832 15.2411 40.6605 15.319ZM29.2536 15.6029C29.3824 15.9006 29.5587 16.2847 29.5817 16.3183C29.6288 16.387 29.5426 16.1715 29.4037 15.8736C29.2745 15.5961 29.1663 15.401 29.2536 15.6029ZM15.7707 15.9416C15.7925 15.992 16.2322 16.2991 16.2809 16.2981C16.3096 16.2976 16.0916 16.1332 15.7777 15.9187C15.7645 15.9097 15.7613 15.9199 15.7707 15.9416ZM17.9186 16.1407C17.8738 16.1783 17.7701 16.2457 17.688 16.2906C17.6059 16.3355 17.5608 16.3731 17.588 16.3742C17.6413 16.3765 18.0407 16.1247 18.0407 16.0888C18.0407 16.0531 18.0049 16.0684 17.9186 16.1407ZM40.3349 16.4016C40.312 16.4792 40.2996 16.5518 40.3074 16.5626C40.315 16.5737 40.3213 16.573 40.3213 16.5615C40.3213 16.5499 40.3398 16.4773 40.3623 16.4003C40.385 16.3234 40.3972 16.2602 40.3898 16.2602C40.3823 16.2602 40.3577 16.3238 40.3349 16.4016ZM16.3311 16.3155C16.3311 16.3442 16.6214 16.4537 16.6879 16.4501C16.723 16.4484 16.6661 16.4144 16.5617 16.375C16.3548 16.2968 16.3311 16.2906 16.3311 16.3155ZM17.3623 16.415C17.2957 16.4452 17.296 16.4461 17.3759 16.4493C17.4207 16.451 17.4756 16.4357 17.498 16.415C17.5493 16.3676 17.466 16.3676 17.3623 16.415ZM29.619 16.4246C29.7639 16.7651 29.9124 17.0637 29.8451 16.8788C29.7965 16.7455 29.6236 16.3763 29.6097 16.3763C29.6036 16.3763 29.6076 16.398 29.619 16.4246ZM16.8951 16.4822C16.9739 16.4901 17.096 16.4899 17.1665 16.482C17.2368 16.4741 17.1723 16.4676 17.023 16.4678C16.8738 16.4678 16.8162 16.4744 16.8951 16.4822ZM40.172 16.9429C40.1492 17.0205 40.1368 17.093 40.1445 17.1041C40.1522 17.1149 40.1584 17.1143 40.1584 17.1028C40.1584 17.0913 40.1769 17.0188 40.1995 16.9416C40.2222 16.8646 40.2345 16.8016 40.2271 16.8016C40.2196 16.8016 40.1948 16.8652 40.172 16.9429ZM29.9142 17.0979C29.9402 17.1547 29.9859 17.2597 30.0156 17.3316C30.0454 17.4035 30.0753 17.4545 30.0818 17.445C30.095 17.4262 29.9011 16.995 29.8796 16.995C29.8726 16.995 29.8881 17.0413 29.9142 17.0979ZM30.1311 17.5908C30.1572 17.6529 30.2026 17.7616 30.232 17.8326C30.2614 17.9035 30.2911 17.9615 30.2981 17.9615C30.3171 17.9615 30.2041 17.6855 30.1399 17.5749L30.0836 17.4783L30.1311 17.5908ZM30.3636 18.1453C30.4326 18.3097 30.4701 18.3766 30.4701 18.3358C30.4701 18.3005 30.3313 18.0002 30.315 18.0002C30.3083 18.0002 30.3302 18.0655 30.3636 18.1453ZM39.7378 18.335C39.715 18.4126 39.7026 18.4851 39.7103 18.4959C39.718 18.5068 39.7242 18.5064 39.7242 18.4947C39.7242 18.4832 39.7427 18.4107 39.7653 18.3337C39.788 18.2567 39.8002 18.1935 39.7927 18.1935C39.7853 18.1935 39.7606 18.2571 39.7378 18.335ZM30.5111 18.4802C30.5372 18.5423 30.5826 18.651 30.612 18.722C30.6414 18.7928 30.6711 18.8509 30.678 18.8509C30.6969 18.8509 30.584 18.5748 30.5198 18.4643L30.4636 18.3675L30.5111 18.4802ZM11.0969 18.4836C11.1317 18.6136 11.289 19.0104 11.2996 18.9951C11.3135 18.9755 11.1575 18.547 11.1133 18.4836C11.0954 18.4579 11.0901 18.4579 11.0969 18.4836ZM39.3924 19.3643C39.2923 19.6433 39.2148 19.8778 39.2202 19.8857C39.2255 19.8934 39.3117 19.6709 39.4115 19.3913C39.5112 19.1116 39.5888 18.877 39.5838 18.8698C39.5787 18.8628 39.4926 19.0852 39.3924 19.3643ZM30.7281 18.983C30.7543 19.0448 30.7996 19.1537 30.829 19.2245C30.8584 19.2956 30.8881 19.3536 30.8952 19.3536C30.9141 19.3536 30.8011 19.0774 30.7369 18.967L30.6807 18.8702L30.7281 18.983ZM11.4068 19.319C11.4602 19.47 11.509 19.5863 11.5152 19.5773C11.5278 19.5593 11.341 19.0442 11.3219 19.0442C11.3151 19.0442 11.3534 19.1678 11.4068 19.319ZM30.9216 19.4406C31.0665 19.7811 31.2152 20.0797 31.1477 19.8949C31.0992 19.7615 30.9262 19.3923 30.9125 19.3923C30.9062 19.3923 30.9104 19.414 30.9216 19.4406ZM11.6364 19.9336C11.7559 20.2772 11.8868 20.5945 11.9008 20.5745C11.9088 20.5633 11.9029 20.532 11.888 20.5048C11.8731 20.4778 11.8086 20.3164 11.7449 20.1462C11.6187 19.8094 11.5386 19.6524 11.6364 19.9336ZM39.0875 20.1883C39.0621 20.2432 39.0461 20.2949 39.0518 20.3032C39.0575 20.3113 39.0836 20.2662 39.1097 20.203C39.1682 20.062 39.1508 20.0505 39.0875 20.1883ZM31.2988 20.2815C31.3546 20.425 32.0191 21.8282 32.0312 21.8282C32.0464 21.8282 31.3473 20.3225 31.304 20.2623C31.2852 20.236 31.2835 20.2424 31.2988 20.2815ZM38.9788 20.4588C38.9536 20.5139 38.9391 20.5677 38.9466 20.5786C38.9542 20.5892 38.9799 20.5443 39.0037 20.4784C39.0566 20.3332 39.042 20.3217 38.9788 20.4588ZM11.9074 20.646C11.9074 20.7672 12.8813 22.9717 12.969 23.0489C12.9842 23.0625 12.8755 22.815 12.7272 22.4992C12.4622 21.9347 12.2338 21.4065 12.032 20.8906C11.9414 20.6592 11.9074 20.5924 11.9074 20.646ZM38.8767 20.7166C38.8173 20.847 38.764 21.0022 38.7939 20.9582C38.8319 20.9018 38.9439 20.6296 38.929 20.6296C38.9219 20.6296 38.8985 20.6687 38.8767 20.7166ZM38.6606 21.2193C38.5518 21.4531 38.4958 21.5962 38.5131 21.5962C38.523 21.5962 38.6688 21.2793 38.7576 21.0645C38.8133 20.9301 38.7428 21.0424 38.6606 21.2193ZM32.1372 22.0619C32.2904 22.3671 32.3451 22.433 32.2061 22.1451C32.1413 22.0111 32.0757 21.8901 32.0598 21.8763C32.0442 21.8624 32.0789 21.946 32.1372 22.0619ZM38.2353 22.1287C38.1035 22.4181 38.1398 22.3837 38.2973 22.07C38.3533 21.9583 38.3889 21.8673 38.3764 21.8677C38.364 21.8682 38.3004 21.9856 38.2353 22.1287ZM32.3816 22.537C32.4234 22.6151 32.4631 22.6789 32.4699 22.6789C32.4887 22.6789 32.3712 22.4528 32.3364 22.4222C32.3196 22.4073 32.3399 22.459 32.3816 22.537ZM38.065 22.476C37.9789 22.624 37.9479 22.6927 37.9794 22.6659C38.014 22.6361 38.1346 22.4081 38.1155 22.4081C38.1094 22.4081 38.0867 22.4388 38.065 22.476ZM32.5445 22.8462C32.5863 22.9243 32.626 22.9883 32.6327 22.9883C32.6515 22.9883 32.534 22.762 32.4993 22.7314C32.4822 22.7165 32.5027 22.7682 32.5445 22.8462ZM37.7308 23.0946C37.6162 23.302 37.5638 23.407 37.6143 23.3283C37.7319 23.1448 37.9677 22.7176 37.9515 22.7176C37.9446 22.7176 37.8453 22.8873 37.7308 23.0946ZM32.7496 23.2492C33.0099 23.7685 33.6181 24.6717 33.6181 24.5388C33.6181 24.5154 33.6074 24.4963 33.5944 24.4963C33.5448 24.4963 33.0153 23.7054 32.8426 23.3736C32.6433 22.991 32.573 22.897 32.7496 23.2492ZM13.0431 23.212C13.0767 23.279 13.1181 23.3462 13.1352 23.3613C13.1524 23.3764 13.1391 23.3341 13.1057 23.2671C13.0721 23.2001 13.0308 23.1329 13.0136 23.1178C12.9964 23.1027 13.0097 23.145 13.0431 23.212ZM13.1861 23.4812C13.5732 24.1892 14.3956 25.4433 14.6147 25.66C14.7813 25.8246 14.8656 25.8982 14.8656 25.8788C14.8656 25.8686 14.7975 25.7961 14.7143 25.7174C14.4477 25.4652 13.4658 24.001 13.254 23.5397C13.2224 23.4708 13.1858 23.4142 13.1728 23.414C13.1599 23.4138 13.1658 23.444 13.1861 23.4812ZM37.3804 23.6801C37.3226 23.7781 37.1956 23.9799 37.098 24.1288C36.8186 24.5554 36.7342 24.7021 36.9426 24.3995C37.1963 24.031 37.5092 23.5308 37.4961 23.5148C37.4901 23.5078 37.4381 23.582 37.3804 23.6801ZM33.6547 24.6028C33.6653 24.6273 33.7125 24.6864 33.7595 24.734C33.8065 24.7817 33.8363 24.8008 33.8257 24.7764C33.8151 24.7519 33.768 24.6928 33.721 24.6452C33.6739 24.5973 33.6441 24.5784 33.6547 24.6028ZM36.5142 24.8665C36.4288 24.9427 36.3591 25.0141 36.3591 25.0256C36.3591 25.0371 36.3915 25.016 36.4314 24.979C36.4711 24.9418 36.5444 24.8772 36.5942 24.8353C36.6723 24.7698 36.7044 24.7283 36.6771 24.7283C36.6729 24.7283 36.5996 24.7904 36.5142 24.8665ZM34.1067 25.055C34.1067 25.0656 34.1432 25.1013 34.188 25.1343C34.2328 25.1672 34.2695 25.1855 34.2695 25.1749C34.2695 25.1643 34.2328 25.1285 34.188 25.0956C34.1432 25.0626 34.1067 25.0443 34.1067 25.055ZM36.2233 25.1181L36.1556 25.1968L36.2438 25.1356C36.2923 25.1017 36.332 25.066 36.332 25.0558C36.332 25.0175 36.2887 25.0422 36.2233 25.1181ZM34.4594 25.3242C34.4967 25.3527 34.5577 25.3867 34.595 25.3999C34.6323 25.4133 34.6141 25.3905 34.5544 25.3497C34.4316 25.2655 34.3555 25.2451 34.4594 25.3242ZM18.7598 25.5658C18.6404 25.6834 18.4782 25.8322 18.3991 25.8965C18.3201 25.9609 18.261 26.0215 18.2677 26.0313C18.2838 26.0541 18.805 25.5917 18.9179 25.4548C19.0495 25.2948 18.9991 25.3304 18.7598 25.5658ZM34.7173 25.4628C34.7471 25.4811 34.7898 25.496 34.8122 25.496C34.8379 25.496 34.8328 25.4839 34.7986 25.4628C34.7688 25.4446 34.7261 25.4297 34.7037 25.4297C34.678 25.4297 34.6829 25.442 34.7173 25.4628ZM34.9207 25.539C34.988 25.5709 35.1845 25.5919 35.1627 25.5647C35.1565 25.5571 35.0843 25.5407 35.0022 25.5286C34.9058 25.5145 34.877 25.5181 34.9207 25.539ZM35.3413 25.5403L35.2328 25.5679L35.3278 25.5688C35.38 25.5694 35.4594 25.5564 35.5042 25.5403C35.6146 25.5001 35.4984 25.5001 35.3413 25.5403ZM14.947 25.9656C14.9843 26.0071 15.027 26.0411 15.0419 26.0411C15.0568 26.0411 15.0386 26.0071 15.0013 25.9656C14.964 25.9239 14.9211 25.8899 14.9062 25.8899C14.8913 25.8899 14.9096 25.9239 14.947 25.9656ZM15.0826 26.0583C15.0826 26.0909 15.3573 26.2831 15.3725 26.2614C15.3798 26.251 15.3267 26.2029 15.2546 26.1544C15.1823 26.1059 15.1141 26.0594 15.1029 26.0513C15.0917 26.0432 15.0826 26.0462 15.0826 26.0583ZM17.8643 26.2748C17.8046 26.3141 17.7741 26.3471 17.7965 26.3477C17.8189 26.3484 17.8799 26.3156 17.9322 26.2748C18.0529 26.1806 18.0072 26.1806 17.8643 26.2748ZM15.544 26.3684C15.544 26.3947 15.8177 26.5164 15.8318 26.4964C15.8388 26.4864 15.7839 26.4498 15.7095 26.4152C15.567 26.3488 15.544 26.3422 15.544 26.3684ZM17.4708 26.4681C17.4169 26.5179 17.4847 26.5179 17.5657 26.4681L17.6201 26.4349L17.5657 26.4328C17.5359 26.4317 17.4932 26.4475 17.4708 26.4681ZM15.9104 26.5455C15.9403 26.5638 15.9952 26.5783 16.0325 26.5776L16.1003 26.5766L16.0325 26.5455C15.9952 26.5285 15.9403 26.514 15.9104 26.5134L15.8561 26.5123L15.9104 26.5455ZM17.2402 26.5455C17.1906 26.5757 17.1918 26.5787 17.2538 26.5787C17.2911 26.5787 17.346 26.5638 17.3759 26.5455C17.4253 26.5153 17.4241 26.5123 17.3623 26.5123C17.325 26.5123 17.2701 26.5272 17.2402 26.5455ZM16.1954 26.621C16.261 26.6527 16.6229 26.6761 16.6002 26.6472C16.5939 26.6393 16.4851 26.6227 16.3582 26.6106C16.2181 26.597 16.1542 26.6012 16.1954 26.621ZM16.833 26.6229L16.6973 26.6493L16.8602 26.6516C16.9497 26.6529 17.0536 26.6399 17.0909 26.6229C17.1789 26.5827 17.0384 26.5827 16.833 26.6229Z" fill="#113F5B"/>
<path fill-rule="evenodd" clip-rule="evenodd" d="M26.1548 2.99681C26.1325 3.01786 26.0813 3.03551 26.0411 3.03594C26.001 3.03615 25.9605 3.0538 25.9513 3.07507C25.942 3.09634 25.9162 3.11377 25.8936 3.11377C25.8366 3.11377 25.5144 3.33622 25.3678 3.47679C25.1582 3.67776 24.4385 4.74385 23.9683 5.54985C23.8628 5.73061 23.7186 5.98284 23.6479 6.11043C23.577 6.23803 23.5046 6.36861 23.4868 6.40051C23.4077 6.54299 22.8978 7.52083 22.8144 7.69011C22.5671 8.19179 22.3559 8.62222 22.2271 8.8872L22.085 9.17898L22.2572 9.06775C23.2271 8.44124 24.7924 9.29743 26.6246 11.4566C26.8373 11.7073 27.3061 12.2901 27.3489 12.3568C27.3564 12.3685 27.4052 12.4206 27.4574 12.4723C27.9651 12.9761 28.5451 13.9076 29.1354 15.1672C29.3171 15.5549 29.4657 15.882 29.4657 15.8939C29.4657 15.9058 29.478 15.9366 29.4931 15.9623C29.5523 16.0631 29.7914 16.6129 29.7914 16.6482C29.7914 16.6688 29.8035 16.6856 29.8184 16.6856C29.8334 16.6856 29.8456 16.7043 29.8456 16.7271C29.8456 16.7498 29.8823 16.8443 29.9271 16.937C29.9719 17.0297 30.0085 17.1243 30.0085 17.1469C30.0085 17.1696 30.0207 17.1884 30.0356 17.1884C30.0505 17.1884 30.0628 17.2071 30.0628 17.2298C30.0628 17.2524 30.0994 17.347 30.1441 17.4397C30.1889 17.5325 30.2256 17.6192 30.2256 17.6324C30.2256 17.6458 30.2744 17.7591 30.3341 17.8844C30.3938 18.0097 30.4427 18.123 30.4427 18.1362C30.4427 18.1496 30.4794 18.2364 30.5242 18.3291C30.5689 18.4218 30.6055 18.5086 30.6055 18.5218C30.6055 18.535 30.6534 18.6464 30.7119 18.7691C30.7704 18.892 30.8422 19.0519 30.8713 19.1247C30.966 19.3607 31.1536 19.792 31.2819 20.0689C31.3509 20.2178 31.4245 20.3875 31.4452 20.446C31.4661 20.5044 31.4933 20.5523 31.5057 20.5523C31.5181 20.5523 31.5282 20.5704 31.5282 20.5923C31.5282 20.6291 31.662 20.9164 32.0845 21.7862C32.1741 21.9706 32.3572 22.3314 32.4916 22.5883C32.6259 22.8452 32.7908 23.1657 32.858 23.3003C33.2473 24.081 34.3246 25.3083 34.6206 25.3083C34.6367 25.3083 34.6711 25.3236 34.697 25.3421C34.8702 25.467 35.3933 25.5114 35.5971 25.4189C35.6883 25.3774 35.7278 25.357 35.8771 25.2745C36.0093 25.2014 36.2149 25.055 36.3181 24.9606C36.3779 24.906 36.4628 24.8358 36.507 24.8045C36.7192 24.6544 37.4394 23.5373 37.9806 22.5188C38.1997 22.1064 38.6384 21.1937 38.6384 21.1501C38.6384 21.1373 38.6751 21.051 38.7199 20.9583C38.7647 20.8655 38.8012 20.7781 38.8012 20.7639C38.8012 20.7499 38.8259 20.689 38.8559 20.6291C38.8859 20.5689 38.9453 20.427 38.9878 20.3137C39.0304 20.2003 39.1114 19.986 39.168 19.8371C39.3652 19.318 39.7295 18.2404 39.9003 17.6717C39.9449 17.5229 39.9822 17.4029 40.1073 17.0046C40.1391 16.9036 40.1741 16.7862 40.1853 16.7437C40.1965 16.7011 40.2331 16.5793 40.2667 16.473C40.3004 16.3666 40.3373 16.245 40.3488 16.2024C40.3603 16.1599 40.3894 16.0597 40.4133 15.98C40.4815 15.7527 40.5345 15.5766 40.5821 15.4194C40.6063 15.3397 40.6442 15.2136 40.6663 15.1391C40.6885 15.0647 40.7313 14.9254 40.7615 14.8297C40.7916 14.734 40.8285 14.6121 40.8433 14.559C40.8581 14.5058 40.8809 14.4322 40.894 14.3952C40.9073 14.3582 40.9181 14.3014 40.9181 14.2691C40.9181 14.2366 40.9288 14.1798 40.9421 14.1428C40.9824 14.0299 41.0213 13.8897 41.0576 13.7277C41.0766 13.6426 41.0997 13.5556 41.1088 13.5343C41.1179 13.5131 41.142 13.4174 41.1621 13.3217C41.1824 13.226 41.209 13.1311 41.2214 13.1109C41.2336 13.0907 41.2437 13.0427 41.2437 13.0042C41.2437 12.9655 41.256 12.8995 41.2709 12.8572C41.2858 12.8149 41.3102 12.7458 41.3251 12.7037C41.34 12.6614 41.3523 12.5927 41.3523 12.5512C41.3523 12.5097 41.3645 12.4649 41.3794 12.4517C41.3944 12.4385 41.4066 12.3864 41.4066 12.3358C41.4066 12.2852 41.4188 12.2328 41.4338 12.2197C41.4487 12.2067 41.4608 12.1544 41.4608 12.1038C41.4608 12.0531 41.473 12.0008 41.4879 11.9876C41.5029 11.9747 41.5151 11.9224 41.5151 11.8717C41.5151 11.8211 41.5273 11.7688 41.5423 11.7558C41.5572 11.7427 41.5694 11.6903 41.5694 11.6397C41.5694 11.5891 41.5815 11.5368 41.5965 11.5238C41.6114 11.5106 41.6236 11.4583 41.6236 11.4077C41.6236 11.3571 41.6359 11.305 41.6508 11.2918C41.6657 11.2786 41.6779 11.2337 41.6779 11.1923C41.6779 11.1508 41.689 11.0866 41.7024 11.0496C41.7159 11.0126 41.7417 10.9041 41.7597 10.8084C41.778 10.7127 41.8018 10.5996 41.8132 10.557C41.839 10.4596 41.9308 10.0324 41.9751 9.80315C41.9938 9.70745 42.0199 9.59878 42.0333 9.56199C42.0469 9.52498 42.0578 9.45948 42.0578 9.41652C42.0578 9.37335 42.0689 9.30785 42.0823 9.27085C42.0959 9.23406 42.1217 9.12538 42.1398 9.02969C42.158 8.93399 42.1821 8.81234 42.1935 8.75917C42.205 8.70601 42.2293 8.58415 42.2475 8.48845C42.2657 8.39275 42.2916 8.27451 42.305 8.2256C42.3183 8.17669 42.3293 8.09524 42.3293 8.0442C42.3293 7.99337 42.3414 7.94084 42.3563 7.92787C42.3713 7.91468 42.3835 7.85365 42.3835 7.7924C42.3835 7.73115 42.3944 7.67139 42.4077 7.6597C42.421 7.648 42.4384 7.58186 42.4465 7.51253C42.4707 7.30348 42.4948 7.15866 42.5192 7.07721C42.5435 6.99555 42.5677 6.85072 42.592 6.64167C42.6001 6.57234 42.6175 6.5062 42.6308 6.49451C42.6441 6.48281 42.6549 6.41433 42.6549 6.34245C42.6549 6.27057 42.6658 6.20209 42.679 6.1904C42.6923 6.1787 42.7098 6.11256 42.7178 6.04323C42.7259 5.9739 42.7455 5.84312 42.7614 5.75273C42.7775 5.66235 42.8034 5.51455 42.819 5.42417C42.8346 5.33378 42.8598 5.19024 42.8749 5.10517C42.9486 4.69196 42.9382 4.63305 42.7429 4.36084C42.4763 3.98932 42.1593 4.15243 41.9274 4.78064C41.8457 5.0016 41.7335 5.30422 41.6776 5.45309C41.622 5.60195 41.5276 5.85439 41.4681 6.01389C41.4085 6.17338 41.3232 6.39944 41.2782 6.51641C41.2334 6.63338 41.1676 6.80734 41.132 6.90304C41.0964 6.99874 41.0612 7.08572 41.0537 7.09635C41.0463 7.10698 41.0139 7.18546 40.9818 7.27052C40.8675 7.57336 40.8034 7.73498 40.7824 7.77305C40.7706 7.79432 40.7352 7.87704 40.7039 7.95679C40.5568 8.32981 40.5265 8.4019 40.4534 8.5531C40.4104 8.64221 40.3754 8.72558 40.3754 8.73834C40.3754 8.7511 40.2898 8.94313 40.1853 9.16515C40.0809 9.38696 39.9953 9.58495 39.9953 9.60515C39.9953 9.62536 39.9852 9.64769 39.9728 9.65492C39.9604 9.66194 39.8744 9.82888 39.7819 10.026C39.6389 10.3299 39.1299 11.3116 38.9851 11.5623C38.4694 12.4553 38.0348 13.1128 37.7836 13.38C37.7239 13.4433 37.669 13.505 37.6615 13.5167C37.654 13.5284 37.6052 13.5799 37.553 13.6311C37.5007 13.6822 37.4518 13.7345 37.4443 13.747C37.3939 13.8329 37.1042 14.0762 36.8201 14.2714C36.7082 14.3482 36.5955 14.4271 36.5695 14.4465C36.5435 14.4658 36.5037 14.4818 36.481 14.4818C36.4582 14.4818 36.4183 14.4971 36.3923 14.5156C36.3078 14.5764 36.1531 14.6364 36.0804 14.6364C36.0413 14.6364 36.0026 14.6515 35.9947 14.67C35.9563 14.7582 35.4668 14.7899 35.2054 14.721C34.9048 14.6417 34.8657 14.6277 34.8508 14.5932C34.8426 14.5745 34.817 14.559 34.7942 14.559C34.6763 14.559 33.8831 13.9048 33.6855 13.6449C33.6555 13.6054 33.5761 13.509 33.5091 13.431C33.3592 13.2562 33.0659 12.8485 32.8308 12.4885C32.6308 12.1822 32.5834 12.1033 32.3551 11.6978C32.0354 11.13 32.0077 11.0732 30.8503 8.62371C30.3882 7.64545 29.971 6.76672 29.9234 6.67102C29.7807 6.38477 29.2928 5.45713 29.2554 5.40141C29.2363 5.37313 29.1872 5.28636 29.1465 5.20874C28.7894 4.52991 28.2224 3.80728 27.7507 3.4298C27.6981 3.38769 27.6318 3.33474 27.6037 3.31219C27.4836 3.21628 27.308 3.11377 27.264 3.11377C27.2379 3.11377 27.2097 3.09825 27.2015 3.07932C27.1637 2.99234 26.2369 2.91898 26.1548 2.99681Z" fill="white"/>
<path fill-rule="evenodd" clip-rule="evenodd" d="M4.06515 0.104033C3.99798 0.123811 3.87589 0.1589 3.79379 0.181867C3.29287 0.322651 2.58956 0.814543 2.22969 1.27603C2.21268 1.29772 2.11416 1.42 2.01058 1.5476C1.68743 1.94592 1.29129 2.76638 0.993067 3.65489C0.803506 4.21973 0.794998 4.24759 0.686336 4.66016C0.556181 5.15503 0.290647 6.51268 0.294677 6.66367C0.295572 6.69961 0.33841 6.49397 0.390054 6.20687C1.02038 2.69684 2.17058 0.673971 3.79379 0.221421C3.87589 0.198666 4.00813 0.161451 4.08754 0.138696C4.41084 0.046612 5.20908 0.100203 5.69343 0.246304C7.4256 0.769459 8.84851 2.65282 10.825 7.03818C11.0455 7.52731 11.2455 7.9622 11.2695 8.00474C11.3525 8.15126 11.2594 7.91414 11.0798 7.52135C10.3444 5.91339 10.2707 5.75751 9.81079 4.8371C8.89254 2.99904 7.73935 1.42702 6.84722 0.797319C6.28122 0.397509 5.95673 0.255023 5.25699 0.0987141C5.04101 0.0504392 4.23516 0.0540565 4.06515 0.104033ZM26.3608 2.87633C26.3169 2.88973 26.4147 2.90142 26.578 2.90206C26.7804 2.90313 26.8404 2.89462 26.7663 2.87526C26.6377 2.84209 26.4717 2.84252 26.3608 2.87633ZM26.0608 2.95884C26.0265 2.97968 26.0215 2.99202 26.0472 2.99202C26.0696 2.99202 26.1123 2.97713 26.1421 2.95884C26.1763 2.93779 26.1814 2.92567 26.1557 2.92567C26.1333 2.92567 26.0906 2.94055 26.0608 2.95884ZM27.0105 2.95884C27.0404 2.97713 27.0832 2.99202 27.1056 2.99202C27.1311 2.99202 27.1262 2.97968 27.092 2.95884C27.0622 2.94055 27.0193 2.92567 26.997 2.92567C26.9713 2.92567 26.9764 2.93779 27.0105 2.95884ZM25.5248 3.25126C25.4539 3.304 25.3958 3.35568 25.3958 3.36631C25.3958 3.38353 25.6645 3.20277 25.6921 3.16683C25.7257 3.12323 25.6373 3.16789 25.5248 3.25126ZM24.907 3.99324L24.541 4.52491L24.9142 4.00345C25.2608 3.519 25.2996 3.46158 25.2802 3.46158C25.2761 3.46158 25.1082 3.70083 24.907 3.99324ZM28.0651 3.64596C28.0866 3.69551 28.2454 3.86288 28.2454 3.83609C28.2454 3.82652 28.2006 3.76995 28.1457 3.7104C28.0909 3.65085 28.0546 3.62193 28.0651 3.64596ZM28.4354 4.07257C28.5324 4.20059 28.6163 4.29906 28.6218 4.29119C28.6348 4.2729 28.5893 4.2125 28.4082 4.00813C28.2643 3.84565 28.2654 3.84799 28.4354 4.07257ZM42.4187 4.14657C42.4599 4.15551 42.521 4.1553 42.5544 4.14594C42.5878 4.13679 42.5541 4.12956 42.4795 4.12978C42.4048 4.1302 42.3775 4.13764 42.4187 4.14657ZM28.8426 4.62145C29.0827 5.02233 29.1539 5.12441 29.0312 4.89218C28.9806 4.79648 28.8732 4.62252 28.7924 4.50555C28.6746 4.335 28.6845 4.35796 28.8426 4.62145ZM3.65886 4.46536C3.63692 4.48514 3.62826 4.5147 3.63976 4.53086C3.6511 4.54724 3.68424 4.53937 3.71319 4.51363C3.82559 4.41368 4.17083 4.47302 4.47218 4.64379C5.06833 4.98192 5.96016 6.15881 6.74826 7.64704C6.92259 7.97624 7.01528 8.12617 6.9517 7.97582C6.56929 7.07157 5.36088 5.32367 4.77548 4.82817C4.3786 4.49215 3.82768 4.31309 3.65886 4.46536ZM41.9638 4.54405C41.9406 4.60784 41.9278 4.66016 41.9352 4.66016C41.9427 4.66016 41.9678 4.60784 41.9909 4.54405C42.0141 4.48025 42.0269 4.42814 42.0194 4.42814C42.012 4.42814 41.9869 4.48025 41.9638 4.54405ZM3.38855 4.55064C3.29258 4.60125 3.33661 4.6272 3.45721 4.59083C3.53841 4.56659 3.5502 4.55425 3.50781 4.53809C3.47736 4.52639 3.42378 4.53214 3.38855 4.55064ZM3.11525 4.69121C2.78375 4.92663 2.3897 5.42703 2.16596 5.89638C2.05222 6.13499 1.78355 6.83551 1.82937 6.77384C1.84251 6.75618 1.90953 6.59328 1.97834 6.41188C2.18357 5.87044 2.42403 5.44128 2.66762 5.18161C2.72733 5.11803 2.80046 5.03424 2.83032 4.99532C2.86017 4.9564 2.97898 4.8607 3.09421 4.78266C3.20944 4.70461 3.30407 4.62784 3.30452 4.61189C3.30571 4.56531 3.27362 4.57871 3.11525 4.69121ZM24.3768 4.78585L24.2697 4.95024L24.3849 4.79733C24.4922 4.65506 24.5128 4.62145 24.4922 4.62145C24.4877 4.62145 24.4359 4.69546 24.3768 4.78585ZM24.1865 5.09506L24.1068 5.22075L24.195 5.10718C24.2771 5.00127 24.2956 4.96937 24.2747 4.96937C24.27 4.96937 24.2303 5.02594 24.1865 5.09506ZM29.1414 5.11143C29.1415 5.12909 29.1857 5.21309 29.2394 5.29816C29.338 5.45425 29.3168 5.39088 29.2026 5.18884C29.1687 5.12866 29.1411 5.094 29.1414 5.11143ZM23.8608 5.63651L23.7811 5.76219L23.8693 5.64863C23.9516 5.54272 23.9699 5.51082 23.9491 5.51082C23.9443 5.51082 23.9047 5.56739 23.8608 5.63651ZM41.5296 5.70413C41.5064 5.76793 41.4936 5.82003 41.5011 5.82003C41.5085 5.82003 41.5336 5.76793 41.5567 5.70413C41.5799 5.64033 41.5927 5.58823 41.5852 5.58823C41.5778 5.58823 41.5527 5.64033 41.5296 5.70413ZM29.8313 6.41294C29.8731 6.49099 29.9128 6.55479 29.9195 6.55479C29.9383 6.55479 29.8208 6.32852 29.786 6.2981C29.7692 6.28301 29.7895 6.33468 29.8313 6.41294ZM23.2481 6.73853C23.1701 6.87272 23.1369 6.94141 23.1504 6.94141C23.158 6.94141 23.1966 6.88059 23.2365 6.80616C23.3105 6.66793 23.3195 6.61583 23.2481 6.73853ZM0.255421 6.86975C0.247809 6.9412 0.235271 7.08645 0.227659 7.19278C0.214524 7.37589 0.185119 7.68999 0.128251 8.25611C0.0737709 8.79904 0.0554116 9.29646 0.0767559 9.648L0.0991452 10.0155L0.0906375 9.62886C0.0797414 9.12251 0.101533 8.77692 0.213628 7.67617C0.256466 7.25531 0.291393 6.77171 0.280049 6.75555C0.274078 6.74704 0.263033 6.7985 0.255421 6.86975ZM1.75101 6.93674C1.70011 7.05944 1.64578 7.25084 1.66161 7.25084C1.67623 7.25084 1.814 6.85316 1.80415 6.83912C1.79982 6.83296 1.77594 6.87677 1.75101 6.93674ZM30.5726 7.95753C31.0507 8.97959 31.1037 9.08805 31.0404 8.91537C30.9864 8.76757 30.1486 6.98778 30.1222 6.9646C30.1092 6.95311 30.3119 7.39992 30.5726 7.95753ZM23.0853 7.04775C23.0072 7.18215 22.9741 7.25084 22.9875 7.25084C22.9951 7.25084 23.0338 7.18981 23.0736 7.11538C23.1477 6.97736 23.1566 6.92525 23.0853 7.04775ZM1.55772 7.52624C1.43816 7.90819 1.37861 8.13319 1.27801 8.58467C1.22576 8.81861 1.14949 9.14058 1.1083 9.30008C1.03202 9.59547 0.997844 9.77241 0.943662 10.1507C0.776191 11.3221 0.668873 11.6405 0.4514 11.6107C0.177656 11.5733 0.0616805 11.2466 0.0634716 10.518C0.0645164 10.1008 0.0607851 10.0514 0.041232 10.2281C-0.0442943 10.9997 0.156611 11.6587 0.477222 11.6587C0.612751 11.6587 0.616333 11.6545 0.72395 11.3731C0.798879 11.1775 0.892316 10.7158 0.971126 10.1507C1.01113 9.86492 1.04725 9.68033 1.12621 9.35814C1.16263 9.20927 1.21158 9.00043 1.23502 8.8941C1.36293 8.31204 1.47846 7.85949 1.57921 7.54559C1.61936 7.42076 1.64758 7.31209 1.64205 7.30401C1.63638 7.29614 1.59847 7.39609 1.55772 7.52624ZM22.8296 7.5473C22.7878 7.62556 22.7675 7.67724 22.7844 7.66214C22.8191 7.63172 22.9366 7.40545 22.9178 7.40545C22.9111 7.40545 22.8714 7.46925 22.8296 7.5473ZM22.6084 7.99517C22.4908 8.21421 22.4287 8.345 22.452 8.32501C22.4839 8.29737 22.6642 7.94668 22.6463 7.94668C22.6397 7.94668 22.6227 7.96858 22.6084 7.99517ZM40.6068 8.0628C40.5837 8.1266 40.5709 8.1787 40.5783 8.1787C40.5858 8.1787 40.6109 8.1266 40.634 8.0628C40.6571 7.999 40.67 7.94668 40.6625 7.94668C40.655 7.94668 40.63 7.999 40.6068 8.0628ZM7.20843 8.57511C7.34067 8.85689 7.49769 9.20055 7.55725 9.33879C7.83383 9.97997 8.03235 10.4215 8.04444 10.4215C8.06041 10.4215 8.07324 10.4525 7.77383 9.76411C7.49217 9.11613 7.00155 8.0628 6.98155 8.0628C6.97409 8.0628 7.07618 8.29332 7.20843 8.57511ZM11.3447 8.18848C11.3667 8.23633 11.4241 8.36669 11.4724 8.47834C11.5598 8.68101 11.6134 8.75927 11.5519 8.59446C11.5 8.45538 11.3318 8.1015 11.3177 8.1015C11.3106 8.1015 11.3228 8.14063 11.3447 8.18848ZM40.444 8.44942C40.4209 8.51322 40.408 8.56554 40.4155 8.56554C40.4229 8.56554 40.448 8.51322 40.4712 8.44942C40.4943 8.38562 40.5071 8.33352 40.4997 8.33352C40.4922 8.33352 40.4671 8.38562 40.444 8.44942ZM11.6251 8.81669C11.9592 9.60632 12.6717 11.1507 13.0411 11.8861C13.4293 12.6591 14.0883 13.8628 14.1234 13.8628C14.1301 13.8628 14.0158 13.6495 13.8693 13.389C13.7229 13.1285 13.5126 12.7414 13.402 12.5288C13.2914 12.3161 13.1554 12.0552 13.0997 11.9488C12.9871 11.7334 12.0249 9.66544 11.8131 9.18354C11.7385 9.01362 11.6546 8.83562 11.6267 8.78777C11.577 8.70228 11.5768 8.70292 11.6251 8.81669ZM22.1884 8.84583C22.0784 9.05594 21.9927 9.24564 22.0355 9.18418C22.0908 9.10464 22.2826 8.72014 22.2669 8.72014C22.2599 8.72014 22.2246 8.77671 22.1884 8.84583ZM40.1949 9.01979C40.0856 9.26499 40.0608 9.3407 40.1282 9.22267C40.1891 9.11634 40.3046 8.83605 40.2876 8.83605C40.2816 8.83605 40.2399 8.91877 40.1949 9.01979ZM22.7905 8.89814C22.4733 8.98044 22.3164 9.04935 22.1803 9.1661C22.0948 9.23947 22.0139 9.28987 22.0005 9.27796C21.987 9.26626 21.9678 9.28711 21.9578 9.32432C21.9478 9.36154 21.874 9.52359 21.794 9.68437C21.7142 9.84514 21.5851 10.1057 21.5073 10.2632C21.4294 10.4208 21.2153 10.8366 21.0315 11.1875C20.7456 11.7328 20.6338 11.9392 20.4205 12.3161C20.2148 12.6793 19.8977 13.252 19.7783 13.476C19.6097 13.7918 19.1788 14.5678 19.1557 14.5973C19.1472 14.608 19.0617 14.7473 18.9654 14.9068C18.5043 15.6702 18.1748 16.0496 17.7713 16.2819C17.4779 16.4505 17.387 16.4726 16.9874 16.4726C16.7087 16.4726 16.6317 16.4816 16.7159 16.5041C16.9147 16.5573 17.4096 16.5069 17.6062 16.4135C18.2961 16.0854 18.7104 15.5178 19.9805 13.1612C20.0992 12.9409 20.2777 12.6215 20.3771 12.4513C20.6544 11.9771 21.0731 11.1856 21.5469 10.2405L21.9769 9.38281L22.1324 9.33687C23.0918 9.05296 24.2046 10.118 25.3366 12.4035C25.5463 12.8269 25.5582 12.7506 25.199 13.2786C24.517 14.2805 23.7607 15.7598 23.1704 17.2461C23.1451 17.3099 22.996 17.6665 22.8391 18.0387C22.6824 18.4108 22.453 18.9676 22.3294 19.276C20.737 23.2519 19.2988 25.4611 17.7628 26.2911C17.625 26.3656 17.5305 26.4272 17.5529 26.4281C17.5753 26.4289 17.6913 26.3741 17.8107 26.3058C19.2269 25.4983 20.718 23.3081 22.004 20.146C22.0678 19.9892 22.5412 18.8217 22.5997 18.6767C22.6588 18.5304 23.4229 16.7193 23.5784 16.3567C24.0783 15.1915 24.5274 14.3592 25.1952 13.3605C25.3163 13.1795 25.4749 12.9386 25.5481 12.8252C26.039 12.0624 26.7686 11.8969 27.3362 12.4192C27.4734 12.5453 27.454 12.5173 27.1056 12.0839C25.3224 9.8664 23.6937 8.664 22.7905 8.89814ZM31.3391 9.60951C31.371 9.67331 31.4031 9.72541 31.4106 9.72541C31.4181 9.72541 31.3982 9.67331 31.3663 9.60951C31.3343 9.54571 31.3022 9.49339 31.2948 9.49339C31.2873 9.49339 31.3073 9.54571 31.3391 9.60951ZM31.4454 9.83174C31.4601 9.86896 31.5042 9.95168 31.5434 10.0155C31.5975 10.1033 31.5934 10.0867 31.5267 9.94786C31.4395 9.76624 31.3936 9.70074 31.4454 9.83174ZM39.7471 9.98635C39.6826 10.0944 39.5843 10.3053 39.5983 10.3053C39.6054 10.3053 39.6551 10.2184 39.7087 10.112C39.8053 9.92064 39.825 9.85599 39.7471 9.98635ZM8.05444 10.4725C8.05444 10.5078 8.19325 10.8081 8.20952 10.8081C8.22265 10.8081 8.11489 10.542 8.07727 10.4814C8.06474 10.4612 8.05444 10.4572 8.05444 10.4725ZM39.4768 10.5278C39.3987 10.662 39.3657 10.7307 39.379 10.7307C39.3866 10.7307 39.4253 10.6699 39.4651 10.5954C39.5392 10.4572 39.5481 10.4051 39.4768 10.5278ZM31.9643 10.9012C32.0154 11.0022 32.0688 11.0954 32.0832 11.1079C32.0975 11.1207 32.0675 11.0482 32.0164 10.947C31.9655 10.8459 31.9121 10.7528 31.8978 10.74C31.8834 10.7275 31.9134 10.8 31.9643 10.9012ZM8.21728 10.867C8.21728 10.878 8.24639 10.9518 8.28206 11.0312C8.31758 11.1105 8.39759 11.3015 8.45968 11.4556C8.52177 11.6098 8.57909 11.7362 8.587 11.7362C8.59506 11.7362 8.57774 11.6796 8.54849 11.6105C8.51923 11.5414 8.43789 11.3412 8.36759 11.1658C8.25161 10.8766 8.21728 10.8083 8.21728 10.867ZM39.0856 11.2623C38.939 11.5235 38.9294 11.5428 38.9465 11.5428C38.955 11.5428 39.0182 11.4384 39.0871 11.3108C39.2354 11.0361 39.2342 10.9976 39.0856 11.2623ZM38.776 11.8089C38.7094 11.9284 38.6763 12.0016 38.7024 11.9718C38.7636 11.9018 38.9203 11.6203 38.9072 11.6041C38.9017 11.5973 38.8427 11.6894 38.776 11.8089ZM8.5973 11.7834C8.5973 11.7966 8.65596 11.9522 8.72775 12.1294C8.79955 12.3065 8.90492 12.5732 8.96194 12.7221C9.01911 12.8709 9.09911 13.0798 9.14001 13.1861C9.21882 13.3915 9.33524 13.699 9.51331 14.172C9.57331 14.3315 9.69825 14.6709 9.79109 14.9261C9.88378 15.1813 9.97229 15.4074 9.98781 15.4287C10.0135 15.464 9.56525 14.2041 9.52003 14.114C9.50943 14.0927 9.42331 13.8666 9.32897 13.6114C9.23449 13.3562 9.12284 13.064 9.08075 12.962C9.03866 12.8601 9.00433 12.7695 9.00433 12.7608C9.00433 12.7521 8.96985 12.6615 8.92791 12.5594C8.88582 12.4575 8.80507 12.2523 8.74835 12.1034C8.64909 11.8427 8.5973 11.7328 8.5973 11.7834ZM32.6147 12.07C32.6147 12.0907 32.6604 12.1674 32.7163 12.2408L32.8181 12.3741L32.7232 12.2198C32.6709 12.1349 32.6251 12.0581 32.6214 12.049C32.6177 12.0401 32.6147 12.0494 32.6147 12.07ZM38.5596 12.1732L38.4936 12.2967L38.58 12.1832C38.6699 12.0649 38.6802 12.0439 38.6461 12.0475C38.635 12.0488 38.596 12.1053 38.5596 12.1732ZM38.3802 12.4805L38.273 12.6447L38.3882 12.492C38.4955 12.3497 38.5161 12.3161 38.4955 12.3161C38.4911 12.3161 38.4393 12.3901 38.3802 12.4805ZM33.0754 12.7897C33.232 13.0183 33.3632 13.2055 33.3672 13.2055C33.3868 13.2055 33.3537 13.1559 33.0828 12.7793L32.791 12.3741L33.0754 12.7897ZM27.6543 12.762C27.6949 12.8229 27.733 12.8648 27.7389 12.8554C27.7449 12.8458 27.7116 12.7961 27.665 12.7448L27.5804 12.6515L27.6543 12.762ZM28.0012 13.2248C28.1273 13.4056 28.2367 13.5534 28.2442 13.5534C28.2516 13.5534 28.1545 13.4056 28.0282 13.2248C27.9021 13.044 27.7927 12.896 27.7852 12.896C27.7777 12.896 27.8749 13.044 28.0012 13.2248ZM37.9189 13.1378L37.8116 13.302L37.927 13.1493C38.0342 13.007 38.0548 12.9734 38.0342 12.9734C38.0299 12.9734 37.9779 13.0474 37.9189 13.1378ZM33.5037 13.3762C33.5593 13.449 33.6092 13.5025 33.6144 13.4951C33.6265 13.4779 33.4489 13.2467 33.4223 13.2452C33.4114 13.2446 33.448 13.3035 33.5037 13.3762ZM37.5539 13.5581C37.4592 13.6763 37.4592 13.6763 37.5462 13.594C37.5943 13.5485 37.6407 13.4945 37.6495 13.4743C37.6758 13.4139 37.654 13.433 37.5539 13.5581ZM33.6556 13.5447C33.6771 13.594 33.8358 13.7616 33.8358 13.7346C33.8358 13.725 33.791 13.6684 33.7362 13.6089C33.6814 13.5493 33.6452 13.5204 33.6556 13.5447ZM28.2454 13.6042C28.2454 13.6108 28.2851 13.6674 28.3336 13.7299L28.4218 13.8434L28.3421 13.7178C28.2678 13.6006 28.2454 13.5742 28.2454 13.6042ZM33.8744 13.7805C33.901 13.8415 34.0529 13.9883 34.0526 13.9523C34.0525 13.9349 34.0083 13.8802 33.9547 13.8307C33.901 13.7811 33.8649 13.7586 33.8744 13.7805ZM14.2641 14.1237C14.5934 14.6622 15.3285 15.6156 15.5649 15.8112C15.6658 15.8946 15.5694 15.7738 15.3507 15.5426C15.0809 15.2575 14.4916 14.4621 14.2962 14.1195C14.2291 14.0015 14.1638 13.9043 14.1511 13.9032C14.1384 13.9021 14.1893 14.0015 14.2641 14.1237ZM34.0937 14.0068C34.1086 14.027 34.1697 14.0827 34.2294 14.1305C34.2891 14.1784 34.3134 14.1884 34.2836 14.1531C34.223 14.0812 34.051 13.9489 34.0937 14.0068ZM36.1018 14.5586L36.0477 14.592H36.1018C36.1317 14.592 36.1807 14.5769 36.2105 14.5586L36.2647 14.5255H36.2105C36.1807 14.5255 36.1317 14.5404 36.1018 14.5586ZM35.0434 14.6361C35.0733 14.6543 35.1161 14.6692 35.1385 14.6692C35.1642 14.6692 35.1591 14.6569 35.1249 14.6361C35.0951 14.6178 35.0522 14.6029 35.0299 14.6029C35.0043 14.6029 35.0093 14.6152 35.0434 14.6361ZM35.3896 14.703C35.4605 14.7111 35.5765 14.7111 35.6474 14.703C35.7183 14.6952 35.6602 14.6886 35.5184 14.6886C35.3766 14.6886 35.3187 14.6952 35.3896 14.703ZM29.0896 15.2064C29.2665 15.585 29.3756 15.7944 29.3165 15.6413C29.2642 15.5065 28.9214 14.7907 28.909 14.7907C28.9015 14.7907 28.9829 14.9778 29.0896 15.2064ZM10.0084 15.4965C10.0084 15.5088 10.0495 15.6292 10.0995 15.7638C10.1496 15.8984 10.2971 16.3044 10.4274 16.6659C10.5577 17.0275 10.6771 17.3407 10.6928 17.362C10.7295 17.412 10.0602 15.5516 10.0192 15.4899C10.0132 15.481 10.0084 15.4839 10.0084 15.4965ZM15.6776 15.9029C15.7134 15.9448 15.8111 16.0284 15.8946 16.0886C16.0963 16.234 16.0873 16.2285 16.0873 16.2079C16.0873 16.1979 16.0294 16.1475 15.9585 16.096C15.8876 16.0445 15.7808 15.9629 15.7211 15.9146C15.633 15.8431 15.6248 15.841 15.6776 15.9029ZM29.5835 16.2793C29.6065 16.3431 29.6456 16.4301 29.6704 16.4726C29.6951 16.5152 29.6881 16.4805 29.6545 16.3954C29.5805 16.2076 29.5251 16.1173 29.5835 16.2793ZM16.1475 16.2625C16.2063 16.3112 16.5184 16.4541 16.559 16.4509C16.5863 16.4488 16.147 16.2244 16.1145 16.224C16.107 16.2238 16.122 16.241 16.1475 16.2625ZM29.8548 16.898C29.8778 16.9618 29.9169 17.0487 29.9417 17.0913C29.9666 17.1338 29.9595 17.0991 29.9259 17.0141C29.852 16.8263 29.7965 16.7359 29.8548 16.898ZM10.7146 17.4413C10.715 17.4615 10.739 17.5215 10.7683 17.5746C10.7975 17.6278 10.8219 17.6889 10.8226 17.7101C10.8232 17.7314 10.8492 17.7922 10.8802 17.8454C10.9164 17.9073 10.9053 17.8583 10.8495 17.7101C10.758 17.4664 10.7135 17.3779 10.7146 17.4413ZM30.2943 17.9228C30.3174 17.9866 30.3425 18.0387 30.3499 18.0387C30.3574 18.0387 30.3446 17.9866 30.3214 17.9228C30.2983 17.859 30.2732 17.8067 30.2658 17.8067C30.2583 17.8067 30.2711 17.859 30.2943 17.9228ZM10.9311 17.9923C10.9311 18.0093 10.9417 18.0398 10.9546 18.06C10.9846 18.107 11.0668 18.3234 11.5486 19.6241C11.6155 19.8049 11.7055 20.0441 11.7485 20.1558C11.7915 20.2674 11.8649 20.4588 11.9118 20.5811C12.2357 21.4271 12.8481 22.8173 13.0587 23.1841C13.09 23.2388 13.1463 23.3419 13.1836 23.4134C13.5856 24.1824 14.4025 25.412 14.717 25.7214C15.1625 26.1599 15.919 26.5897 16.223 26.5774C16.289 26.5746 16.2974 26.5691 16.2502 26.5593C15.0766 26.3152 13.9956 25.0826 12.8357 22.6658C12.5415 22.0527 11.9352 20.6436 11.9352 20.573C11.9352 20.5666 11.8822 20.4244 11.8173 20.257C11.7525 20.0896 11.6227 19.7438 11.5286 19.4886C11.4347 19.2334 11.3247 18.9376 11.2841 18.8313C11.2437 18.725 11.1528 18.4857 11.0822 18.2996C10.9611 17.9804 10.9311 17.9194 10.9311 17.9923ZM30.4717 18.3288C30.4719 18.35 30.4968 18.4108 30.5274 18.464C30.5643 18.5282 30.5735 18.5346 30.5549 18.4834C30.5091 18.3573 30.4714 18.2873 30.4717 18.3288ZM30.6743 18.8119C30.6974 18.8757 30.7225 18.9281 30.73 18.9281C30.7374 18.9281 30.7246 18.8757 30.7013 18.8119C30.6782 18.7481 30.6531 18.696 30.6456 18.696C30.6382 18.696 30.6512 18.7481 30.6743 18.8119ZM30.8913 19.3147C30.9144 19.3785 30.9395 19.4306 30.947 19.4306C30.9544 19.4306 30.9416 19.3785 30.9185 19.3147C30.8953 19.2509 30.8703 19.1988 30.8628 19.1988C30.8553 19.1988 30.8682 19.2509 30.8913 19.3147ZM31.1576 19.914C31.1806 19.9778 31.2195 20.0647 31.2445 20.1073C31.2692 20.1498 31.2621 20.1151 31.2285 20.0301C31.1546 19.8423 31.0992 19.7519 31.1576 19.914ZM38.7614 20.9386C38.7382 21.0024 38.7254 21.0547 38.7329 21.0547C38.7403 21.0547 38.7654 21.0024 38.7885 20.9386C38.8117 20.8748 38.8245 20.8227 38.8171 20.8227C38.8096 20.8227 38.7847 20.8748 38.7614 20.9386ZM38.4418 21.654C38.3864 21.771 38.3503 21.8664 38.3614 21.8664C38.3797 21.8662 38.4255 21.7707 38.5242 21.5283C38.5888 21.3694 38.5438 21.4383 38.4418 21.654ZM32.073 21.8824C32.1239 21.9836 32.1773 22.0768 32.1917 22.0893C32.206 22.1019 32.176 22.0293 32.1251 21.9283C32.0741 21.8271 32.0206 21.7339 32.0063 21.7214C31.992 21.7089 32.022 21.7812 32.073 21.8824ZM32.3156 22.3681C32.347 22.4313 32.3868 22.4951 32.4038 22.5102C32.4206 22.5251 32.4003 22.4734 32.3585 22.3953C32.2678 22.2258 32.2336 22.2042 32.3156 22.3681ZM38.0813 22.3953C38.0396 22.4734 38.0191 22.5251 38.0361 22.5102C38.0709 22.4796 38.1884 22.2533 38.1694 22.2533C38.1627 22.2533 38.1231 22.3173 38.0813 22.3953ZM37.9185 22.7046C37.8767 22.7826 37.8563 22.8343 37.8733 22.8194C37.9081 22.7888 38.0255 22.5627 38.0067 22.5627C38 22.5627 37.9603 22.6265 37.9185 22.7046ZM32.67 23.0425C32.7209 23.1435 32.7744 23.2366 32.7887 23.2492C32.803 23.2619 32.773 23.1894 32.7221 23.0882C32.6711 22.987 32.6177 22.894 32.6033 22.8813C32.589 22.8687 32.619 22.9412 32.67 23.0425ZM37.5539 23.3551C37.5189 23.4083 37.4953 23.4582 37.5016 23.4661C37.5079 23.474 37.5415 23.4306 37.5762 23.3696C37.6539 23.233 37.6403 23.2243 37.5539 23.3551ZM37.3756 23.6549L37.2959 23.7806L37.3841 23.6671C37.4664 23.5612 37.4849 23.5293 37.4639 23.5293C37.4592 23.5293 37.4195 23.5858 37.3756 23.6549ZM33.0625 23.7613C33.1207 23.8463 33.1746 23.9159 33.182 23.9159C33.1895 23.9159 33.1478 23.8463 33.0895 23.7613C33.0313 23.6762 32.9774 23.6067 32.9699 23.6067C32.9624 23.6067 33.0041 23.6762 33.0625 23.7613ZM37.1477 24.0069L37.0265 24.206L37.168 24.0141C37.2459 23.9087 37.3095 23.8172 37.3095 23.811C37.3095 23.7662 37.251 23.837 37.1477 24.0069ZM33.2254 24.0322C33.2525 24.075 33.2802 24.1018 33.2871 24.092C33.3017 24.0711 33.2244 23.9546 33.1959 23.9546C33.185 23.9546 33.1983 23.9895 33.2254 24.0322ZM33.3228 24.1315C33.3353 24.1756 33.5916 24.5154 33.5916 24.488C33.5916 24.4782 33.5286 24.3852 33.4517 24.2815C33.3747 24.1777 33.3168 24.1101 33.3228 24.1315ZM36.8076 24.526C36.7478 24.6051 36.6684 24.7008 36.6311 24.7385L36.5632 24.807L36.6447 24.7514C36.6895 24.7208 36.7744 24.6247 36.8334 24.5377C36.9673 24.3408 36.9522 24.334 36.8076 24.526ZM33.7641 24.6804C33.7856 24.73 33.9444 24.8973 33.9444 24.8705C33.9444 24.861 33.8995 24.8044 33.8447 24.7449C33.79 24.6853 33.7537 24.6564 33.7641 24.6804ZM34.0529 24.9773C34.0529 24.9879 34.0895 25.0237 34.1343 25.0566C34.1791 25.0896 34.2158 25.1079 34.2158 25.0972C34.2158 25.0866 34.1791 25.0509 34.1343 25.0179C34.0895 24.985 34.0529 24.9667 34.0529 24.9773ZM35.0096 25.5279C35.0357 25.5377 35.0784 25.5377 35.1045 25.5279C35.1306 25.5183 35.1093 25.5102 35.057 25.5102C35.0048 25.5102 34.9834 25.5183 35.0096 25.5279ZM35.3081 25.5279C35.3342 25.5377 35.3769 25.5377 35.403 25.5279C35.4291 25.5183 35.4078 25.5102 35.3555 25.5102C35.3033 25.5102 35.282 25.5183 35.3081 25.5279ZM17.3765 26.4679C17.3014 26.4951 17.3002 26.4979 17.3629 26.5015C17.4002 26.5036 17.449 26.4885 17.4714 26.4679C17.5177 26.4253 17.4938 26.4253 17.3765 26.4679ZM17.0644 26.547C16.9823 26.5631 16.7808 26.5806 16.6166 26.5859C16.3469 26.5944 16.3338 26.598 16.4809 26.6225C16.638 26.6488 17.2401 26.5787 17.2741 26.53C17.2925 26.5038 17.2765 26.5051 17.0644 26.547Z" fill="#115E96"/>
</svg>
